<?xml version="1.0" encoding="UTF-8"?>
<svg width="675px" height="62px" viewBox="0 0 675 62" version="1.1" xmlns="http://www.w3.org/2000/svg" xmlns:xlink="http://www.w3.org/1999/xlink">
    <!-- Generator: Sketch 63.1 (92452) - https://sketch.com -->
    <title>Group@2x</title>
    <desc>Created with Sketch.</desc>
    <defs>
        <path d="M25.1206352,22.887359 L23.9444431,22.887359 L23.5275649,22.4853693 C24.9866386,20.7880794 25.8650606,18.5845802 25.8650606,16.1875304 C25.8650606,10.842556 21.5325048,6.51000015 16.1875304,6.51000015 C10.842556,6.51000015 6.51000015,10.842556 6.51000015,16.1875304 C6.51000015,21.5325048 10.842556,25.8650606 16.1875304,25.8650606 C18.5845802,25.8650606 20.7880794,24.9866386 22.4853693,23.5275649 L22.887359,23.9444431 L22.887359,25.1206352 L30.331613,32.5500007 L32.5500007,30.331613 L25.1206352,22.887359 Z M16.1875304,22.887359 C12.4802919,22.887359 9.48770176,19.8947689 9.48770176,16.1875304 C9.48770176,12.4802919 12.4802919,9.48770176 16.1875304,9.48770176 C19.8947689,9.48770176 22.887359,12.4802919 22.887359,16.1875304 C22.887359,19.8947689 19.8947689,22.887359 16.1875304,22.887359 Z" id="path-1"></path>
        <path d="M19.5300004,6.51000015 C12.3429603,6.51000015 6.51000015,12.3429603 6.51000015,19.5300004 C6.51000015,26.7170406 12.3429603,32.5500007 19.5300004,32.5500007 C26.7170406,32.5500007 32.5500007,26.7170406 32.5500007,19.5300004 C32.5500007,12.3429603 26.7170406,6.51000015 19.5300004,6.51000015 Z M16.9260004,26.0400006 L10.4160002,19.5300004 L12.2518203,17.6941804 L16.9260004,22.3553405 L26.8081806,12.4731603 L28.6440007,14.3220003 L16.9260004,26.0400006 Z" id="path-3"></path>
        <path d="M27.9744006,12.7100003 L24.5520006,18.9100004 L27.9744006,12.7100003 Z M18.9100004,16.4300004 L21.3900005,16.4300004 L21.3900005,12.7100003 L25.1100006,12.7100003 L25.1100006,10.2300002 L21.3900005,10.2300002 L21.3900005,6.51000015 L18.9100004,6.51000015 L18.9100004,10.2300002 L15.1900003,10.2300002 L15.1900003,12.7100003 L18.9100004,12.7100003 L18.9100004,16.4300004 Z M13.9500003,27.5900006 C12.5860003,27.5900006 11.4824003,28.7060007 11.4824003,30.0700007 C11.4824003,31.4340007 12.5860003,32.5500007 13.9500003,32.5500007 C15.3140003,32.5500007 16.4300004,31.4340007 16.4300004,30.0700007 C16.4300004,28.7060007 15.3140003,27.5900006 13.9500003,27.5900006 Z M26.3500006,27.5900006 C24.9860006,27.5900006 23.8824005,28.7060007 23.8824005,30.0700007 C23.8824005,31.4340007 24.9860006,32.5500007 26.3500006,32.5500007 C27.7140006,32.5500007 28.8300007,31.4340007 28.8300007,30.0700007 C28.8300007,28.7060007 27.7140006,27.5900006 26.3500006,27.5900006 Z M14.1608003,23.5600005 L14.1980003,23.4112005 L15.3140003,21.3900005 L24.5520006,21.3900005 C25.4820006,21.3900005 26.3004006,20.8816005 26.7220006,20.1128005 L31.5084007,11.4204003 L29.3508007,10.2300002 L29.3384007,10.2300002 L27.9744006,12.7100003 L24.5520006,18.9100004 L15.8472004,18.9100004 L15.6860004,18.5752004 L12.9084003,12.7100003 L11.7304003,10.2300002 L10.5648002,7.75000018 L6.51000015,7.75000018 L6.51000015,10.2300002 L8.9900002,10.2300002 L13.4540003,19.6416004 L11.7800003,22.6796005 C11.5816003,23.0268005 11.4700003,23.4360005 11.4700003,23.8700005 C11.4700003,25.2340006 12.5860003,26.3500006 13.9500003,26.3500006 L28.8300007,26.3500006 L28.8300007,23.8700005 L14.4708003,23.8700005 C14.3096003,23.8700005 14.1608003,23.7336005 14.1608003,23.5600005 Z" id="path-5"></path>
    </defs>
    <g id="Page-1" stroke="none" stroke-width="1" fill="none" fill-rule="evenodd">
        <g id="Superama_3" transform="translate(-69.000000, -230.000000)">
            <g id="Group-19" transform="translate(36.000000, 31.000000)">
                <g id="Group" transform="translate(33.000000, 199.000000)">
                    <line x1="63" y1="31.5" x2="622.5" y2="31.5" id="Line" stroke="#007AC2" stroke-width="3.8" stroke-linecap="square" stroke-dasharray="3.499999940395355,10.49999982118607"></line>
                    <g id="Group-10">
                        <circle id="Oval" stroke="#007AC2" stroke-width="1.89000004" fill="#FFFFFF" cx="30.5550007" cy="30.5550007" r="29.6100007"></circle>
                        <g id="Elementos/icons/action/search_24px" transform="translate(11.340000, 11.340000)">
                            <mask id="mask-2" fill="white">
                                <use xlink:href="#path-1"></use>
                            </mask>
                            <use id="ic_search_24px" fill="#414141" fill-rule="evenodd" xlink:href="#path-1"></use>
                        </g>
                    </g>
                    <g id="Group-11" transform="translate(613.000000, 0.000000)">
                        <circle id="Oval-Copy-2" fill="#007AC2" cx="30.5550007" cy="30.5550007" r="30.5550007"></circle>
                        <g id="Elementos/icons/action/check_circle_24px" transform="translate(11.340000, 11.340000)">
                            <mask id="mask-4" fill="white">
                                <use xlink:href="#path-3"></use>
                            </mask>
                            <use id="ic_check_circle_24px" fill="#FFFFFF" fill-rule="evenodd" xlink:href="#path-3"></use>
                        </g>
                    </g>
                    <g id="Group-9" transform="translate(307.000000, 0.000000)">
                        <circle id="Oval-Copy" stroke="#007AC2" stroke-width="1.89000004" fill="#FFFFFF" cx="30.5550007" cy="30.5550007" r="29.6100007"></circle>
                        <g id="Elementos/icons/action/add_shopping_cart_24px" transform="translate(11.340000, 11.340000)">
                            <mask id="mask-6" fill="white">
                                <use xlink:href="#path-5"></use>
                            </mask>
                            <use id="ic_add_shopping_cart_24px" fill="#414141" fill-rule="evenodd" xlink:href="#path-5"></use>
                        </g>
                    </g>
                </g>
            </g>
        </g>
    </g>
</svg>