<?xml version="1.0" encoding="UTF-8"?>
<svg width="432px" height="144px" viewBox="0 0 432 144" version="1.1" xmlns="http://www.w3.org/2000/svg" xmlns:xlink="http://www.w3.org/1999/xlink">
    <!-- Generator: Sketch 63.1 (92452) - https://sketch.com -->
    <title>Elementos/logo/normal/Superama Copy@2x</title>
    <desc>Created with Sketch.</desc>
    <defs>
        <linearGradient x1="50%" y1="0%" x2="50%" y2="100%" id="linearGradient-1">
            <stop stop-color="#000000" offset="0%"></stop>
            <stop stop-color="#FFFFFF" offset="100%"></stop>
        </linearGradient>
    </defs>
    <g id="Resultado-Catálogo" stroke="none" stroke-width="1" fill="none" fill-rule="evenodd">
        <g id="Elementos/logo/normal/Bodega">
            <g id="bodega-aurrera">
                <path d="M417.836603,2.13878881 L13.3381764,2.13878881 C10.2079458,2.13878881 7.37410852,3.41106286 5.32267875,5.4672413 C3.2695772,7.52509541 2,10.3680268 2,13.5078406 L2,130.46555 C2,133.605364 3.2695772,136.448295 5.32267875,138.50615 C7.37410852,140.562328 10.2079458,141.834602 13.3381764,141.834602 L417.836603,141.834602 C420.966834,141.834602 423.800671,140.562328 425.852101,138.50615 C427.905202,136.448295 429.174779,133.605364 429.174779,130.46555 L429.174779,13.5078406 C429.174779,10.3680268 427.905202,7.52509541 425.852101,5.4672413 C423.800671,3.41106286 420.966834,2.13878881 417.836603,2.13878881 Z" id="Path" stroke="#FFFFFF" stroke-width="4" fill="#6DAC3B"></path>
                <g id="Group-2" transform="translate(3.070221, 23.643577)">
                    <path d="M78.4599184,52.872995 L71.8337182,52.872995 L71.8337182,19.4932637 L79.6929492,19.4932637 C82.0089026,19.4932637 86.5764775,20.836617 87.6594002,24.8989173 C88.7423229,28.9719644 87.402072,33.9692386 84.110416,35.5060347 C87.0911338,36.6881856 90.2219598,40.6107772 88.2705546,46.7902022 C86.3298714,52.9696273 79.382011,52.872995 78.4599184,52.872995 Z M75.6400306,33.6575806 L79.317679,33.6575806 C82.0517907,33.6575806 84.2819681,31.4329876 84.2819681,28.6818001 L84.2819681,28.1122183 C84.2819681,25.3717776 82.0625127,23.1364378 79.317679,23.1364378 L75.6400306,23.1364378 L75.6400306,33.6575806 Z M75.6400306,49.1115167 L79.6178951,49.1115167 C82.587891,49.1115167 84.9896205,46.6612403 84.9896205,43.6306353 L84.9896205,43.0073194 C84.9896205,39.9767144 82.587891,37.5264381 79.6178951,37.5264381 L75.6400306,37.5264381 L75.6400306,49.1115167 Z M100.407866,27.574877 C105.854646,27.574877 110.325722,31.5404559 110.325722,40.3528534 C110.325722,49.1652508 106.165584,53.5392091 100.665194,53.5392091 C95.1648049,53.5392091 90.8974462,49.2619723 90.8974462,40.557043 C90.8974462,31.8521138 95.5722412,27.574877 100.407866,27.574877 Z M94.5536505,40.2991192 C94.5536505,46.6397467 97.4807584,49.9820096 100.976133,49.9820096 C104.471507,49.9820096 106.73385,45.3931148 106.73385,39.9874613 C106.73385,34.5818077 103.549414,31.1320765 100.622306,31.1320765 C98.2527429,31.1320765 94.5536505,33.9692386 94.5536505,40.2991192 L94.5536505,40.2991192 Z M126.205014,17 L126.205014,30.6162288 C124.628879,28.6925469 122.720362,27.574877 121.047729,27.574877 C116.212104,27.574877 111.537309,31.8521138 111.537309,40.557043 C111.537309,49.2619723 115.804668,53.5392091 121.305057,53.5392091 C123.052744,53.5392091 124.800432,52.4107924 126.205014,50.5515914 L126.205014,52.8729059 L129.38945,52.8729059 L129.38945,17 L126.205014,17 Z M121.615996,49.9820096 C118.120621,49.9820096 115.193514,46.6289999 115.193514,40.2991192 C115.193514,33.9584918 118.892606,31.1320765 121.262169,31.1320765 C124.189277,31.1320765 126.215736,34.4313521 126.215736,39.8370057 C126.215736,45.2426593 125.11137,49.9820096 121.615996,49.9820096 L121.615996,49.9820096 Z M140.969218,27.4244214 C144.796974,27.4244214 149.664765,30.0359002 149.450325,41.6962066 L135.897709,41.6962066 C135.897709,41.6962066 135.758322,47.735923 139.864851,49.5198961 C143.97138,51.3038693 147.87419,47.8004039 147.87419,47.8004039 L147.87419,52.120628 C147.87419,52.120628 145.547515,53.5392091 141.376654,53.5392091 C137.205793,53.5392091 132.069952,50.884743 132.069952,40.557043 C132.069952,30.2293431 137.816948,27.4244214 140.969218,27.4244214 L140.969218,27.4244214 Z M145.686901,38.0530325 C145.686901,38.0530325 145.279464,31.1320765 141.03355,31.1320765 C136.787635,31.1320765 135.769044,38.0530325 135.769044,38.0530325 L145.686901,38.0530325 Z M165.200953,29.7564827 L165.200953,27.9725096 L168.824991,27.9725096 L168.824991,51.1534137 C168.824991,51.1534137 169.371814,58.8373944 163.892868,61.9969613 C158.413923,65.1565282 153.760572,62.6095304 152.602595,61.9969613 L152.602595,57.4725475 C152.602595,57.4725475 157.59905,60.2129882 161.158756,59.052331 C164.718463,57.8809269 165.404671,52.7331971 165.329617,49.9927565 C163.002942,52.679463 161.973629,53.1523234 159.582621,53.1523234 C157.191614,53.1523234 150.822742,50.8739962 150.822742,40.4818153 C150.822742,30.1003811 155.486815,27.4244214 159.829228,27.4244214 C163.485432,27.4244214 165.200953,29.7564827 165.200953,29.7564827 L165.200953,29.7564827 Z M154.521834,40.2883724 C154.521834,44.640837 156.162301,49.4446683 159.829228,49.4446683 C163.496154,49.4446683 165.329617,45.6080514 165.329617,39.7080438 C165.329617,33.8080362 162.659837,31.1320765 159.829228,31.1320765 C155.969305,31.1320765 154.521834,35.9359078 154.521834,40.2883724 L154.521834,40.2883724 Z M173.52123,33.5393655 L173.52123,29.4233311 C173.52123,29.4233311 175.772852,27.6823453 180.233206,27.6823453 C184.693561,27.6823453 187.341897,30.5195074 187.341897,35.2158704 L187.341897,53.0126146 L184.103851,53.0126146 L184.103851,50.5838319 C184.103851,50.5838319 181.95945,53.5929432 178.324689,53.5929432 C174.689929,53.5929432 171.044447,51.2823756 171.044447,46.5000379 C171.044447,41.7177003 173.649894,39.1921961 178.153137,37.6554 C181.048079,36.666692 183.642805,37.0750714 183.642805,37.0750714 L183.642805,35.0439212 C183.642805,35.0439212 183.814357,31.3900003 179.997322,31.1320765 C176.180288,30.8741526 173.52123,33.5393655 173.52123,33.5393655 Z M176.094512,42.9750789 C174.625597,44.2754449 174.325381,46.7579618 175.440469,48.4022262 C176.201732,49.5306429 177.563427,49.8852882 178.850068,49.8852882 C183.589195,49.8852882 183.707137,43.8025846 183.707137,43.8025846 L183.707137,40.9654224 C181.198187,40.9869161 178.067361,41.2125994 176.094512,42.9750789 L176.094512,42.9750789 Z M115.268568,68.9286642 L117.563077,68.9286642 L117.563077,77.5261252 L121.58383,77.5261252 L121.58383,79.5465285 L115.268568,79.5465285 L115.268568,68.9286642 Z M127.094941,79.5357817 L126.955555,78.7620102 L126.912667,78.7620102 C126.430177,79.3745793 125.679636,79.7077309 124.811154,79.7077309 C123.320795,79.7077309 122.44159,78.5793142 122.44159,77.3434292 C122.44159,75.3445195 124.157111,74.388052 126.751837,74.3987988 L126.751837,74.2913305 C126.751837,73.8829511 126.537397,73.3026225 125.411586,73.3026225 C124.661045,73.3026225 123.867617,73.5712932 123.385127,73.8829511 L122.966968,72.3354081 C123.481625,72.034497 124.478771,71.6583581 125.819022,71.6583581 C128.26364,71.6583581 129.046346,73.1736606 129.046346,74.9791274 L129.046346,77.6550871 C129.046346,78.3966181 129.078512,79.1059087 129.153566,79.5250349 L127.094941,79.5250349 L127.094941,79.5357817 Z M126.826891,75.8926076 C125.626026,75.8818608 124.693212,76.1720251 124.693212,77.106999 C124.693212,77.7195681 125.079204,78.0204792 125.59386,78.0204792 C126.162126,78.0204792 126.633895,77.6228466 126.784003,77.1392395 C126.816169,77.0102775 126.826891,76.8705688 126.826891,76.7308601 L126.826891,75.8926076 Z M139.382361,79.3423388 C138.974925,79.5357817 138.213662,79.6862373 137.345179,79.6862373 C134.975616,79.6862373 133.463813,78.1709348 133.463813,75.7528989 C133.463813,73.5068122 134.932728,71.6583581 137.66684,71.6583581 C138.267272,71.6583581 138.932036,71.7658264 139.403805,71.9592692 L139.039257,73.7432424 C138.771206,73.6142805 138.36377,73.5068122 137.763338,73.5068122 C136.562473,73.5068122 135.779766,74.3987988 135.801211,75.6669243 C135.801211,77.0855053 136.701859,77.8270363 137.816948,77.8270363 C138.353048,77.8270363 138.781928,77.7303149 139.125033,77.5906062 L139.382361,79.3423388 Z M144.88275,79.5357817 L144.743364,78.7620102 L144.700476,78.7620102 C144.217986,79.3745793 143.467445,79.7077309 142.598963,79.7077309 C141.119326,79.7077309 140.229399,78.5793142 140.229399,77.3434292 C140.229399,75.3445195 141.94492,74.388052 144.539646,74.3987988 L144.539646,74.2913305 C144.539646,73.8829511 144.325206,73.3026225 143.199395,73.3026225 C142.448855,73.3026225 141.655426,73.5712932 141.172936,73.8829511 L140.754778,72.3354081 C141.269434,72.034497 142.266581,71.6583581 143.606831,71.6583581 C146.051449,71.6583581 146.834155,73.1736606 146.834155,74.9791274 L146.834155,77.6550871 C146.834155,78.3966181 146.866321,79.1059087 146.941376,79.5250349 L144.88275,79.5250349 L144.88275,79.5357817 Z M144.603978,75.8926076 C143.403113,75.8818608 142.470299,76.1720251 142.470299,77.106999 C142.470299,77.7195681 142.856291,78.0204792 143.370947,78.0204792 C143.939214,78.0204792 144.410982,77.6228466 144.56109,77.1392395 C144.593256,77.0102775 144.603978,76.8705688 144.603978,76.7308601 L144.603978,75.8926076 Z M148.635453,74.2913305 C148.635453,73.334863 148.603287,72.5073574 148.571121,71.8303073 L150.49036,71.8303073 L150.59758,72.8727495 L150.640468,72.8727495 C150.951406,72.3891423 151.605448,71.6583581 152.859923,71.6583581 C153.80346,71.6583581 154.554,72.1634589 154.875661,72.9694709 L154.907827,72.9694709 C155.175877,72.5718383 155.508259,72.2601804 155.851363,72.0452438 C156.258799,71.7980668 156.709124,71.6691049 157.245224,71.6691049 C158.660529,71.6691049 159.722008,72.7115471 159.722008,75.0113679 L159.722008,79.5465285 L157.502552,79.5465285 L157.502552,75.3552663 C157.502552,74.2375964 157.159448,73.5927868 156.419629,73.5927868 C155.894251,73.5927868 155.518981,73.9689257 155.368873,74.4310393 C155.304541,74.6029885 155.283097,74.8609123 155.283097,75.0436084 L155.283097,79.5465285 L153.063641,79.5465285 L153.063641,75.2370512 C153.063641,74.25909 152.731259,73.6035336 152.012885,73.6035336 C151.423174,73.6035336 151.08007,74.076394 150.951406,74.4740266 C150.876352,74.6674694 150.86563,74.882406 150.86563,75.0758488 L150.86563,79.5572754 L148.646175,79.5572754 L148.646175,74.2913305 L148.635453,74.2913305 Z M161.544749,74.4202924 C161.544749,73.4100908 161.512583,72.5503447 161.480417,71.8410541 L163.463988,71.8410541 L163.571208,72.9157368 L163.603374,72.9157368 C164.139474,72.098978 164.986513,71.6691049 166.047992,71.6691049 C167.656293,71.6691049 169.093041,73.1306733 169.093041,75.5916965 C169.093041,78.3966181 167.398964,79.7184778 165.758497,79.7184778 C164.868571,79.7184778 164.182362,79.3423388 163.84998,78.837238 L163.817814,78.837238 L163.817814,82.6631081 L161.534027,82.6631081 L161.534027,74.4202924 L161.544749,74.4202924 Z M163.817814,76.2257592 C163.817814,76.4192021 163.828536,76.5911513 163.860702,76.7308601 C164.01081,77.3756696 164.536189,77.8592768 165.200953,77.8592768 C166.187378,77.8592768 166.777088,76.9887839 166.777088,75.6884179 C166.777088,74.4632797 166.25171,73.5283059 165.233119,73.5283059 C164.589799,73.5283059 164.021532,74.0334067 163.871424,74.7426972 C163.839258,74.8716591 163.828536,75.0221147 163.828536,75.1725703 L163.828536,76.2257592 L163.817814,76.2257592 Z M172.320365,76.4514426 C172.39542,77.4401506 173.328234,77.9130109 174.389713,77.9130109 C175.172419,77.9130109 175.805018,77.8055427 176.416172,77.601353 L176.716388,79.2241237 C175.965848,79.5357817 175.054477,79.6969841 174.057331,79.6969841 C171.569825,79.6969841 170.143798,78.1816816 170.143798,75.7743925 C170.143798,73.8184702 171.301775,71.6691049 173.853612,71.6691049 C176.223176,71.6691049 177.123825,73.6035336 177.123825,75.5057219 C177.123825,75.9141013 177.080936,76.2794934 177.04877,76.4514426 L172.320365,76.4514426 Z M175.000867,74.8071782 C175.000867,74.2268496 174.764983,73.2488884 173.714226,73.2488884 C172.749246,73.2488884 172.363254,74.1623686 172.298921,74.8071782 L175.000867,74.8071782 Z M185.733596,75.6024433 C185.733596,78.4181118 183.825079,79.7077309 181.862951,79.7077309 C179.71855,79.7077309 178.067361,78.2246689 178.067361,75.7421521 C178.067361,73.2596352 179.632774,71.6690519 181.980894,71.6690519 C184.232515,71.6583581 185.733596,73.2811289 185.733596,75.6024433 L185.733596,75.6024433 Z M180.415481,75.6776711 C180.415481,76.9995307 180.940859,77.9882387 181.916562,77.9882387 C182.806488,77.9882387 183.374754,77.0640117 183.374754,75.6776711 C183.374754,74.5277607 182.956596,73.3671035 181.916562,73.3671035 C180.822917,73.3671035 180.415481,74.5385075 180.415481,75.6776711 Z M187.148901,74.2913305 C187.148901,73.334863 187.116735,72.5073574 187.084569,71.8303073 L189.06814,71.8303073 L189.17536,72.8834963 L189.218248,72.8834963 C189.518464,72.3998891 190.269005,71.6583581 191.480592,71.6583581 C192.981672,71.6583581 194.107483,72.7008002 194.107483,74.9683806 L194.107483,79.5357817 L191.823696,79.5357817 L191.823696,75.2692917 C191.823696,74.2805837 191.491314,73.6035336 190.665719,73.6035336 C190.033121,73.6035336 189.65785,74.0549003 189.507742,74.4955202 C189.44341,74.635229 189.421966,74.8716591 189.421966,75.0973425 L189.421966,79.5357817 L187.138179,79.5357817 L187.138179,74.2913305 L187.148901,74.2913305 Z M200.111807,79.5357817 L199.972421,78.7620102 L199.929533,78.7620102 C199.447043,79.3745793 198.696502,79.7077309 197.82802,79.7077309 C196.348383,79.7077309 195.458456,78.5793142 195.458456,77.3434292 C195.458456,75.3445195 197.163255,74.388052 199.768703,74.3987988 L199.768703,74.2913305 C199.768703,73.8829511 199.554263,73.3026225 198.428452,73.3026225 C197.677911,73.3026225 196.884483,73.5712932 196.401993,73.8829511 L195.983834,72.3354081 C196.498491,72.034497 197.495637,71.6583581 198.835888,71.6583581 C201.280506,71.6583581 202.063212,73.1736606 202.063212,74.9791274 L202.063212,77.6550871 C202.063212,78.3966181 202.095378,79.1059087 202.170432,79.5250349 L200.111807,79.5250349 L200.111807,79.5357817 Z M199.843757,75.8926076 C198.642892,75.8818608 197.710077,76.1720251 197.710077,77.106999 C197.710077,77.7195681 198.09607,78.0204792 198.610726,78.0204792 C199.178992,78.0204792 199.650761,77.6228466 199.800869,77.1392395 C199.833035,77.0102775 199.843757,76.8705688 199.843757,76.7308601 L199.843757,75.8926076 Z M214.007528,68.3590825 L214.007528,77.2359609 C214.007528,78.1064538 214.039694,79.019934 214.07186,79.5357817 L212.0454,79.5357817 L211.93818,78.407365 L211.906014,78.407365 C211.444968,79.2778579 210.555042,79.7184778 209.611505,79.7184778 C207.87454,79.7184778 206.480623,78.160188 206.480623,75.7636457 C206.469957,73.1629138 208.013926,71.6691049 209.761613,71.6691049 C210.662262,71.6691049 211.369914,72.0022565 211.691574,72.5395978 L211.72374,72.5395978 L211.72374,68.3698293 L214.007528,68.3698293 L214.007528,68.3590825 Z M211.72374,75.0973425 C211.72374,74.9683806 211.713018,74.7964313 211.691574,74.6674694 C211.552188,74.0226599 211.058976,73.4853186 210.351323,73.4853186 C209.311289,73.4853186 208.775188,74.4632797 208.775188,75.6776711 C208.775188,76.9887839 209.386343,77.8055427 210.340601,77.8055427 C211.005366,77.8055427 211.530744,77.3326823 211.659408,76.6556323 C211.702296,76.4836831 211.72374,76.3117338 211.72374,76.1075441 L211.72374,75.0973425 Z M217.5994,76.4514426 C217.674454,77.4401506 218.607269,77.9130109 219.668747,77.9130109 C220.451454,77.9130109 221.084052,77.8055427 221.695207,77.601353 L221.995423,79.2241237 C221.244882,79.5357817 220.333512,79.6969841 219.336365,79.6969841 C216.84886,79.6969841 215.422833,78.1816816 215.422833,75.7743925 C215.422833,73.8184702 216.580809,71.6691049 219.132647,71.6691049 C221.50221,71.6691049 222.402859,73.6035336 222.402859,75.5057219 C222.402859,75.9141013 222.359971,76.2794934 222.327805,76.4514426 L217.5994,76.4514426 Z M220.279902,74.8071782 C220.279902,74.2268496 220.044018,73.2488884 218.993261,73.2488884 C218.02828,73.2488884 217.642288,74.1623686 217.577956,74.8071782 L220.279902,74.8071782 Z M226.798882,68.3590825 L229.082669,68.3590825 L229.082669,79.5357817 L226.798882,79.5357817 L226.798882,68.3590825 Z M238.174931,75.6024433 C238.174931,78.4181118 236.266414,79.7077309 234.304287,79.7077309 C232.159885,79.7077309 230.508696,78.2246689 230.508696,75.7421521 C230.508696,73.2596352 232.074109,71.6690519 234.422229,71.6690519 C236.67385,71.6583581 238.174931,73.2811289 238.174931,75.6024433 Z M232.856816,75.6776711 C232.856816,76.9995307 233.382194,77.9882387 234.357897,77.9882387 C235.247823,77.9882387 235.816089,77.0640117 235.816089,75.6776711 C235.816089,74.5277607 235.397931,73.3671035 234.357897,73.3671035 C233.264252,73.3671035 232.856816,74.5385075 232.856816,75.6776711 Z M239.568792,77.4401506 C239.98695,77.7088213 240.855433,78.0204792 241.530919,78.0204792 C242.217127,78.0204792 242.506622,77.7733022 242.506622,77.3756696 C242.506622,76.9780371 242.28146,76.795341 241.423699,76.4944299 C239.911896,75.9570886 239.322186,75.0973425 239.34363,74.1838623 C239.34363,72.7545344 240.512328,71.6691049 242.324348,71.6691049 C243.182108,71.6691049 243.943371,71.8732946 244.393695,72.1097248 L243.986259,73.764736 C243.653876,73.5712932 243.021278,73.3241162 242.399402,73.3241162 C241.841857,73.3241162 241.530919,73.5605463 241.530919,73.9581789 C241.530919,74.323571 241.820413,74.506267 242.721062,74.8394187 C244.114923,75.3445195 244.704633,76.0860505 244.715355,77.2144672 C244.715355,78.6437951 243.632432,79.6969841 241.530919,79.6969841 C240.565938,79.6969841 239.7189,79.4713007 239.161356,79.1596428 L239.568792,77.4401506 Z M249.132822,74.4202924 C249.132822,73.4100908 249.100656,72.5503447 249.06849,71.8410541 L251.052061,71.8410541 L251.159281,72.9157368 L251.191447,72.9157368 C251.727547,72.098978 252.574586,71.6691049 253.636065,71.6691049 C255.244366,71.6691049 256.681115,73.1306733 256.681115,75.5916965 C256.681115,78.3966181 254.987038,79.7184778 253.34657,79.7184778 C252.456644,79.7184778 251.770435,79.3423388 251.438053,78.837238 L251.405887,78.837238 L251.405887,82.6631081 L249.1221,82.6631081 L249.1221,74.4202924 L249.132822,74.4202924 Z M251.405887,76.2257592 C251.405887,76.4192021 251.416609,76.5911513 251.448775,76.7308601 C251.598883,77.3756696 252.124262,77.8592768 252.789026,77.8592768 C253.775451,77.8592768 254.365161,76.9887839 254.365161,75.6884179 C254.365161,74.4632797 253.839783,73.5283059 252.821192,73.5283059 C252.177872,73.5283059 251.609605,74.0334067 251.459497,74.7426972 C251.427331,74.8716591 251.416609,75.0221147 251.416609,75.1725703 L251.416609,76.2257592 L251.405887,76.2257592 Z M258.107141,74.3665583 C258.107141,73.2381415 258.074975,72.4966105 258.042809,71.8303073 L260.004937,71.8303073 L260.079991,73.2488884 L260.144323,73.2488884 C260.519593,72.1312184 261.420242,71.6583581 262.127894,71.6583581 C262.342334,71.6583581 262.438832,71.6583581 262.610384,71.6905986 L262.610384,73.9366853 C262.449554,73.9044448 262.256558,73.8722043 261.99923,73.8722043 C261.162913,73.8722043 260.583925,74.3450646 260.433817,75.0865957 C260.401651,75.247798 260.390929,75.4304941 260.390929,75.623937 L260.390929,79.5250349 L258.107141,79.5250349 L258.107141,74.3665583 Z M265.440994,76.4514426 C265.516048,77.4401506 266.448863,77.9130109 267.510341,77.9130109 C268.293048,77.9130109 268.925646,77.8055427 269.536801,77.601353 L269.837017,79.2241237 C269.086476,79.5357817 268.175106,79.6969841 267.177959,79.6969841 C264.690454,79.6969841 263.264427,78.1816816 263.264427,75.7743925 C263.264427,73.8184702 264.422403,71.6691049 266.974241,71.6691049 C269.343805,71.6691049 270.244453,73.6035336 270.244453,75.5057219 C270.244453,75.9141013 270.201565,76.2794934 270.169399,76.4514426 L265.440994,76.4514426 Z M268.132218,74.8071782 C268.132218,74.2268496 267.896334,73.2488884 266.845577,73.2488884 C265.880596,73.2488884 265.494604,74.1623686 265.430272,74.8071782 L268.132218,74.8071782 Z M277.117259,79.3423388 C276.709823,79.5357817 275.948561,79.6862373 275.080078,79.6862373 C272.710515,79.6862373 271.198712,78.1709348 271.198712,75.7528989 C271.198712,73.5068122 272.667627,71.6583581 275.401738,71.6583581 C276.002171,71.6583581 276.656213,71.7658264 277.138703,71.9592692 L276.774155,73.7432424 C276.506105,73.6142805 276.098669,73.5068122 275.498236,73.5068122 C274.297372,73.5068122 273.514665,74.3987988 273.536109,75.6669243 C273.536109,77.0855053 274.436758,77.8270363 275.551846,77.8270363 C276.087947,77.8270363 276.516827,77.7303149 276.859931,77.5906062 L277.117259,79.3423388 Z M280.741298,69.6916889 C280.741298,70.3579921 280.258807,70.8845866 279.508267,70.8845866 C278.789893,70.8845866 278.307402,70.3472453 278.318124,69.6916889 C278.307402,69.003892 278.77917,68.4772975 279.518989,68.4772975 C280.258807,68.4772975 280.719854,69.003892 280.741298,69.6916889 Z M278.382456,79.5357817 L278.382456,71.8410541 L280.666244,71.8410541 L280.666244,79.5357817 L278.382456,79.5357817 Z M289.737061,75.6024433 C289.737061,78.4181118 287.828544,79.7077309 285.866417,79.7077309 C283.722016,79.7077309 282.070827,78.2246689 282.070827,75.7421521 C282.070827,73.2596352 283.63624,71.6690519 285.984359,71.6690519 C288.23598,71.6583581 289.737061,73.2811289 289.737061,75.6024433 Z M284.429668,75.6776711 C284.429668,76.9995307 284.955046,77.9882387 285.930749,77.9882387 C286.820676,77.9882387 287.388942,77.0640117 287.388942,75.6776711 C287.388942,74.5277607 286.970784,73.3671035 285.930749,73.3671035 C284.837104,73.3671035 284.429668,74.5385075 284.429668,75.6776711 Z M291.141644,77.4401506 C291.559803,77.7088213 292.428285,78.0204792 293.103772,78.0204792 C293.78998,78.0204792 294.079474,77.7733022 294.079474,77.3756696 C294.079474,76.9780371 293.854312,76.795341 292.996551,76.4944299 C291.484748,75.9570886 290.895038,75.0973425 290.916482,74.1838623 C290.916482,72.7545344 292.085181,71.6691049 293.8972,71.6691049 C294.754961,71.6691049 295.516223,71.8732946 295.966547,72.1097248 L295.559111,73.764736 C295.226729,73.5712932 294.59413,73.3241162 293.972254,73.3241162 C293.41471,73.3241162 293.103772,73.5605463 293.103772,73.9581789 C293.103772,74.323571 293.393266,74.506267 294.293914,74.8394187 C295.687775,75.3445195 296.277486,76.0860505 296.288208,77.2144672 C296.288208,78.6437951 295.205285,79.6969841 293.103772,79.6969841 C292.138791,79.6969841 291.291752,79.4713007 290.734208,79.1596428 L291.141644,77.4401506 Z M300.641342,79.5357817 C300.673508,79.0306809 300.705674,78.1064538 300.705674,77.2359609 L300.705674,68.3590825 L302.989462,68.3590825 L302.989462,72.7545344 L303.021628,72.7545344 C303.46123,72.0882311 304.222493,71.6691049 305.241083,71.6691049 C306.999492,71.6691049 308.286133,73.1951542 308.275478,75.559456 C308.275478,78.3321372 306.592056,79.7184778 304.919423,79.7184778 C304.061662,79.7184778 303.236068,79.3853261 302.71069,78.4718459 L302.678524,78.4718459 L302.592747,79.5465285 L300.641342,79.5465285 L300.641342,79.5357817 Z M302.97874,76.2579997 C302.97874,76.4192021 302.989462,76.5589108 303.021628,76.6878728 C303.171736,77.3326823 303.697114,77.8162895 304.361879,77.8162895 C305.337581,77.8162895 305.938014,77.0317712 305.938014,75.6454306 C305.938014,74.4525329 305.423357,73.5068122 304.361879,73.5068122 C303.750724,73.5068122 303.171736,73.9904194 303.021628,74.6889631 C302.989462,74.8286718 302.97874,74.9683806 302.97874,75.129583 L302.97874,76.2579997 Z M313.840133,79.5357817 L313.700746,78.7620102 L313.657858,78.7620102 C313.175368,79.3745793 312.424828,79.7077309 311.556345,79.7077309 C310.076708,79.7077309 309.186782,78.5793142 309.186782,77.3434292 C309.186782,75.3445195 310.891581,74.388052 313.497028,74.3987988 L313.497028,74.2913305 C313.497028,73.8829511 313.282588,73.3026225 312.156778,73.3026225 C311.406237,73.3026225 310.612809,73.5712932 310.130318,73.8829511 L309.71216,72.3354081 C310.226816,72.034497 311.223963,71.6583581 312.564214,71.6583581 C315.008831,71.6583581 315.791538,73.1736606 315.791538,74.9791274 L315.791538,77.6550871 C315.791538,78.3966181 315.823704,79.1059087 315.898758,79.5250349 L313.840133,79.5250349 L313.840133,79.5357817 Z M313.572082,75.8926076 C312.371218,75.8818608 311.438403,76.1720251 311.438403,77.106999 C311.438403,77.7195681 311.824395,78.0204792 312.339052,78.0204792 C312.907318,78.0204792 313.379086,77.6228466 313.529194,77.1392395 C313.56136,77.0102775 313.572082,76.8705688 313.572082,76.7308601 L313.572082,75.8926076 Z M316.081032,80.9543628 C316.681464,80.9113755 317.142511,80.7609199 317.432005,80.4492619 C317.764387,80.0838698 317.882329,79.4713007 317.882329,77.9452514 L317.882329,71.8410541 L320.176839,71.8410541 L320.176839,78.5148332 C320.176839,80.2020849 319.823012,81.2230334 319.147526,81.8785898 C318.472039,82.5341462 317.410561,82.8243105 316.316916,82.8243105 L316.081032,80.9543628 Z M320.241171,69.6916889 C320.241171,70.3579921 319.780124,70.8845866 319.00814,70.8845866 C318.289765,70.8845866 317.817997,70.3472453 317.817997,69.6916889 C317.817997,69.003892 318.279043,68.4772975 319.029584,68.4772975 C319.769402,68.4772975 320.219727,69.003892 320.241171,69.6916889 Z M329.21549,75.6024433 C329.21549,78.4181118 327.306973,79.7077309 325.344846,79.7077309 C323.200444,79.7077309 321.549255,78.2246689 321.549255,75.7421521 C321.549255,73.2596352 323.114668,71.6690519 325.462788,71.6690519 C327.714409,71.6583581 329.21549,73.2811289 329.21549,75.6024433 Z M323.897375,75.6776711 C323.897375,76.9995307 324.422753,77.9882387 325.398456,77.9882387 C326.288382,77.9882387 326.856649,77.0640117 326.856649,75.6776711 C326.856649,74.5277607 326.43849,73.3671035 325.398456,73.3671035 C324.304811,73.3671035 323.897375,74.5385075 323.897375,75.6776711 Z M330.609351,77.4401506 C331.027509,77.7088213 331.895992,78.0204792 332.571478,78.0204792 C333.257687,78.0204792 333.547181,77.7733022 333.547181,77.3756696 C333.547181,76.9780371 333.322019,76.795341 332.464258,76.4944299 C330.952455,75.9570886 330.362745,75.0973425 330.384189,74.1838623 C330.384189,72.7545344 331.552888,71.6691049 333.364907,71.6691049 C334.222667,71.6691049 334.98393,71.8732946 335.434254,72.1097248 L335.026818,73.764736 C334.694436,73.5712932 334.061837,73.3241162 333.439961,73.3241162 C332.882417,73.3241162 332.571478,73.5605463 332.571478,73.9581789 C332.571478,74.323571 332.860973,74.506267 333.761621,74.8394187 C335.155482,75.3445195 335.745192,76.0860505 335.755914,77.2144672 C335.755914,78.6437951 334.672992,79.6969841 332.571478,79.6969841 C331.606498,79.6969841 330.759459,79.4713007 330.201915,79.1596428 L330.609351,77.4401506 Z M199.918811,45.6402918 L197.849464,53.0233615 L190.161785,53.0233615 L200.176139,20.5357058 L209.900999,20.5357058 L220.065462,53.0233615 L212.088289,53.0233615 L209.847389,45.6187982 L199.918811,45.6402918 Z M208.496416,39.6543096 L206.448513,32.2927337 C205.869525,30.3690518 205.279814,27.9510159 204.797324,26.027334 L204.700826,26.027334 C204.218336,27.9510159 203.725123,30.4120391 203.189023,32.2927337 L201.269784,39.6543096 L208.496416,39.6543096 Z M242.624564,45.0277228 C242.624564,48.2625174 242.721062,50.884743 242.806838,52.9588805 L236.663128,52.9588805 L236.341468,49.4769088 L236.202082,49.4769088 C235.312155,50.9922113 233.178476,53.5177155 229.071947,53.5177155 C224.461484,53.5177155 221.062608,50.390389 221.062608,42.7601424 L221.062608,28.2626739 L228.192743,28.2626739 L228.289241,40.6430177 C228.289241,44.2324576 229.361441,46.4033165 231.827503,46.4033165 C233.778908,46.4033165 234.904719,44.9417481 235.365765,43.7273568 C235.548039,43.2759901 235.601649,42.663421 235.601649,42.0615987 L235.505151,28.2626739 L242.635286,28.2626739 L242.635286,45.0277228 L242.624564,45.0277228 Z M246.055606,36.849388 C246.055606,33.1954671 245.959108,30.7989249 245.86261,28.6710533 L252.22076,28.6710533 L252.467366,33.2492012 L252.660362,33.2492012 C253.871949,29.6382676 256.777613,28.1122183 259.0614,28.1122183 C259.736887,28.1122183 260.079991,28.1122183 260.616091,28.2089397 L260.616091,35.4737943 C260.079991,35.3770728 259.447392,35.2696046 258.621798,35.2696046 C255.90913,35.2696046 254.064945,36.7956539 253.582455,39.1814493 C253.485957,39.6865501 253.432347,40.2991192 253.432347,40.9116883 L253.432347,53.5177155 L246.055606,53.5177155 L246.055606,36.849388 Z M262.117172,36.666692 C262.117172,33.0127711 262.020674,30.6162288 261.924176,28.4883572 L268.282326,28.4883572 L268.528932,33.0665052 L268.721928,33.0665052 C269.933515,29.4555716 272.839179,27.9295223 275.122966,27.9295223 C275.798453,27.9295223 276.141557,27.9295223 276.677657,28.0262437 L276.677657,35.2910982 C276.141557,35.1943768 275.508958,35.0869085 274.683364,35.0869085 C271.970696,35.0869085 270.126511,36.6129578 269.644021,38.9987532 C269.547523,39.5038541 269.493913,40.1164232 269.493913,40.7289923 L269.493913,53.3350194 L262.117172,53.3350194 L262.117172,36.666692 Z M300.083798,36.666692 C300.083798,33.0127711 299.9873,30.6162288 299.890802,28.4883572 L306.248952,28.4883572 L306.495558,33.0665052 L306.688554,33.0665052 C307.900141,29.4555716 310.805805,27.9295223 313.089592,27.9295223 C313.765079,27.9295223 314.108183,27.9295223 314.644283,28.0262437 L314.644283,35.2910982 C314.108183,35.1943768 313.475584,35.0869085 312.64999,35.0869085 C309.937322,35.0869085 308.093137,36.6129578 307.610647,38.9987532 C307.514149,39.5038541 307.460539,40.1164232 307.460539,40.7289923 L307.460539,53.3350194 L300.083798,53.3350194 L300.083798,36.666692 Z M283.196637,43.2974837 C283.421799,46.5000379 286.220243,48.0260873 289.415401,48.0260873 C291.763521,48.0260873 293.650594,47.671442 295.494779,47.0051388 L296.395428,52.2388431 C294.143806,53.2597916 291.398972,53.7648925 288.418255,53.7648925 C280.934294,53.7648925 276.656213,48.8858334 276.656213,41.1051312 C276.656213,34.807491 280.130143,27.8435476 287.785656,27.8435476 C294.905069,27.8435476 297.607014,34.0982005 297.607014,40.2453851 C297.607014,41.5672447 297.467628,42.7386488 297.381852,43.2974837 L283.196637,43.2974837 Z M291.259586,38.0100452 C291.259586,36.1293507 290.541212,32.9805306 287.388942,32.9805306 C284.504722,32.9805306 283.336023,35.925161 283.153749,38.0100452 L291.259586,38.0100452 Z M329.462096,53.0126146 L329.043938,50.5730851 L328.904552,50.5730851 C327.435637,52.5182606 325.141128,53.5607028 322.471348,53.5607028 C317.925217,53.5607028 315.212549,49.9712628 315.212549,46.0916585 C315.212549,39.7617779 320.444889,36.7204261 328.400618,36.7741602 L328.400618,36.4302618 C328.400618,35.1298958 327.757297,33.2921885 324.315533,33.2921885 C322.021024,33.2921885 319.587128,34.1411878 318.118213,35.1298958 L316.831572,30.2508367 C318.396985,29.305116 321.474201,28.1122183 325.559286,28.1122183 C333.043247,28.1122183 335.434254,32.894556 335.434254,38.6226143 L335.434254,47.0911134 C335.434254,49.4339215 335.530752,51.6692613 335.755914,53.0233615 L329.462096,53.0233615 L329.462096,53.0126146 Z M328.636502,41.5027638 C324.958854,41.4490296 322.117522,42.3947503 322.117522,45.3393807 C322.117522,47.2845563 323.307665,48.230277 324.873078,48.230277 C326.620765,48.230277 328.046792,46.9836451 328.497116,45.4361021 C328.593614,45.0384696 328.636502,44.5871029 328.636502,44.1357362 L328.636502,41.5027638 Z" id="Shape" fill="#FFFFFF" fill-rule="nonzero"></path>
                    <path d="M139.38286,93.7321687 C139.38286,93.7321687 47.4685122,95.489624 0.820772172,15.3564232 L0.820772172,87.0065226 C11.8007731,94.9826658 42.0475683,100.288829 86.8307798,100.356423 C122.843802,100.356423 421.102374,100.356423 424.140865,100.356423 L424.140865,93.7997632 L139.38286,93.7321687 Z" id="Path" fill="#FFD100"></path>
                    <path d="M88.731081,106.666768 C58.9907136,106.977113 19.6849982,102.94263 0.899800821,92.3564232 C0.768086406,101.689757 0.80101501,107.02309 0.998586632,108.356423 C1.11698511,109.155448 1.4185657,110.236976 1.91823176,111.190999 C2.49801843,112.297999 3.28907292,113.233325 3.4945828,113.356423 C3.51948111,113.371337 262.797658,115.879624 421.4471,113.356423 C423.309456,111.356423 424.208524,109.02309 424.144305,106.356423 C413.391748,106.356423 123.931862,106.218492 88.6967387,106.597803" id="Path" fill="#D02326"></path>
                    <g id="Group" transform="translate(349.191686, 0.000000)">
                        <path d="M32.9237875,32.8825706 L59.1288878,64.1808256 C59.1288878,64.1808256 62.6917159,67.1696074 62.6917159,61.7293528 L62.6917159,51.88988 C62.6917159,48.1622981 63.0579879,44.4347162 62.6917159,40.7071344 C62.0246477,36.5463441 60.355356,32.6142232 57.8302869,29.2557342 C55.6132735,25.4050967 52.659098,22.037571 49.1396501,19.3490978 C49.1396501,19.3490978 45.9763915,17.4013523 41.4812345,22.7072796 C36.9860775,28.013207 33.0569774,32.7818252 33.0569774,32.7818252" id="Path" fill="#F0D733" fill-rule="nonzero"></path>
                        <path d="M4.48671035,64.1504956 L6.88192146,61.2889725 C8.93977889,58.7681069 10.9976363,56.3153729 13.0892291,53.8285731 C15.8217939,50.421998 18.5206233,47.287949 21.3206588,44.0176369 C24.1206944,40.7473248 27.1231421,37.2044867 30.0243837,33.6275829 C32.9256253,30.0506791 36.2654267,26.3034465 39.4365513,22.6584112 C41.5618795,20.2738086 44.3956504,16.1177871 48.1402762,17.9914033 C49.8270446,18.8089814 53.3355228,22.8628057 53.8752887,22.9309372 C53.8752887,22.9309372 50.1643982,18.5023896 49.3884848,17.5826143 C47.9041286,15.8452611 40.2124648,6.78377136 37.8847244,3.95631405 C37.4124292,3.34313054 36.9738695,2.83214428 36.4678389,2.25302652 C35.3411475,0.829088581 33.6341898,0 31.8292259,0 C30.024262,0 28.3173042,0.829088581 27.1906128,2.25302652 C22.0628369,7.39695488 9.95183992,22.6924769 9.95183992,22.6924769 C9.95183992,22.6924769 0.978232112,34.7858184 0.404730861,38.805577 C0,42.3329529 -0.101285415,45.8890392 0.101112552,49.4340912 C0.101112552,53.2494553 0.168583287,57.0307537 0.303524758,60.7779862 C0.303524758,63.3669833 1.95655778,66.8076241 4.48671035,63.8779695" id="Path" fill="#D02326"></path>
                    </g>
                    <path d="M407.354444,3.52923261 L407.870326,3.52923261 C408.433515,3.52923261 408.924617,3.36701768 408.924617,2.90717362 C408.924617,2.5376057 408.681319,2.28299879 407.943916,2.28299879 C407.650306,2.28299879 407.479096,2.30627311 407.354444,2.32954742 L407.354444,3.52923261 Z M407.354444,5.6965651 L406.594513,5.6965651 L406.594513,1.84642905 C407.010523,1.77731138 407.452063,1.73076275 408.018257,1.73076275 C408.706099,1.73076275 409.049269,1.84642905 409.318099,2.02909716 C409.565902,2.19060681 409.734108,2.49105707 409.734108,2.83805596 C409.734108,3.32258489 409.369161,3.62162459 408.924617,3.75985992 L408.924617,3.80640855 C409.29482,3.9439386 409.49081,4.24438885 409.613961,4.72962307 C409.734108,5.32699718 409.810702,5.55832977 409.909072,5.6965651 L409.122859,5.6965651 C408.999709,5.55832977 408.90284,5.21274144 408.802968,4.68236916 C408.706099,4.26766317 408.433515,4.08287921 407.845545,4.08287921 L407.354444,4.08287921 L407.354444,5.6965651 Z M408.043037,0.644628018 C406.274621,0.644628018 404.923717,2.00582285 404.923717,3.66605737 C404.923717,5.37566166 406.274621,6.71005576 408.091847,6.71005576 C409.861764,6.7361512 411.161606,5.37566166 411.161606,3.69074225 C411.161606,2.00582285 409.861764,0.644628018 408.068568,0.644628018 L408.043037,0.644628018 Z M408.091847,0 C410.301803,0 412.046189,1.61439117 412.046189,3.66605737 C412.046189,5.76638805 410.301803,7.38077922 408.068568,7.38077922 C405.833081,7.38077922 404.064665,5.76638805 404.064665,3.66605737 C404.064665,1.61439117 405.833081,0 408.068568,0 L408.091847,0 L408.091847,0 Z" id="Fill-14" fill="url(#linearGradient-1)"></path>
                </g>
            </g>
        </g>
    </g>
</svg>