<?xml version="1.0" encoding="utf-8"?>
<!-- Generator: Adobe Illustrator 24.0.3, SVG Export Plug-In . SVG Version: 6.00 Build 0)  -->
<svg version="1.1" id="Capa_1" xmlns="http://www.w3.org/2000/svg" xmlns:xlink="http://www.w3.org/1999/xlink" x="0px" y="0px"
	 viewBox="0 0 141 47" style="enable-background:new 0 0 141 47;" xml:space="preserve">
<style type="text/css">
	.st0{fill:none;}
	.st1{fill:#013171;}
	.st2{fill:#0074C5;}
	.st3{fill:#93BA1F;}
	.st4{fill:#004C94;}
	.st5{fill:#FFFFFF;}
</style>
<title>Group 14</title>
<desc>Created with Sketch.</desc>
<g id="Inicio-BA-SP-SAMS">
	<g id="Group-14" transform="translate(-47.000000, 0.000000)">
		<rect id="Rectangle" x="47" class="st0" width="141" height="47"/>
		<g id="Elementos_x2F_logo_x2F_normal_x2F_Sams" transform="translate(47.000000, 0.000000)">
			<g id="Sams">
				<polygon id="Rectangle_1_" class="st1" points="47.7,23.3 70.3,0 93,23.3 70.3,46.6 				"/>
				<polygon id="Path" class="st2" points="70.4,7.1 68.9,5.6 62.4,12.3 68.9,19 70.4,17.4 65.3,12.3 				"/>
				<polygon id="Path_1_" class="st3" points="78.3,12.3 71.8,5.6 70.4,7.1 75.4,12.3 70.4,17.4 71.8,19 				"/>
				<polygon id="Rectangle_2_" class="st4" points="65.3,12.3 70.3,7.2 75.3,12.3 70.3,17.4 				"/>
				<path id="Path_2_" class="st5" d="M71.2,21.9v1.1c0.7-0.6,1.6-0.9,2.5-1c0.7,0,1.4,0.4,1.6,1.1c0.7-0.6,1.6-1,2.6-1.1
					c1.4,0,1.8,1,1.8,3v0.8c0,0.7,0,1.6,0,2.7l0.8,0.1V29h-3v-0.3l0.9-0.1c0.1-0.9,0.1-1.8,0.1-2.8c0-2.1-0.1-3-1.3-3
					c-0.6,0.1-1.2,0.3-1.7,0.7c0.1,0.6,0.1,1.3,0.1,1.9v3.2l0.9,0.1V29h-3v-0.3l0.9-0.1c0.1-0.8,0.1-1.7,0.1-2.8c0-2.1-0.1-3-1.4-3
					c-0.6,0.1-1.2,0.3-1.7,0.7V27c0,0.6,0,1.1,0,1.6l0.9,0.1V29h-3.2v-0.3l0.9-0.1c0-0.4,0.1-1,0.1-1.6v-3c0-0.6,0-1.1-0.1-1.6
					l-1-0.1l0.1-0.3L71.2,21.9z"/>
				<polygon id="Path_3_" class="st5" points="81.4,20.5 80.5,22.4 80.2,22.4 80.4,20.5 				"/>
				<path id="Path_4_" class="st5" d="M55.8,25.8c0.2,2,1.1,3,2.5,3c0.6,0,1.2-0.2,1.6-0.6c0.4-0.4,0.7-1,0.7-1.6
					c0-0.5-0.1-0.9-0.4-1.3c-0.6-0.7-1.5-0.9-2.6-1.4c-1.2-0.4-2.1-1.6-2.1-3c0-0.8,0.3-1.6,0.9-2.2c0.6-0.6,1.4-0.9,2.2-0.8
					c0.8,0.1,1.5,0.3,2.2,0.6c0.2,0,0.3-0.1,0.4-0.2h0.4c-0.1,0.5-0.1,0.9-0.1,1.4v1.3h-0.4c-0.1-1.7-1-2.7-2.3-2.7
					c-0.5,0-1.1,0.2-1.5,0.5c-0.4,0.4-0.6,0.9-0.6,1.5c0,1.2,0.8,1.6,2.2,2.2c2,0.9,3,1.5,3,3.5c0,0.9-0.3,1.8-1,2.4
					c-0.7,0.6-1.5,0.9-2.4,0.9c-0.8-0.1-1.6-0.2-2.4-0.5c-0.2,0-0.3,0.1-0.4,0.2h-0.3c0-0.5,0.1-1,0.1-1.5v-1.7H55.8z"/>
				<path id="Path_5_" class="st5" d="M55.4,20.9c0,1.4,0.9,2.6,2.1,3c0.3,0.1,0.5,0.2,0.8,0.4c0.6,0.2,1.2,0.6,1.7,1.1
					c0.3,0.4,0.4,0.8,0.4,1.3c0,0.6-0.2,1.2-0.6,1.6s-1,0.6-1.6,0.6c-1.4,0-2.3-1.1-2.4-3l0,0h-0.5v1.7c0,0.5,0,1-0.1,1.5l0,0h0.4
					l0,0c0.1-0.1,0.2-0.2,0.4-0.2c0.2,0,0.4,0.1,0.6,0.2c0.6,0.2,1.2,0.3,1.8,0.4c0.9,0.1,1.8-0.2,2.4-0.9c0.7-0.6,1-1.5,1-2.5
					c0-2.1-1.1-2.7-3-3.5c-1.4-0.6-2.2-1-2.2-2.2c0-0.6,0.2-1.1,0.6-1.5s0.9-0.6,1.5-0.5c1.3,0,2.1,0.9,2.3,2.6l0,0h0.4v-1.2
					c0-0.5,0-0.9,0.1-1.4l0,0h-0.4l0,0c-0.1,0.1-0.2,0.2-0.4,0.2c-0.2,0-0.3-0.1-0.5-0.2c-0.5-0.3-1.1-0.4-1.7-0.4
					c-0.8,0-1.6,0.3-2.2,0.8S55.4,20.1,55.4,20.9L55.4,20.9z"/>
				<path id="Path_6_" class="st5" d="M81.1,23.9c0,0.9,0.5,1.7,1.4,2l0.5,0.2c0.4,0.1,0.8,0.4,1.1,0.7c0.2,0.2,0.3,0.5,0.3,0.8
					c0,0.4-0.1,0.7-0.4,1c-0.3,0.3-0.6,0.4-1,0.4c-0.9,0-1.4-0.6-1.5-1.8V27h-0.4v1.1c0,0.3,0,0.6,0,0.9v0.1h0.3l0,0
					c0-0.1,0.1-0.1,0.2-0.1c0.1,0,0.2,0,0.4,0.1c0.4,0.1,0.8,0.2,1.2,0.2c0.6,0.1,1.2-0.2,1.6-0.6c0.4-0.4,0.7-1,0.6-1.6
					c0-1.3-0.7-1.8-1.9-2.3c-0.9-0.4-1.3-0.6-1.3-1.3c0-0.3,0.1-0.7,0.4-0.9c0.2-0.2,0.6-0.4,0.9-0.3c0.8,0,1.3,0.6,1.4,1.6v0.1H85
					V23c0-0.3,0-0.6,0.1-0.9v0h-0.4l0,0c0,0.1-0.1,0.1-0.2,0.1c-0.1,0-0.2-0.1-0.3-0.1c-0.4-0.2-0.7-0.3-1.1-0.3
					c-0.5,0-1,0.2-1.4,0.6C81.3,22.8,81.1,23.3,81.1,23.9z"/>
				<path id="Shape" class="st5" d="M66.4,27.6c0-0.7,0-1.4,0.1-2.2c-1.9,0.3-2.8,0.8-2.8,1.9c0,0.3,0.1,0.7,0.3,0.9
					c0.2,0.2,0.5,0.4,0.9,0.3c0.5,0,1.1-0.2,1.5-0.5V27.6z M63,23.8c0-1.1,1.1-1.9,2.5-1.9s2.1,0.8,2.1,2.5v0.3V27
					c0,0.5,0,1.1,0,1.6l0.9,0.1V29h-2.1v-0.7c-0.6,0.5-1.4,0.8-2.2,0.8c-0.4,0-0.8-0.1-1.2-0.4c-0.3-0.3-0.5-0.7-0.5-1.2
					c0-1.3,1.3-2.1,3.9-2.4v-1.3v-0.2c0-1-0.4-1.4-1.3-1.4c-0.7,0-1.2,0.3-1.2,0.8c0,0.2,0.1,0.6,0.1,0.8c0,0.3-0.2,0.6-0.5,0.6
					c-0.1,0-0.3-0.1-0.4-0.2C63.1,24,63,23.9,63,23.8L63,23.8z"/>
				<path id="Path_7_" class="st5" d="M65.1,33.5c-0.2,0.1-0.5,0.1-0.7,0.1c-1,0-1.8-0.5-1.8-1.6c0-0.5,0.1-1,0.5-1.3
					c0.3-0.3,0.8-0.5,1.3-0.5c0.2,0,0.5,0,0.7,0.1l0,0.6c-0.2-0.1-0.5-0.2-0.7-0.2c-0.3,0-0.6,0.1-0.8,0.3c-0.2,0.2-0.3,0.5-0.3,0.8
					c0,0.3,0.1,0.6,0.3,0.8c0.2,0.2,0.5,0.3,0.8,0.3c0.2,0,0.5,0,0.7-0.1L65.1,33.5z"/>
				<polygon id="Path_8_" class="st5" points="67.1,30.2 67.8,30.2 67.8,33 69,33 69,33.5 67.1,33.5 				"/>
				<path id="Path_9_" class="st5" d="M71,30.2h0.6v1.9c0,0.6,0.2,0.9,0.7,0.9s0.7-0.4,0.7-0.9v-1.9h0.6v2.1c0,0.9-0.5,1.2-1.3,1.2
					S71,33.2,71,32.3V30.2z"/>
				<path id="Shape_1_" class="st5" d="M75.9,30.2H77c0.4,0,1,0.1,1,0.9c0,0.4-0.3,0.7-0.6,0.7l0,0c0.4,0,0.7,0.3,0.7,0.8
					c0,0.8-0.7,1-1.1,1h-1.1V30.2z M76.5,31.6h0.3c0.3,0,0.6-0.1,0.6-0.4s-0.3-0.4-0.6-0.4h-0.2V31.6z M76.5,33h0.3
					c0.3,0,0.7-0.1,0.7-0.5c0-0.4-0.3-0.5-0.7-0.5h-0.3V33z"/>
				<path id="Shape_2_" class="st5" d="M79.7,30.2c0.3,0,0.6,0.3,0.6,0.6s-0.3,0.6-0.6,0.6c-0.3,0-0.6-0.3-0.6-0.6
					c0-0.2,0.1-0.3,0.2-0.4C79.3,30.2,79.5,30.1,79.7,30.2L79.7,30.2z M79.7,30.3c-0.3,0-0.5,0.2-0.5,0.5c0,0.3,0.2,0.5,0.5,0.5
					s0.5-0.2,0.5-0.5C80.1,30.5,79.9,30.3,79.7,30.3z M79.6,31.1h-0.1v-0.6h0.2c0.1,0,0.1,0,0.2,0c0,0,0.1,0.1,0.1,0.1
					c0,0.1-0.1,0.1-0.1,0.2l0,0c0.1,0,0.1,0.1,0.1,0.2c0,0.1,0,0.1,0,0.2h-0.2c0,0,0-0.1,0-0.2c0-0.1-0.1-0.1-0.1-0.1h-0.1V31.1z
					 M79.6,30.7L79.6,30.7c0.2,0,0.2,0,0.2-0.1c0-0.1,0-0.1-0.1-0.1h-0.1L79.6,30.7z"/>
				<path id="Path_10_" class="st5" d="M75.1,16.7c-0.1,0-0.1,0-0.2,0c0,0-0.1,0-0.1,0s0,0.1,0,0.1c0,0.1,0.3,0.1,0.3,0.3
					c0,0.3-0.1,0.2-0.3,0.2c-0.1,0-0.1,0-0.2,0v-0.1c0.1,0,0.1,0.1,0.2,0.1c0.1,0,0.1,0,0.1-0.1c0-0.1-0.3-0.1-0.3-0.4
					c0-0.1,0-0.1,0.1-0.2c0.1,0,0.1-0.1,0.2-0.1C75,16.6,75.1,16.6,75.1,16.7L75.1,16.7z"/>
				<polygon id="Path_11_" class="st5" points="75.4,16.5 75.6,16.5 75.8,17.1 75.8,17.1 76,16.5 76.2,16.5 76.2,17.3 76.1,17.3 
					76.1,16.7 76.1,16.7 75.9,17.3 75.7,17.3 75.5,16.7 75.5,16.7 75.5,17.3 75.4,17.3 				"/>
			</g>
		</g>
	</g>
</g>
</svg>
