<?xml version="1.0" encoding="UTF-8"?>
<svg width="430px" height="89px" viewBox="0 0 430 89" version="1.1" xmlns="http://www.w3.org/2000/svg" xmlns:xlink="http://www.w3.org/1999/xlink">
    <!-- Generator: Sketch 63.1 (92452) - https://sketch.com -->
    <title>Elementos/logo/normal/Superama@2x</title>
    <desc>Created with Sketch.</desc>
    <g id="Resultado-Catálogo" stroke="none" stroke-width="1" fill="none" fill-rule="evenodd">
        <g id="Elementos/logo/normal/Superama" transform="translate(-2.000000, -27.000000)">
            <g id="Superama" transform="translate(0.000000, 25.000000)">
                <path d="M392.481936,17.880912 C394.686432,9.716112 390.032496,1.551312 379.989792,2.85768 C370.40976,4.136832 364.068432,8.817984 364.531104,14.996016 C364.566517,15.5302446 364.657733,16.0593013 364.803264,16.574544 C367.861906,15.3304354 371.135819,14.7015482 374.437728,14.723856 C379.432455,14.7334134 384.259091,16.528922 388.045728,19.786032 C389.298606,18.7183147 390.844962,18.0542353 392.481936,17.880912 L392.481936,17.880912 Z" id="Path" fill="#DB812D" fill-rule="nonzero"></path>
                <path d="M407.260224,2.85768 C397.21752,1.524096 392.563584,9.634464 394.76808,17.880912 C396.438554,18.0183539 398.021442,18.6858367 399.285936,19.786032 C403.078724,16.5393569 407.901373,14.7453315 412.893936,14.723856 C416.195845,14.7015482 419.469758,15.3304354 422.5284,16.574544 C422.673931,16.0593013 422.765147,15.5302446 422.80056,14.996016 C423.181584,8.817984 416.840256,4.136832 407.260224,2.85768 Z" id="Path" fill="#DB812D" fill-rule="nonzero"></path>
                <path d="M414.390816,16.73784 C409.280551,16.595388 404.294864,18.3282773 400.374576,21.609504 C400.401162,21.8355249 400.401162,22.0638831 400.374576,22.289904 C400.353712,23.1495031 400.00288,23.968113 399.3948,24.576048 C406.634256,26.345088 411.859728,31.325616 411.859728,37.177056 C411.850835,38.3678697 411.629644,39.5475542 411.206544,40.660704 C412.235319,40.7936164 413.271861,40.8572637 414.309168,40.851216 C423.970848,40.851216 431.809056,35.408016 431.809056,28.794528 C431.809056,22.18104 424.052496,16.73784 414.390816,16.73784 Z" id="Path" fill="#DB812D" fill-rule="nonzero"></path>
                <path d="M397.571328,25.909632 C396.339444,26.4968733 394.989628,26.7947637 393.625008,26.780544 C392.255153,26.7891394 390.899647,26.5013265 389.651472,25.936848 C382.602528,27.216 377.377056,31.84272 377.377056,37.367568 C377.377056,43.899408 384.643728,49.179312 393.706656,49.179312 C402.769584,49.179312 410.036256,43.899408 410.036256,37.367568 C409.87296,31.84272 404.647488,27.216 397.571328,25.909632 Z" id="Path" fill="#DB812D" fill-rule="nonzero"></path>
                <path d="M386.87544,21.609504 C382.961524,18.3170537 377.971428,16.5826322 372.8592,16.73784 C363.19752,16.73784 355.359312,22.18104 355.359312,28.794528 C355.359312,35.408016 363.19752,40.824 372.8592,40.824 C373.896507,40.8300477 374.933049,40.7664004 375.961824,40.633488 C375.538724,39.5203382 375.317533,38.3406537 375.30864,37.14984 C375.30864,31.2984 380.534112,26.26344 387.773568,24.548832 C387.160687,23.9441596 386.808982,23.1235138 386.793792,22.262688 C386.796233,22.0425739 386.823624,21.8234463 386.87544,21.609504 L386.87544,21.609504 Z" id="Path" fill="#DB812D" fill-rule="nonzero"></path>
                <path d="M35.3808,43.763328 C30.400272,41.967072 22.779792,41.77656 22.779792,37.911888 C22.779792,34.56432 26.181792,33.775056 28.821744,33.775056 C30.4276737,33.6707956 32.0260989,34.0704019 33.394032,34.918128 C34.6862154,35.9140497 35.3583785,37.5169002 35.163072,39.136608 L49.614768,39.136608 C49.914144,26.590032 40.1436,22.534848 29.338848,22.534848 C19.0512,22.534848 8.1648,27.814752 8.1648,39.272688 C8.1648,47.736864 14.125104,51.03 20.330352,53.098416 C27.379296,55.438992 32.577552,55.820016 32.577552,59.630256 C32.577552,63.440496 28.794528,64.556352 25.746336,64.556352 C23.7329784,64.8108874 21.6936873,64.3587804 19.976544,63.2772 C18.5533726,61.7090995 17.8524963,59.6163419 18.044208,57.507408 L2.7216,57.507408 C2.095632,70.462224 12.628224,75.79656 24.303888,75.79656 C35.326368,75.79656 47.21976,70.026768 47.21976,57.779568 C47.246976,51.7104 44.253216,46.893168 35.3808,43.763328 Z" id="Path" fill="#1779BF" fill-rule="nonzero"></path>
                <path d="M78.164352,37.639728 L74.952864,52.66296 C73.809792,57.344112 73.537632,64.256976 67.196304,64.256976 C66.190062,64.3629919 65.1846376,64.0493541 64.4171407,63.3900279 C63.6496439,62.7307018 63.1880149,61.7840521 63.14112,60.773328 C63.1664807,59.4749761 63.3585655,58.1852641 63.712656,56.935872 L67.849488,37.639728 L53.7516,37.639728 C49.478688,57.997296 48.3084,62.487936 48.3084,65.699424 C48.3084,72.748368 53.7516,75.5245832 60.065712,75.5245832 C64.6793241,75.5470146 69.053952,73.4748224 71.959104,69.890688 L71.959104,69.890688 L70.816032,74.599056 L84.424032,74.599056 L92.26224,37.639728 L78.164352,37.639728 Z" id="Path" fill="#1779BF" fill-rule="nonzero"></path>
                <path d="M120.321936,36.714384 C116.353003,36.5738203 112.598056,38.5131885 110.415312,41.830992 L110.415312,41.830992 L111.286224,37.639728 L97.678224,37.639728 L87.0912,86.54688 L101.189088,86.54688 L104.536656,70.21728 C106.851713,74.0651214 111.209465,76.1960516 115.668,75.66048 C128.18736,75.66048 133.684992,62.977824 133.684992,52.009776 C133.793856,45.31464 130.6368,36.714384 120.321936,36.714384 Z M112.266,65.3184 C107.63928,65.3184 107.149392,60.610032 107.149392,59.249232 C107.149392,55.983312 108.292464,47.029248 114.552144,47.029248 C118.688976,47.029248 119.668752,49.94136 119.668752,53.561088 C119.7504,58.296672 117.899712,65.3184 112.266,65.3184 Z" id="Shape" fill="#1779BF" fill-rule="nonzero"></path>
                <path d="M175.162176,52.880688 C175.162176,41.259456 165.255552,36.714384 157.063536,36.714384 C147.891744,36.714384 134.936928,42.157584 134.936928,59.1948 C134.936928,68.17608 140.189616,75.5244 153.307728,75.5244 C169.256304,75.5244 172.032336,66.325392 172.95768,63.848736 L159.34968,63.848736 C158.154064,65.6657829 156.077487,66.7040714 153.90648,66.570336 C149.470272,66.570336 148.136688,63.304416 148.136688,59.385312 L174.45456,59.385312 C174.99276,57.2607385 175.230943,55.0712913 175.162176,52.880688 Z M161.826336,51.955344 L149.306976,51.955344 C149.885478,48.3546903 153.008612,45.7173764 156.655296,45.750096 C158.066324,45.5638663 159.487481,46.0111372 160.537518,46.9719208 C161.587555,47.9327043 162.158979,49.3086451 162.098496,50.730624 C162.04866,51.1468869 161.95749,51.5571516 161.826336,51.955344 Z" id="Shape" fill="#1779BF" fill-rule="nonzero"></path>
                <path d="M210.842352,37.28592 C209.22642,36.8152378 207.542372,36.6219863 205.861824,36.714384 C201.384309,37.1166777 197.354447,39.595043 194.975424,43.40952 L194.839344,43.40952 L196.064064,37.639728 L182.456064,37.639728 L174.835584,74.599056 L188.933472,74.599056 L192.14496,59.140368 C193.77792,51.383808 196.77168,48.798288 202.7592,48.798288 C204.615887,48.7886674 206.459323,49.1112686 208.2024,49.750848 L210.842352,37.28592 Z" id="Path" fill="#1779BF" fill-rule="nonzero"></path>
                <path d="M245.733264,46.53936 C245.733264,37.55808 234.46584,36.714384 227.770704,36.714384 C218.734992,36.714384 211.114512,39.000528 208.910016,48.798288 L222.136992,48.798288 C222.77813,46.2898815 225.20866,44.6695283 227.770704,45.04248 C229.920768,45.04248 232.179696,45.668448 232.179696,48.253968 C232.179696,52.79904 225.838368,52.227504 221.864832,52.52688 C211.250592,53.288928 203.98392,55.92888 203.98392,65.699424 C203.98392,72.748368 209.617632,75.5244 215.95896,75.5244 C220.20998,75.671437 224.330831,74.0447854 227.335248,71.03376 L227.498544,71.03376 C227.443412,72.2421061 227.609432,73.4503615 227.988432,74.599056 L241.81416,74.599056 C241.242624,72.884448 241.514784,74.1636 241.242624,71.30592 C241.242624,68.883696 245.733264,52.309152 245.733264,46.53936 Z M222.572448,67.196304 C220.286304,67.196304 218.081808,66.54312 218.081808,63.984816 C218.081808,61.426512 220.286304,60.065712 222.654096,59.847984 C225.229279,59.7782735 227.76831,59.224303 230.138496,58.215024 C229.267584,63.68544 227.335248,67.196304 222.572448,67.196304 Z" id="Shape" fill="#1779BF" fill-rule="nonzero"></path>
                <path d="M299.702592,36.714384 C294.926283,36.7336343 290.438376,39.0028008 287.591472,42.837984 C286.666128,38.265696 282.474864,36.714384 277.630416,36.714384 C273.081127,36.7716159 268.80479,38.8947617 266.009184,42.484176 L266.009184,42.484176 L266.98896,37.639728 L253.1088,37.639728 L245.515536,74.599056 L259.613424,74.599056 L264.158496,53.452224 C264.387635,50.3662079 266.969941,47.9862024 270.064368,48.009024 C272.350512,48.009024 273.629664,49.070448 273.629664,51.43824 C273.549922,52.5880905 273.358508,53.7274566 273.058128,54.84024 L268.785216,74.653488 L282.883104,74.653488 L287.727552,52.281936 C288.157681,49.6606062 290.522259,47.8044124 293.170752,48.009024 C294.118248,47.9428522 295.047613,48.2924364 295.716607,48.9666574 C296.385602,49.6408785 296.727943,50.5729354 296.6544,51.519888 C296.472987,53.350043 296.182163,55.167695 295.783488,56.963088 L292.02768,74.626272 L306.125568,74.626272 L310.616208,53.533872 C311.03427,51.6147593 311.316204,49.6685047 311.460379,47.709648 C311.514336,40.061952 306.887616,36.714384 299.702592,36.714384 Z" id="Path" fill="#1779BF" fill-rule="nonzero"></path>
                <path d="M353.318112,46.53936 C353.318112,37.55808 342.050688,36.714384 335.355552,36.714384 C326.31984,36.714384 318.69936,39.000528 316.494864,48.798288 L329.749056,48.798288 C330.378295,46.2939085 332.800117,44.671523 335.355552,45.04248 C337.505616,45.04248 339.79176,45.668448 339.79176,48.253968 C339.79176,52.79904 333.450432,52.227504 329.44968,52.52688 C318.83544,53.288928 311.595984,55.92888 311.595984,65.699424 C311.595984,72.748368 317.20248,75.5244 323.543808,75.5244 C327.801902,75.6658858 331.92903,74.0406444 334.947312,71.03376 L335.083392,71.03376 C335.02826,72.2421061 335.19428,73.4503615 335.57328,74.599056 L349.399008,74.599056 C348.827472,72.884448 349.099632,74.1636 348.827472,71.30592 C348.827472,68.883696 353.318112,52.309152 353.318112,46.53936 Z M330.157296,67.196304 C327.898368,67.196304 325.693872,66.54312 325.693872,63.984816 C325.693872,61.426512 327.898368,60.065712 330.238944,59.847984 C332.814127,59.7782735 335.353158,59.224303 337.723344,58.215024 C336.852432,63.68544 334.947312,67.196304 330.157296,67.196304 L330.157296,67.196304 Z" id="Shape" fill="#1779BF" fill-rule="nonzero"></path>
                <path d="M360.720864,44.280432 C358.987728,44.2694276 357.419625,45.306434 356.751289,46.9055611 C356.082953,48.5046882 356.446792,50.3491263 357.672329,51.5746629 C358.897866,52.8001996 360.742304,53.1640385 362.341431,52.4957028 C363.940558,51.8273671 364.977564,50.2592636 364.96656,48.526128 C364.96656,46.1812948 363.065697,44.280432 360.720864,44.280432 L360.720864,44.280432 Z M360.720864,52.281936 C359.199353,52.2929617 357.821519,51.3849122 357.231606,49.9823719 C356.641693,48.5798316 356.956272,46.9599481 358.028251,45.8801441 C359.10023,44.8003401 360.717783,44.4739893 362.124577,45.0536862 C363.53137,45.6333831 364.449456,47.0045774 364.449456,48.526128 C364.449456,50.5898213 362.784503,52.2669817 360.720864,52.281936 L360.720864,52.281936 Z" id="Shape" fill="#1779BF" fill-rule="nonzero"></path>
                <path d="M362.898144,47.410272 C362.915809,47.0000234 362.706727,46.6132219 362.353824,46.40328 C362.004279,46.2134176 361.607402,46.1283725 361.210752,46.158336 L359.2512,46.158336 L359.2512,50.921136 L359.822736,50.921136 L359.822736,48.71664 L360.88416,48.71664 L362.24496,50.921136 L362.952576,50.921136 L361.510128,48.71664 C362.24496,48.689424 362.898144,48.362832 362.898144,47.410272 Z M360.612,48.281184 L359.713872,48.281184 L359.713872,46.593792 L361.074672,46.593792 C361.673424,46.593792 362.299392,46.593792 362.299392,47.410272 C362.299392,48.226752 361.265184,48.281184 360.612,48.281184 L360.612,48.281184 Z" id="Shape" fill="#1779BF" fill-rule="nonzero"></path>
                <path d="M398.333376,22.289904 C398.333376,24.004512 396.237744,25.365312 393.625008,25.365312 C391.012272,25.365312 388.91664,24.004512 388.91664,22.289904 C388.91664,20.575296 391.012272,19.214496 393.625008,19.214496 C396.237744,19.214496 398.333376,20.602512 398.333376,22.289904 Z" id="Path" fill="#1779BF" fill-rule="nonzero"></path>
                <path d="M279.726048,83.172096 C310.153536,93.731904 366.300144,99.283968 388.590048,50.512896 C386.821008,50.295168 384.943104,49.968576 383.772816,49.778064 C382.602528,51.928128 355.767552,105.18984 284.570496,74.98008 C282.883104,77.756112 281.304576,80.668224 279.726048,83.172096 Z" id="Path" fill="#1779BF" fill-rule="nonzero"></path>
            </g>
        </g>
    </g>
</svg>