<?xml version="1.0" encoding="UTF-8"?>
<svg width="22px" height="17px" viewBox="0 0 22 17" version="1.1" xmlns="http://www.w3.org/2000/svg" xmlns:xlink="http://www.w3.org/1999/xlink">
    <!-- Generator: Sketch 63.1 (92452) - https://sketch.com -->
    <defs>
        <path d="M19.3230769,19.9053763 L23.617094,19.9053763 L23.617094,21.9469534 L19.3230769,21.9469534 L19.3230769,19.9053763 Z M19.3230769,11.7390681 L26.8376068,11.7390681 L26.8376068,13.7806452 L19.3230769,13.7806452 L19.3230769,11.7390681 Z M19.3230769,15.8222222 L25.7641026,15.8222222 L25.7641026,17.8637993 L19.3230769,17.8637993 L19.3230769,15.8222222 Z M6.44102564,21.9469534 C6.44102564,23.0698208 7.40717949,23.9885305 8.58803419,23.9885305 L15.0290598,23.9885305 C16.2099145,23.9885305 17.1760684,23.0698208 17.1760684,21.9469534 L17.1760684,11.7390681 L6.44102564,11.7390681 L6.44102564,21.9469534 Z M18.2495726,8.67670251 L15.0290598,8.67670251 L13.9555556,7.65591398 L9.66153846,7.65591398 L8.58803419,8.67670251 L5.36752137,8.67670251 L5.36752137,10.7182796 L18.2495726,10.7182796 L18.2495726,8.67670251 Z" id="path-1"></path>
    </defs>
    <g id="Symbols" stroke="none" stroke-width="1" fill-rule="evenodd">
        <g id="Elementos/icons/content/delete_sweep_24px" transform="translate(-5.000000, -7.000000)">
            <mask id="mask-2">
                <use xlink:href="#path-1"></use>
            </mask>
            <use id="ic_delete_sweep_24px" fill-rule="evenodd" xlink:href="#path-1"></use>
        </g>
    </g>
</svg>