<?xml version="1.0" encoding="UTF-8"?>
<svg width="46px" height="47px" viewBox="0 0 46 47" version="1.1" xmlns="http://www.w3.org/2000/svg" xmlns:xlink="http://www.w3.org/1999/xlink">
    <!-- Generator: Sketch 63.1 (92452) - https://sketch.com -->
    <title>Group 14</title>
    <desc>Created with Sketch.</desc>
    <g id="Inicio-BA-SP-SAMS" stroke="none" stroke-width="1" fill="none" fill-rule="evenodd">
        <g id="Group-14" transform="translate(-47.000000, 0.000000)">
            <rect id="Rectangle" x="0" y="0" width="141" height="47"></rect>
            <g id="Elementos/logo/normal/Sams" transform="translate(47.000000, 0.000000)">
                <g id="Sams">
                    <polygon id="Rectangle" fill="#013171" fill-rule="nonzero" transform="translate(23.345823, 23.318408) rotate(-45.000000) translate(-23.345823, -23.318408) " points="7.33037132 7.30295694 39.8323169 6.83191426 39.3612742 39.3338598 6.85932863 39.8049025"></polygon>
                    <polygon id="Path" fill="#0074C5" fill-rule="nonzero" points="23.3506743 7.14842353 21.8896457 5.64442353 15.4181486 12.2974118 21.8896457 18.9504 23.3506743 17.4464 18.3488 12.2974118"></polygon>
                    <polygon id="Path" fill="#93BA1F" fill-rule="nonzero" points="31.2746057 12.2974118 24.8117029 5.64442353 23.3506743 7.14842353 28.3525486 12.2974118 23.3506743 17.4464 24.8117029 18.9504"></polygon>
                    <polygon id="Rectangle" fill="#004C94" fill-rule="nonzero" transform="translate(23.343942, 12.298850) rotate(-45.010000) translate(-23.343942, -12.298850) " points="19.807375 8.7623197 26.9845246 8.65830357 26.8805085 15.8353805 19.7033589 15.9393967"></polygon>
                    <path d="M24.1585371,21.9407059 L24.1585371,23.0731294 C24.8721314,22.4872622 25.7342777,22.1248904 26.6422857,22.0291765 C27.3605362,22.0014984 28.0151745,22.45076 28.2666057,23.1439059 C29.0063352,22.5288119 29.9003505,22.1422818 30.8448914,22.0291765 C32.2199771,22.0291765 32.6582857,23.0023529 32.6582857,25.0460235 L32.6582857,25.8776471 C32.6582857,26.5500235 32.6582857,27.4524235 32.6153143,28.6025412 L33.4231771,28.7087059 L33.4231771,29.0272 L30.4323657,29.0272 L30.4323657,28.7087059 L31.34336,28.5848471 C31.4201401,27.6699433 31.4516932,26.7516134 31.4378971,25.8334118 C31.4378971,23.7366588 31.34336,22.7988706 30.0971886,22.7988706 C29.4738582,22.8633728 28.8794998,23.1019902 28.3783314,23.4889412 C28.4368738,24.1270343 28.4626925,24.767861 28.45568,25.4087529 L28.45568,28.6025412 L29.3151086,28.7087059 L29.3151086,29.0272 L26.3071086,29.0272 L26.3071086,28.7087059 L27.1665371,28.5848471 C27.2181029,27.8328471 27.2181029,26.9127529 27.2181029,25.8334118 C27.2181029,23.7012706 27.0891886,22.7988706 25.8602057,22.7988706 C25.2366276,22.849392 24.6401537,23.0827185 24.1413486,23.4712471 L24.1413486,27.0100706 C24.1413486,27.6028235 24.1413486,28.1424941 24.18432,28.5848471 L25.1296914,28.6910118 L25.1296914,29.0095059 L21.9412114,29.0095059 L21.9412114,28.6910118 L22.8779886,28.5848471 C22.8779886,28.1424941 22.9467429,27.6205176 22.9467429,27.0100706 L22.9467429,24.0286118 C22.9467429,23.4535529 22.9467429,22.9492706 22.8779886,22.4715294 L21.8896457,22.4184471 L21.9412114,22.0911059 L24.1585371,21.9407059 Z" id="Path" fill="#FFFFFF" fill-rule="nonzero"></path>
                    <polygon id="Path" fill="#FFFFFF" fill-rule="nonzero" points="34.3771429 20.5074824 33.5177143 22.4096 33.1739429 22.4096 33.3630171 20.5074824"></polygon>
                    <path d="M8.81773714,25.8422588 C9.00681143,27.8151529 9.90921143,28.8325647 11.3014857,28.8325647 C11.8908057,28.8748681 12.4702831,28.6603792 12.8984957,28.2414442 C13.3267083,27.8225092 13.5642646,27.2376663 13.5531886,26.6296471 C13.5692912,26.1497451 13.4132743,25.6805246 13.11488,25.3114353 C12.5476571,24.6302118 11.61088,24.3824941 10.5365943,23.8782118 C9.28941814,23.4440963 8.44723256,22.2431495 8.43958857,20.8879059 C8.41940969,20.0581971 8.73611552,19.2573813 9.31351675,18.6781091 C9.89091798,18.0988369 10.6767496,17.7935427 11.4819657,17.8356706 C12.2421905,17.9169009 12.9865217,18.1136742 13.6906971,18.4195765 C13.8689359,18.4308422 14.0394119,18.3430972 14.1376,18.1895529 L14.5071543,18.1895529 C14.452027,18.6533718 14.4233303,19.1201157 14.4212114,19.5873882 L14.4212114,20.8525176 L14.0516571,20.8525176 C13.9055543,19.1715765 13.0461257,18.1984 11.7655771,18.1984 C11.2173209,18.1521509 10.6761919,18.3506437 10.2798873,18.7433693 C9.88358261,19.1360949 9.67031543,19.6851854 9.69435429,20.2509176 C9.69435429,21.4541176 10.46784,21.8522353 11.8773029,22.4715294 C13.8453943,23.3562353 14.8681143,23.9755294 14.8681143,25.9484235 C14.8891972,26.8726605 14.5255031,27.7621001 13.8686857,28.3925965 C13.2118683,29.0230929 12.3245711,29.334513 11.4304,29.2483765 C10.6187655,29.1687464 9.81777573,28.9996844 9.04118857,28.7440941 C8.87688194,28.7338925 8.72087494,28.8193156 8.63725714,28.9652706 L8.32786286,28.9652706 C8.37732273,28.4774327 8.40027657,27.987132 8.39661714,27.4966588 L8.39661714,25.8422588 L8.81773714,25.8422588 Z" id="Path" fill="#FFFFFF" fill-rule="nonzero"></path>
                    <path d="M8.44818286,20.8879059 C8.45341107,22.2487435 9.30023494,23.4549338 10.5537829,23.8870588 C10.8288,24.0197647 11.0866286,24.1347765 11.3444571,24.2409412 C11.9907437,24.459136 12.5790964,24.8285869 13.0633143,25.3202824 C13.3591052,25.6799748 13.512517,26.1411125 13.4930286,26.6119529 C13.5065917,27.2121254 13.2737367,27.7903747 12.8516657,28.2046509 C12.4295948,28.6189271 11.8574213,28.8308391 11.2757029,28.7883294 C9.88342857,28.7883294 9.01540571,27.7355294 8.82633143,25.8245647 L8.82633143,25.8245647 L8.36224,25.8245647 L8.36224,27.5408941 C8.36706375,28.0311761 8.346983,28.5213825 8.30208,29.0095059 L8.30208,29.0095059 L8.71460571,29.0095059 L8.71460571,29.0095059 C8.79414412,28.8746274 8.93977063,28.7962656 9.09275429,28.8060235 C9.29297562,28.830386 9.48936271,28.8809268 9.67716571,28.9564235 C10.254276,29.1812395 10.8649814,29.3009856 11.4819657,29.3103059 C12.3809312,29.3914563 13.2707586,29.0734311 13.9274635,28.4362824 C14.5841684,27.7991338 14.9451998,26.9035502 14.91968,25.9749647 C14.91968,23.9224471 13.7852343,23.2766118 11.9202743,22.4361412 C10.5365943,21.8256941 9.75451429,21.4275765 9.75451429,20.2420706 C9.73322742,19.6865364 9.94373905,19.1481488 10.332953,18.7627024 C10.7221669,18.377256 11.252926,18.1815481 11.79136,18.2249412 C13.0805029,18.2249412 13.9055543,19.1715765 14.0516571,20.8171294 L14.0516571,20.8171294 L14.4813714,20.8171294 L14.4813714,19.5873882 C14.4869737,19.1202444 14.5156584,18.6536963 14.5673143,18.1895529 L14.5673143,18.1895529 L14.1376,18.1895529 L14.1376,18.1895529 C14.048933,18.3335481 13.8901793,18.4152595 13.7250743,18.4018824 C13.5601646,18.3755439 13.4005168,18.3217588 13.2523886,18.2426353 C12.7148117,17.9782554 12.1291148,17.8335538 11.5335314,17.8179765 C10.7214828,17.7762673 9.92892646,18.0826861 9.34431949,18.6643715 C8.75971253,19.2460568 8.43528584,20.0510389 8.44818286,20.8879059 L8.44818286,20.8879059 Z" id="Path" fill="#FFFFFF" fill-rule="nonzero"></path>
                    <path d="M34.1021257,23.8870588 C34.0981846,24.7766976 34.6491293,25.568566 35.4686171,25.8511059 L35.9670857,26.0722824 C36.3777576,26.2036793 36.7519769,26.4342081 37.05856,26.7446588 C37.2419628,26.965852 37.3371581,27.2503538 37.3249829,27.5408941 C37.3308047,27.9087606 37.1860113,28.2621753 36.9260383,28.5146463 C36.6660653,28.7671173 36.3149028,28.8953468 35.9584914,28.8679529 C35.0990629,28.8679529 34.5748114,28.2309647 34.4544914,27.0277647 L34.4544914,26.9658353 L34.05056,26.9658353 L34.05056,28.1071059 C34.0657397,28.4165558 34.0657397,28.7265971 34.05056,29.0360471 L34.05056,29.1156706 L34.3771429,29.1156706 L34.3771429,29.1156706 C34.4184632,29.040327 34.5000608,28.9983282 34.5834057,29.0095059 C34.7034271,29.0268582 34.821467,29.0564952 34.9357714,29.0979765 C35.3089681,29.2293412 35.7016742,29.2922255 36.096,29.2837647 C36.6797174,29.3341931 37.2567331,29.1267554 37.6830497,28.7132187 C38.1093662,28.299682 38.3447698,27.7190547 38.3305143,27.1162353 C38.3305143,25.7803294 37.6,25.3468235 36.3968,24.8425412 C35.5373714,24.4532706 35.0474971,24.2232471 35.0474971,23.4977882 C35.0314894,23.1566447 35.1591862,22.8249683 35.3978714,22.5877356 C35.6365566,22.3505028 35.9630374,22.2307653 36.2936686,22.2592 C37.0929371,22.2592 37.5914057,22.8519529 37.6773486,23.8693647 L37.6773486,23.9312941 L38.0469029,23.9312941 L38.0469029,23.0465882 C38.0487044,22.750949 38.0659177,22.4556224 38.0984686,22.1618824 L38.0984686,22.1176471 L37.7461029,22.1176471 L37.7461029,22.1176471 C37.6970088,22.1944192 37.6117708,22.2382917 37.5226514,22.2326588 C37.4238016,22.2154826 37.3281312,22.1826545 37.23904,22.1353412 C36.8804582,21.9649246 36.4909271,21.8744762 36.096,21.8699294 C35.5661849,21.8451216 35.0502466,22.0484515 34.6719766,22.4311334 C34.2937066,22.8138152 34.0872438,23.341312 34.1021257,23.8870588 Z" id="Path" fill="#FFFFFF" fill-rule="nonzero"></path>
                    <path d="M19.37152,27.5585882 C19.37152,26.8773647 19.37152,26.1607529 19.4230857,25.3733647 C17.5409371,25.6564706 16.66432,26.1430588 16.66432,27.2754824 C16.6410352,27.6084015 16.7593971,27.9353125 16.9886724,28.1713313 C17.2179478,28.4073501 17.5355185,28.5291932 17.8589257,28.5052235 C18.4010801,28.4828198 18.9257899,28.3017493 19.37152,27.9832471 L19.37152,27.5585882 Z M16.0111543,23.7543529 C16.0111543,22.6396235 17.08544,21.8433882 18.52928,21.8433882 C19.97312,21.8433882 20.6262857,22.6484706 20.6262857,24.3382588 L20.6262857,24.6036706 L20.6262857,27.0277647 C20.597899,27.5522835 20.597899,28.0780224 20.6262857,28.6025412 L21.5630629,28.7087059 L21.5630629,29.0272 L19.4230857,29.0272 L19.4230857,28.2928941 C18.795689,28.8053228 18.0235604,29.0940726 17.2229486,29.1156706 C16.7978022,29.1565662 16.3760968,29.0073246 16.0652531,28.7059619 C15.7544095,28.4045993 15.5844355,27.9802085 15.5986286,27.5408941 C15.5986286,26.2226824 16.8705829,25.4529882 19.4574629,25.1079529 L19.4574629,23.7985882 L19.4574629,23.6128 C19.4574629,22.6130824 19.0621257,22.1707294 18.1855086,22.1707294 C17.5151543,22.1707294 17.0166857,22.4803765 17.0166857,22.9492706 C17.0166857,23.1085176 17.0682514,23.5774118 17.0682514,23.7543529 C17.0682887,24.0587548 16.8310731,24.3068859 16.5354057,24.3117176 C16.3925845,24.3117368 16.2557342,24.2527338 16.1555555,24.1479454 C16.0553768,24.0431569 16.0002564,23.9013556 16.00256,23.7543529 L16.0111543,23.7543529 Z" id="Shape" fill="#FFFFFF" fill-rule="nonzero"></path>
                    <path d="M18.0909714,33.4684235 C17.8525179,33.5340147 17.6072304,33.569662 17.3604571,33.5745882 C16.3205486,33.5745882 15.5986286,33.0437647 15.5986286,31.9290353 C15.5569587,31.4399226 15.7307964,30.9573897 16.072197,30.6145197 C16.4135977,30.2716496 16.8864926,30.1046661 17.3604571,30.1596235 C17.6065249,30.162952 17.8503985,30.2077817 18.0823771,30.2923294 L18.0394057,30.8496941 C17.8271095,30.7271615 17.5865698,30.6660222 17.3432686,30.6727529 C17.0460278,30.6721256 16.7618193,30.7983024 16.558253,31.0212674 C16.3546867,31.2442324 16.2499588,31.5440553 16.2689829,31.8494118 C16.2413579,32.159983 16.3455812,32.4676739 16.5548068,32.6932286 C16.7640324,32.9187833 17.0578062,33.0401514 17.3604571,33.0260706 C17.5988353,33.0307792 17.8356617,32.9856326 18.0565943,32.8933647 L18.0909714,33.4684235 Z" id="Path" fill="#FFFFFF" fill-rule="nonzero"></path>
                    <polygon id="Path" fill="#FFFFFF" fill-rule="nonzero" points="20.1192229 30.2215529 20.7637943 30.2215529 20.7637943 32.9995294 22.0099657 32.9995294 22.0099657 33.5215059 20.1192229 33.5215059"></polygon>
                    <path d="M23.9522743,30.2215529 L24.5968457,30.2215529 L24.5968457,32.1236706 C24.5968457,32.6898824 24.7687314,33.0083765 25.2586057,33.0083765 C25.74848,33.0083765 25.92896,32.6456471 25.92896,32.1236706 L25.92896,30.2215529 L26.5649371,30.2215529 L26.5649371,32.3271529 C26.5649371,33.2118588 26.0836571,33.5745882 25.2586057,33.5745882 C24.4335543,33.5745882 23.9522743,33.2118588 23.9522743,32.3271529 L23.9522743,30.2215529 Z" id="Path" fill="#FFFFFF" fill-rule="nonzero"></path>
                    <path d="M28.8510171,30.2215529 L29.9682743,30.2215529 C30.3808,30.2215529 30.9995886,30.3454118 30.9995886,31.1062588 C31.006203,31.4860119 30.7304047,31.8082881 30.3636114,31.8494118 L30.3636114,31.8494118 C30.7665915,31.8540712 31.0934809,32.1866622 31.10272,32.6014118 C31.10272,33.4330353 30.3722057,33.5568941 29.9682743,33.5568941 L28.8510171,33.5568941 L28.8510171,30.2215529 Z M29.4955886,31.5574588 L29.7534171,31.5574588 C30.0284343,31.5574588 30.3636114,31.4955294 30.3636114,31.1504941 C30.3636114,30.8054588 30.0370286,30.7435294 29.7448229,30.7435294 L29.4955886,30.7435294 L29.4955886,31.5574588 Z M29.4955886,32.9995294 L29.7963886,32.9995294 C30.0971886,32.9995294 30.4581486,32.9199059 30.4581486,32.5483294 C30.4581486,32.1767529 30.1143771,32.0440471 29.7963886,32.0440471 L29.4955886,32.0440471 L29.4955886,32.9995294 Z" id="Shape" fill="#FFFFFF" fill-rule="nonzero"></path>
                    <path d="M32.6582857,30.1507765 C32.9939949,30.1605475 33.2589272,30.4477413 33.2510671,30.7933677 C33.2432071,31.1389942 32.9655098,31.4131112 32.6297241,31.4066999 C32.2939385,31.4002886 32.0263068,31.1157593 32.0309029,30.7700706 C32.0331387,30.6019055 32.1007906,30.4416868 32.2187123,30.3252855 C32.336634,30.2088841 32.4949753,30.1460232 32.6582857,30.1507765 L32.6582857,30.1507765 Z M32.6582857,30.2746353 C32.3924821,30.2746353 32.1770058,30.4964492 32.1770058,30.7700706 C32.1770058,31.0436919 32.3924821,31.2655059 32.6582857,31.2655059 C32.9240893,31.2655059 33.1395657,31.0436919 33.1395657,30.7700706 C33.1395657,30.4964492 32.9240893,30.2746353 32.6582857,30.2746353 Z M32.5637486,31.0885647 L32.42624,31.0885647 L32.42624,30.4692706 L32.6582857,30.4692706 C32.7287,30.4501467 32.8027285,30.4501467 32.8731429,30.4692706 C32.9053543,30.5056319 32.9236738,30.5527777 32.9247086,30.6019765 C32.9197937,30.673365 32.8715081,30.733722 32.8043886,30.7523765 L32.8043886,30.7523765 C32.8667458,30.7760568 32.9102523,30.8346232 32.9161143,30.9027765 C32.9161143,31.0000941 32.9161143,31.0354824 32.9161143,31.0531765 L32.7614171,31.0531765 C32.7543641,31.003306 32.7543641,30.9526469 32.7614171,30.9027765 C32.7486164,30.8413919 32.6932237,30.7995759 32.6325029,30.8054588 L32.5637486,30.8054588 L32.5637486,31.0885647 Z M32.5637486,30.7435294 L32.6582857,30.7435294 C32.7356343,30.7435294 32.7957943,30.7435294 32.7957943,30.6550588 C32.7957943,30.5665882 32.7957943,30.5577412 32.66688,30.5577412 L32.5895314,30.5577412 L32.5637486,30.7435294 Z" id="Shape" fill="#FFFFFF" fill-rule="nonzero"></path>
                    <path d="M28.1376914,16.6678588 C28.0864399,16.6595717 28.0342458,16.6595717 27.9829943,16.6678588 C27.9519041,16.6653895 27.921226,16.6764076 27.8983756,16.6982499 C27.8755252,16.7200922 27.8625819,16.750771 27.8626743,16.7828706 C27.8626743,16.9155765 28.1978514,16.8624941 28.1978514,17.1279059 C28.1978514,17.3933176 28.0603429,17.3667765 27.9056457,17.3667765 C27.8403329,17.3794675 27.77329,17.3794675 27.7079771,17.3667765 L27.7079771,17.2252235 C27.7589199,17.2600095 27.8187315,17.2784808 27.8798629,17.2783059 C27.9400229,17.2783059 28.0173714,17.2783059 28.0173714,17.1721412 C28.0173714,17.0659765 27.6821943,17.0836706 27.6821943,16.8182588 C27.6814434,16.7482697 27.71055,16.6814631 27.7618227,16.6354928 C27.8130954,16.5895225 27.8813745,16.5690146 27.9486171,16.5793882 C28.0113254,16.5701928 28.0749832,16.5701928 28.1376914,16.5793882 L28.1376914,16.6678588 Z" id="Path" fill="#FFFFFF" fill-rule="nonzero"></path>
                    <polygon id="Path" fill="#FFFFFF" fill-rule="nonzero" points="28.3611429 16.5263059 28.6017829 16.5263059 28.7822629 17.1279059 28.7822629 17.1279059 28.9627429 16.5263059 29.2205714 16.5263059 29.2205714 17.3136941 29.0744686 17.3136941 29.0744686 16.6590118 29.0744686 16.6590118 28.8682057 17.3136941 28.7221029 17.3136941 28.51584 16.6590118 28.51584 16.6590118 28.51584 17.3048471 28.3611429 17.3048471"></polygon>
                </g>
            </g>
        </g>
    </g>
</svg>