<?xml version="1.0" encoding="UTF-8"?>
<svg width="35px" height="35px" viewBox="0 0 35 35" version="1.1" xmlns="http://www.w3.org/2000/svg" xmlns:xlink="http://www.w3.org/1999/xlink">
    <!-- Generator: Sketch 63.1 (92452) - https://sketch.com -->
    <title>Elementos/logo/normal/Bodega Copy 2</title>
    <desc>Created with Sketch.</desc>
    <g id="Inicio-BA-SP-SAMS" stroke="none" stroke-width="1" fill="none" fill-rule="evenodd">
        <g id="Elementos/logo/normal/Sams">
            <g id="Sams">
                <polygon id="Rectangle" fill="#013171" fill-rule="nonzero" transform="translate(17.385187, 17.364772) rotate(-45.000000) translate(-17.385187, -17.364772) " points="5.45878715 5.43837219 29.6623636 5.08759572 29.3115872 29.2911722 5.10801068 29.6419487"></polygon>
                <polygon id="Path" fill="#0074C5" fill-rule="nonzero" points="17.3888 5.32329412 16.3008 4.20329412 11.4816 9.15764706 16.3008 14.112 17.3888 12.992 13.664 9.15764706"></polygon>
                <polygon id="Path" fill="#93BA1F" fill-rule="nonzero" points="23.2896 9.15764706 18.4768 4.20329412 17.3888 5.32329412 21.1136 9.15764706 17.3888 12.992 18.4768 14.112"></polygon>
                <polygon id="Rectangle" fill="#004C94" fill-rule="nonzero" transform="translate(17.383786, 9.158718) rotate(-45.010000) translate(-17.383786, -9.158718) " points="14.7501729 6.52513169 20.0948588 6.44767287 20.0174 11.7923047 14.6727141 11.8697635"></polygon>
                <path d="M17.9904,16.3388235 L17.9904,17.1821176 C18.5218,16.7458335 19.1638239,16.4759822 19.84,16.4047059 C20.3748674,16.3840945 20.862364,16.718651 21.0496,17.2348235 C21.6004624,16.7767748 22.2662185,16.4889332 22.9696,16.4047059 C23.9936,16.4047059 24.32,17.1294118 24.32,18.6512941 L24.32,19.2705882 C24.32,19.7712941 24.32,20.4432941 24.288,21.2997647 L24.8896,21.3788235 L24.8896,21.616 L22.6624,21.616 L22.6624,21.3788235 L23.3408,21.2865882 C23.3979767,20.605277 23.4214737,19.9214142 23.4112,19.2376471 C23.4112,17.6762353 23.3408,16.9778824 22.4128,16.9778824 C21.9486178,17.0259159 21.5060105,17.2036097 21.1328,17.4917647 C21.1763954,17.9669404 21.1956221,18.4441518 21.1904,18.9214118 L21.1904,21.2997647 L21.8304,21.3788235 L21.8304,21.616 L19.5904,21.616 L19.5904,21.3788235 L20.2304,21.2865882 C20.2688,20.7265882 20.2688,20.0414118 20.2688,19.2376471 C20.2688,17.6498824 20.1728,16.9778824 19.2576,16.9778824 C18.7932333,17.0155047 18.3490507,17.1892585 17.9776,17.4785882 L17.9776,20.1138824 C17.9776,20.5552941 17.9776,20.9571765 18.0096,21.2865882 L18.7136,21.3656471 L18.7136,21.6028235 L16.3392,21.6028235 L16.3392,21.3656471 L17.0368,21.2865882 C17.0368,20.9571765 17.088,20.5684706 17.088,20.1138824 L17.088,17.8936471 C17.088,17.4654118 17.088,17.0898824 17.0368,16.7341176 L16.3008,16.6945882 L16.3392,16.4508235 L17.9904,16.3388235 Z" id="Path" fill="#FFFFFF" fill-rule="nonzero"></path>
                <polygon id="Path" fill="#FFFFFF" fill-rule="nonzero" points="25.6 15.2715294 24.96 16.688 24.704 16.688 24.8448 15.2715294"></polygon>
                <path d="M6.5664,19.2442353 C6.7072,20.7134118 7.3792,21.4710588 8.416,21.4710588 C8.85485534,21.5025614 9.28638106,21.3428356 9.60526278,21.0308627 C9.9241445,20.7188898 10.1010481,20.2833685 10.0928,19.8305882 C10.1047913,19.4732144 9.98860849,19.1237949 9.7664,18.8489412 C9.344,18.3416471 8.6464,18.1571765 7.8464,17.7816471 C6.9176518,17.4583696 6.29049233,16.5640475 6.2848,15.5548235 C6.26977317,14.9369553 6.50561794,14.3406031 6.93559758,13.9092302 C7.36557722,13.4778573 7.95077101,13.2505106 8.5504,13.2818824 C9.11652484,13.342373 9.67081402,13.4889063 10.1952,13.7167059 C10.327931,13.7250953 10.4548812,13.6597533 10.528,13.5454118 L10.8032,13.5454118 C10.7621478,13.8908088 10.7407779,14.238384 10.7392,14.5863529 L10.7392,15.5284706 L10.464,15.5284706 C10.3552,14.2767059 9.7152,13.552 8.7616,13.552 C8.35332411,13.5175592 7.95035568,13.665373 7.65523519,13.9578282 C7.36011471,14.2502835 7.20129872,14.6591806 7.2192,15.0804706 C7.2192,15.9764706 7.7952,16.2729412 8.8448,16.7341176 C10.3104,17.3929412 11.072,17.8541176 11.072,19.3232941 C11.0877001,20.0115557 10.816864,20.6739043 10.3277447,21.1434229 C9.83862534,21.6129415 9.17787211,21.8448501 8.512,21.7807059 C7.90759131,21.7214069 7.31110959,21.5955096 6.7328,21.4051765 C6.610444,21.3975795 6.49426857,21.4611925 6.432,21.5698824 L6.2016,21.5698824 C6.23843182,21.2065988 6.2555251,20.8414812 6.2528,20.4762353 L6.2528,19.2442353 L6.5664,19.2442353 Z" id="Path" fill="#FFFFFF" fill-rule="nonzero"></path>
                <path d="M6.2912,15.5548235 C6.29509335,16.5682132 6.92570687,17.4664401 7.8592,17.7882353 C8.064,17.8870588 8.256,17.9727059 8.448,18.0517647 C8.92927722,18.2142502 9.36741222,18.4893732 9.728,18.8555294 C9.94826985,19.1233855 10.0625126,19.4667859 10.048,19.8174118 C10.0581002,20.2643487 9.88469756,20.6949599 9.57038939,21.0034634 C9.25608121,21.311967 8.82999462,21.4697738 8.3968,21.4381176 C7.36,21.4381176 6.7136,20.6541176 6.5728,19.2310588 L6.5728,19.2310588 L6.2272,19.2310588 L6.2272,20.5091765 C6.23079215,20.8742801 6.21583841,21.2393274 6.1824,21.6028235 L6.1824,21.6028235 L6.4896,21.6028235 L6.4896,21.6028235 C6.54883073,21.5023821 6.657276,21.4440275 6.7712,21.4512941 C6.92030099,21.4694364 7.0665467,21.5070731 7.2064,21.5632941 C7.63616296,21.7307103 8.09094361,21.8198829 8.5504,21.8268235 C9.21984241,21.8872547 9.88247981,21.6504274 10.3715154,21.175955 C10.8605509,20.7014826 11.1294041,20.0345586 11.1104,19.3430588 C11.1104,17.8145882 10.2656,17.3336471 8.8768,16.7077647 C7.8464,16.2531765 7.264,15.9567059 7.264,15.0738824 C7.24814808,14.6601867 7.40491206,14.2592597 7.6947522,13.9722252 C7.98459235,13.6851906 8.37983855,13.5394507 8.7808,13.5717647 C9.7408,13.5717647 10.3552,14.2767059 10.464,15.5021176 L10.464,15.5021176 L10.784,15.5021176 L10.784,14.5863529 C10.7881719,14.2384798 10.8095329,13.8910504 10.848,13.5454118 L10.848,13.5454118 L10.528,13.5454118 L10.528,13.5454118 C10.4619714,13.6526422 10.3437505,13.7134911 10.2208,13.7035294 C10.0979949,13.6839156 9.97910822,13.6438629 9.8688,13.5849412 C9.46847681,13.3880625 9.03231955,13.280306 8.5888,13.2687059 C7.98408294,13.2376458 7.3938814,13.4658301 6.95853579,13.899 C6.52319018,14.33217 6.28159584,14.9316247 6.2912,15.5548235 L6.2912,15.5548235 Z" id="Path" fill="#FFFFFF" fill-rule="nonzero"></path>
                <path d="M25.3952,17.7882353 C25.3922651,18.4507322 25.8025431,19.0404215 26.4128,19.2508235 L26.784,19.4155294 C27.0898195,19.5133782 27.3684935,19.6850486 27.5968,19.9162353 C27.7333766,20.0809536 27.8042666,20.2928167 27.7952,20.5091765 C27.7995354,20.7831196 27.6917106,21.0463008 27.4981137,21.2343111 C27.3045167,21.4223214 27.0430127,21.5178115 26.7776,21.4974118 C26.1376,21.4974118 25.7472,21.0230588 25.6576,20.1270588 L25.6576,20.0809412 L25.3568,20.0809412 L25.3568,20.9308235 C25.368104,21.161265 25.368104,21.3921468 25.3568,21.6225882 L25.3568,21.6818824 L25.6,21.6818824 L25.6,21.6818824 C25.6307704,21.6257754 25.6915346,21.5944997 25.7536,21.6028235 C25.8429776,21.6157455 25.9308797,21.6378156 26.016,21.6687059 C26.2939124,21.7665307 26.5863531,21.8133594 26.88,21.8070588 C27.3146832,21.8446119 27.7443757,21.690137 28.0618455,21.3821841 C28.3793153,21.0742313 28.5546158,20.6418492 28.544,20.1929412 C28.544,19.1981176 28,18.8752941 27.104,18.4997647 C26.464,18.2098824 26.0992,18.0385882 26.0992,17.4983529 C26.0872793,17.2443098 26.1823727,16.9973168 26.360117,16.8206541 C26.5378613,16.6439915 26.7809853,16.5548252 27.0272,16.576 C27.6224,16.576 27.9936,17.0174118 28.0576,17.7750588 L28.0576,17.8211765 L28.3328,17.8211765 L28.3328,17.1623529 C28.3341416,16.9421961 28.34696,16.722272 28.3712,16.5035294 L28.3712,16.4705882 L28.1088,16.4705882 L28.1088,16.4705882 C28.0722406,16.527759 28.0087655,16.56043 27.9424,16.5562353 C27.8687884,16.5434445 27.7975445,16.518998 27.7312,16.4837647 C27.464171,16.3568588 27.1740946,16.2895036 26.88,16.2861176 C26.4854568,16.2676437 26.1012475,16.4190596 25.819557,16.7040355 C25.5378666,16.9890114 25.3841177,17.381828 25.3952,17.7882353 Z" id="Path" fill="#FFFFFF" fill-rule="nonzero"></path>
                <path d="M14.4256,20.5223529 C14.4256,20.0150588 14.4256,19.4814118 14.464,18.8950588 C13.0624,19.1058824 12.4096,19.4682353 12.4096,20.3115294 C12.3922602,20.559448 12.4804021,20.8028923 12.6511391,20.978651 C12.821876,21.1544096 13.0583648,21.2451439 13.2992,21.2272941 C13.702932,21.2106105 14.0936734,21.0757708 14.4256,20.8385882 L14.4256,20.5223529 Z M11.9232,17.6894118 C11.9232,16.8592941 12.7232,16.2663529 13.7984,16.2663529 C14.8736,16.2663529 15.36,16.8658824 15.36,18.1242353 L15.36,18.3218824 L15.36,20.1270588 C15.338861,20.5176579 15.338861,20.9091656 15.36,21.2997647 L16.0576,21.3788235 L16.0576,21.616 L14.464,21.616 L14.464,21.0691765 C13.9967896,21.4507723 13.4218003,21.6657987 12.8256,21.6818824 C12.5090016,21.7123365 12.1949657,21.6011991 11.9634864,21.3767802 C11.732007,21.1523612 11.6054307,20.8363255 11.616,20.5091765 C11.616,19.5275294 12.5632,18.9543529 14.4896,18.6974118 L14.4896,17.7223529 L14.4896,17.584 C14.4896,16.8395294 14.1952,16.5101176 13.5424,16.5101176 C13.0432,16.5101176 12.672,16.7407059 12.672,17.0898824 C12.672,17.2084706 12.7104,17.5576471 12.7104,17.6894118 C12.7104277,17.916094 12.5337779,18.1008725 12.3136,18.1044706 C12.2072438,18.1044848 12.105334,18.0605465 12.0307328,17.9825125 C11.9561316,17.9044785 11.9150846,17.7988819 11.9168,17.6894118 L11.9232,17.6894118 Z" id="Shape" fill="#FFFFFF" fill-rule="nonzero"></path>
                <path d="M13.472,24.9232941 C13.2944283,24.9721386 13.1117673,24.9986845 12.928,25.0023529 C12.1536,25.0023529 11.616,24.6070588 11.616,23.7769412 C11.5849693,23.4127083 11.7144228,23.0533753 11.9686574,22.7980466 C12.2228919,22.5427178 12.5750477,22.4183684 12.928,22.4592941 C13.1112419,22.4617727 13.2928499,22.4951566 13.4656,22.5581176 L13.4336,22.9731765 C13.275507,22.8819288 13.0963818,22.8363995 12.9152,22.8414118 C12.6938505,22.8409446 12.4822059,22.9349061 12.3306139,23.1009438 C12.179022,23.2669816 12.1010331,23.4902539 12.1152,23.7176471 C12.0946282,23.9489235 12.1722413,24.178055 12.3280476,24.3460213 C12.483854,24.5139875 12.7026217,24.6043681 12.928,24.5938824 C13.1055156,24.5973888 13.2818757,24.5637689 13.4464,24.4950588 L13.472,24.9232941 Z" id="Path" fill="#FFFFFF" fill-rule="nonzero"></path>
                <polygon id="Path" fill="#FFFFFF" fill-rule="nonzero" points="14.9824 22.5054118 15.4624 22.5054118 15.4624 24.5741176 16.3904 24.5741176 16.3904 24.9628235 14.9824 24.9628235"></polygon>
                <path d="M17.8368,22.5054118 L18.3168,22.5054118 L18.3168,23.9218824 C18.3168,24.3435294 18.4448,24.5807059 18.8096,24.5807059 C19.1744,24.5807059 19.3088,24.3105882 19.3088,23.9218824 L19.3088,22.5054118 L19.7824,22.5054118 L19.7824,24.0734118 C19.7824,24.7322353 19.424,25.0023529 18.8096,25.0023529 C18.1952,25.0023529 17.8368,24.7322353 17.8368,24.0734118 L17.8368,22.5054118 Z" id="Path" fill="#FFFFFF" fill-rule="nonzero"></path>
                <path d="M21.4848,22.5054118 L22.3168,22.5054118 C22.624,22.5054118 23.0848,22.5976471 23.0848,23.1642353 C23.0897256,23.4470301 22.8843439,23.6870231 22.6112,23.7176471 L22.6112,23.7176471 C22.9112915,23.7211169 23.1547198,23.968791 23.1616,24.2776471 C23.1616,24.8969412 22.6176,24.9891765 22.3168,24.9891765 L21.4848,24.9891765 L21.4848,22.5054118 Z M21.9648,23.5002353 L22.1568,23.5002353 C22.3616,23.5002353 22.6112,23.4541176 22.6112,23.1971765 C22.6112,22.9402353 22.368,22.8941176 22.1504,22.8941176 L21.9648,22.8941176 L21.9648,23.5002353 Z M21.9648,24.5741176 L22.1888,24.5741176 C22.4128,24.5741176 22.6816,24.5148235 22.6816,24.2381176 C22.6816,23.9614118 22.4256,23.8625882 22.1888,23.8625882 L21.9648,23.8625882 L21.9648,24.5741176 Z" id="Shape" fill="#FFFFFF" fill-rule="nonzero"></path>
                <path d="M24.32,22.4527059 C24.5699962,22.4599822 24.7672862,22.6738499 24.761433,22.9312313 C24.7555797,23.1886127 24.5487839,23.3927424 24.2987307,23.387968 C24.0486776,23.3831936 23.8493774,23.1713102 23.8528,22.9138824 C23.854465,22.788653 23.9048441,22.6693413 23.9926581,22.5826594 C24.0804721,22.4959776 24.1983859,22.4491662 24.32,22.4527059 L24.32,22.4527059 Z M24.32,22.5449412 C24.1220612,22.5449412 23.9616,22.7101218 23.9616,22.9138824 C23.9616,23.1176429 24.1220612,23.2828235 24.32,23.2828235 C24.5179388,23.2828235 24.6784,23.1176429 24.6784,22.9138824 C24.6784,22.7101218 24.5179388,22.5449412 24.32,22.5449412 Z M24.2496,23.1510588 L24.1472,23.1510588 L24.1472,22.6898824 L24.32,22.6898824 C24.3724362,22.6756412 24.4275638,22.6756412 24.48,22.6898824 C24.5039872,22.7169599 24.5176294,22.7520685 24.5184,22.7887059 C24.51474,22.8418675 24.4787826,22.8868142 24.4288,22.9007059 L24.4288,22.9007059 C24.4752363,22.9183402 24.5076347,22.9619535 24.512,23.0127059 C24.512,23.0851765 24.512,23.1115294 24.512,23.1247059 L24.3968,23.1247059 C24.3915477,23.0875683 24.3915477,23.0498435 24.3968,23.0127059 C24.3872675,22.966994 24.3460177,22.9358544 24.3008,22.9402353 L24.2496,22.9402353 L24.2496,23.1510588 Z M24.2496,22.8941176 L24.32,22.8941176 C24.3776,22.8941176 24.4224,22.8941176 24.4224,22.8282353 C24.4224,22.7623529 24.4224,22.7557647 24.3264,22.7557647 L24.2688,22.7557647 L24.2496,22.8941176 Z" id="Shape" fill="#FFFFFF" fill-rule="nonzero"></path>
                <path d="M20.9536,12.4122353 C20.915434,12.406064 20.876566,12.406064 20.8384,12.4122353 C20.8152477,12.4103964 20.7924024,12.4186014 20.7753861,12.4348669 C20.7583698,12.4511325 20.7487312,12.4739784 20.7488,12.4978824 C20.7488,12.5967059 20.9984,12.5571765 20.9984,12.7548235 C20.9984,12.9524706 20.896,12.9327059 20.7808,12.9327059 C20.7321628,12.9421566 20.6822372,12.9421566 20.6336,12.9327059 L20.6336,12.8272941 C20.6715361,12.8531986 20.7160767,12.8669538 20.7616,12.8668235 C20.8064,12.8668235 20.864,12.8668235 20.864,12.7877647 C20.864,12.7087059 20.6144,12.7218824 20.6144,12.5242353 C20.6138408,12.4721157 20.635516,12.4223662 20.6736977,12.388133 C20.7118795,12.3538998 20.7627257,12.3386279 20.8128,12.3463529 C20.8594976,12.3395052 20.9069024,12.3395052 20.9536,12.3463529 L20.9536,12.4122353 Z" id="Path" fill="#FFFFFF" fill-rule="nonzero"></path>
                <polygon id="Path" fill="#FFFFFF" fill-rule="nonzero" points="21.12 12.3068235 21.2992 12.3068235 21.4336 12.7548235 21.4336 12.7548235 21.568 12.3068235 21.76 12.3068235 21.76 12.8931765 21.6512 12.8931765 21.6512 12.4056471 21.6512 12.4056471 21.4976 12.8931765 21.3888 12.8931765 21.2352 12.4056471 21.2352 12.4056471 21.2352 12.8865882 21.12 12.8865882"></polygon>
            </g>
        </g>
    </g>
</svg>