<?xml version="1.0" encoding="UTF-8"?>
<svg width="134px" height="32px" viewBox="0 0 134 32" version="1.1" xmlns="http://www.w3.org/2000/svg" xmlns:xlink="http://www.w3.org/1999/xlink">
    <!-- Generator: Sketch 60 (88103) - https://sketch.com -->
    <title>Elementos/logo/normal/Supercenter</title>
    <desc>Created with Sketch.</desc>
    <g id="Symbols" stroke="none" stroke-width="1" fill="none" fill-rule="evenodd">
        <g id="heder/principal" transform="translate(-136.000000, -32.000000)">
            <g id="Elementos/logo/normal/Supercenter" transform="translate(136.000000, 32.000000)">
                <g id="Group">
                    <path d="M116.680064,10.7428571 C117.41713,10.7428571 118.023913,10.3548806 118.105959,9.85190577 L118.834459,1.50320896 C118.834459,0.677872937 117.881459,0 116.682318,0 C115.485432,0 114.533784,0.677872937 114.533784,1.50320896 L115.260706,9.85190577 C115.340949,10.3548806 115.948409,10.7428571 116.682769,10.7428571 L116.680064,10.7428571" id="Fill-8" fill="#FDBB30"></path>
                    <path d="M121.132597,13.3120912 C121.506711,13.961877 122.150954,14.3023942 122.626538,14.1245533 L130.222395,10.568883 C130.937713,10.1546101 131.040326,8.97359909 130.435619,7.91689295 C129.825885,6.8588082 128.754736,6.3592911 128.043531,6.77425333 L121.183561,11.6113435 C120.791164,11.9355471 120.76214,12.666671 121.13534,13.3166866 L121.132597,13.3120912" id="Fill-10" fill="#FDBB30"></path>
                    <path d="M116.680064,21.2571429 C117.41713,21.2571429 118.023913,21.6436177 118.105959,22.146035 L118.834459,30.4964071 C118.834459,31.323326 117.881459,32 116.682318,32 C115.485432,32 114.533784,31.323326 114.533784,30.4964071 L115.260706,22.146035 C115.340949,21.6436177 115.948409,21.2571429 116.682769,21.2571429 L116.680064,21.2571429" id="Fill-11" fill="#FDBB30"></path>
                    <path d="M73.9161348,20.2842209 C73.9161348,20.5425453 73.893664,20.8089209 73.823528,21.041942 C73.5345854,22.0117513 72.5433741,22.8313507 71.3040761,22.8313507 C70.2706469,22.8313507 69.4498958,22.2371814 69.4498958,20.9800637 C69.4498958,19.0572372 71.538544,18.5256363 73.9161348,18.5380579 L73.9161348,20.2842209 Z M77.6462854,16.934054 C77.6462854,13.7617008 76.3093871,10.9714286 71.7916241,10.9714286 C69.4719126,10.9714286 67.63067,11.6318467 66.62584,12.2198051 L67.3614745,14.7692352 C68.2793721,14.1821969 69.7433779,13.696142 71.1279415,13.696142 C73.4197347,13.6901612 73.7956097,15.0105374 73.7956097,15.8572803 L73.7956097,16.0576371 C68.7989239,16.0500461 65.6418919,17.8024198 65.6418919,21.3747964 C65.6418919,23.5559473 67.2498015,25.6 70.0454851,25.6 C71.7641598,25.6 73.2029711,24.9046172 74.0634433,23.7905786 L74.1485599,23.7905786 C74.1485599,23.7905786 74.7191817,26.2098113 77.8648649,25.2846279 C77.6993982,24.2777836 77.6462854,23.2044604 77.6462854,21.911458 L77.6462854,16.934054 L77.6462854,16.934054 Z" id="Fill-1" fill="#1A75CF"></path>
                    <path d="M0,6.62857143 C0,6.62857143 3.2667948,20.1257846 3.78812809,22.3166884 C4.396691,24.8738116 5.49319461,25.8146681 8.65458695,25.1800251 L10.6947152,16.8112582 C11.2117324,14.7325793 11.5586065,13.2509823 11.8909422,11.1365747 L11.9493225,11.1365747 C12.1828435,13.2718241 12.5156335,14.7392212 12.9411051,16.8188162 C12.9411051,16.8188162 13.7713767,20.6175127 14.1966211,22.6128246 C14.6230013,24.6074494 15.8094604,25.8643676 18.906112,25.1800251 L23.7668919,6.62857143 L19.8424675,6.62857143 L18.1828331,14.6489832 C17.7366899,16.983489 17.3321171,18.8079443 17.0199986,20.9436518 L16.9643443,20.9436518 C16.6803937,18.8285571 16.3196629,17.0771624 15.8660234,14.8026626 L14.1380137,6.62857143 L10.0493523,6.62857143 L8.20117464,14.5967643 C7.67756975,17.0180726 7.1875846,18.9730752 6.87614759,21.0364091 L6.82003895,21.0364091 C6.50110564,19.0933161 6.07608839,16.6362791 5.61608843,14.2923831 C5.61608843,14.2923831 4.51799469,8.59296425 4.13273053,6.62857143 L0,6.62857143" id="Fill-2" fill="#1A75CF"></path>
                    <path d="M31.1359634,20.2842209 C31.1359634,20.5425453 31.1139454,20.8089209 31.0433514,21.041942 C30.7543927,22.0117513 29.7631262,22.8313507 28.5237592,22.8313507 C27.4904994,22.8313507 26.6697025,22.2371814 26.6697025,20.9800637 C26.6697025,19.0572372 28.7582402,18.5256363 31.1359634,18.5380579 L31.1359634,20.2842209 Z M34.8656408,16.934054 C34.8656408,13.7617008 33.528895,10.9714286 29.0115613,10.9714286 C26.6912666,10.9714286 24.8494674,11.6318467 23.8454894,12.2198051 L24.5802569,14.7692352 C25.4991136,14.1821969 26.961839,13.696142 28.3471608,13.696142 C30.6406706,13.6901612 31.0158856,15.0105374 31.0158856,15.8572803 L31.0158856,16.0576371 C26.0182404,16.0500461 22.8614865,17.8024198 22.8614865,21.3747964 C22.8614865,23.5559473 24.4685777,25.6 27.2628282,25.6 C28.9829605,25.6 30.421398,24.9046172 31.2835071,23.7905786 L31.3679475,23.7905786 C31.3679475,23.7905786 31.9390551,26.2098113 35.0844595,25.2846279 C34.9192105,24.2777836 34.8656408,23.2044604 34.8656408,21.911458 L34.8656408,16.934054 L34.8656408,16.934054 Z" id="Fill-3" fill="#1A75CF"></path>
                    <polyline id="Fill-4" fill="#1A75CF" points="40.9695946 21.2118857 40.9695946 6.62857143 37.347973 6.62857143 37.347973 25.1428571 40.9695946 25.1428571 40.9695946 21.2118857"></polyline>
                    <path d="M89.6351351,6.62857143 C89.6351351,8.39679984 89.6351351,20.2251125 89.6351351,20.2251125 C89.6351351,22.099603 89.9914357,23.4129751 90.7534272,24.215288 C91.4191647,24.9170273 92.515633,25.3714286 93.8296491,25.3714286 C94.9467925,25.3714286 96.0460175,25.1614074 96.5640431,24.9702721 L96.5153418,22.0456756 C96.1298664,22.1396504 95.6865009,22.2147392 95.0800319,22.2147392 C93.7928934,22.2147392 93.3612437,21.3980912 93.3612437,19.7149635 L93.3612437,14.5133547 L96.652027,14.5133547 L96.652027,10.9869097 L93.3612437,10.9869097 L93.3612437,6.62857143 L89.6351351,6.62857143" id="Fill-5" fill="#1A75CF"></path>
                    <path d="M80.1283784,11.2841324 L80.1283784,25.1428571 L84.0072503,25.1428571 L84.0072503,18.0465524 C84.0072503,17.6637008 84.0305675,17.329816 84.0913749,17.023717 C84.3782669,15.537178 85.5196629,14.5869956 87.1575765,14.5869956 C87.6072312,14.5869956 87.9288704,14.6355069 88.277027,14.6856123 L88.277027,11.0572912 C87.9851058,10.9985311 87.7855387,10.9714286 87.4222945,10.9714286 C85.974804,10.9714286 84.3279751,11.9024798 83.636691,13.898045 L83.5313067,13.898045 L83.5313067,11.2841324 L80.1283784,11.2841324" id="Fill-6" fill="#1A75CF"></path>
                    <path d="M43.6858108,11.2841324 L43.6858108,25.1428571 L47.4358244,25.1428571 L47.4358244,17.0152902 C47.4358244,16.6342606 47.4793685,16.2315947 47.6118153,15.8810839 C47.922521,15.0627701 48.6804615,14.1055274 49.8908529,14.1055274 C51.4040123,14.1055274 52.1120584,15.3902778 52.1120584,17.2444089 L52.1120584,25.1428571 L55.8582165,25.1428571 L55.8582165,16.9171289 C55.8582165,16.5534086 55.9078841,16.115441 56.0144766,15.7938548 C56.3224607,14.8630314 57.139594,14.1055274 58.2647115,14.1055274 C59.7987358,14.1055274 60.535131,15.3677304 60.535131,17.5493692 C60.535131,17.5493692 60.535131,23.4037409 60.535131,25.1428571 L64.2837838,25.1428571 L64.2837838,16.9806718 C64.2837838,12.6759264 62.1074832,10.9714286 59.6504135,10.9714286 C58.5622632,10.9714286 57.7034001,11.2454145 56.9268627,11.7241498 C56.2741539,12.1263603 55.6897097,12.6977907 55.1789731,13.4502841 L55.1236357,13.4502841 C54.5308002,11.9566848 53.1367068,10.9714286 51.3203259,10.9714286 C48.985951,10.9714286 47.9372626,12.1593843 47.3011097,13.1671881 L47.2455455,13.1671881 L47.2455455,11.2841324 L43.6858108,11.2841324" id="Fill-7" fill="#1A75CF"></path>
                    <path d="M112.231599,13.3166866 C112.606607,12.666671 112.577584,11.9355471 112.182923,11.6113435 L105.323539,6.77425333 C104.611001,6.3592911 103.54105,6.8588082 102.93409,7.91689295 C102.325301,8.97359909 102.433165,10.1546101 103.145475,10.568883 L110.739792,14.1245533 C111.215351,14.3023942 111.861618,13.961877 112.234341,13.3120912 L112.231599,13.3166866" id="Fill-9" fill="#FDBB30"></path>
                    <path d="M121.132597,18.4573443 C121.506711,17.8063243 122.150954,17.4680605 122.626538,17.647993 L130.222395,21.1999926 C130.937713,21.6161582 131.040326,22.7977835 130.435619,23.8557771 C129.825885,24.9105534 128.754736,25.4117446 128.043531,24.9981068 L121.183561,20.1642896 C120.791164,19.8361369 120.76214,19.1053768 121.13534,18.4559655 L121.132597,18.4573443" id="Fill-12" fill="#FDBB30"></path>
                    <path d="M112.231599,18.4559655 C112.606607,19.1053768 112.577584,19.8361369 112.182923,20.1642896 L105.323539,24.9981068 C104.611001,25.4117446 103.54105,24.9105534 102.93409,23.8557771 C102.325301,22.7977835 102.433165,21.6161582 103.145475,21.1999926 L110.739792,17.647993 C111.215351,17.4680605 111.861618,17.8063243 112.234798,18.4573443 L112.231599,18.4559655" id="Fill-13" fill="#FDBB30"></path>
                    <path d="M132.536393,24.407235 L132.697324,24.407235 C132.873013,24.407235 133.026214,24.3569995 133.026214,24.2145929 C133.026214,24.1001433 132.950317,24.0212955 132.720281,24.0212955 C132.628689,24.0212955 132.575279,24.0285032 132.536393,24.0357109 L132.536393,24.407235 Z M132.536393,25.0784247 L132.29933,25.0784247 L132.29933,23.8860965 C132.429106,23.8646918 132.566846,23.8502764 132.743472,23.8502764 C132.958047,23.8502764 133.0651,23.8860965 133.148962,23.942666 C133.226266,23.9926831 133.278738,24.0857279 133.278738,24.1931882 C133.278738,24.3432394 133.164892,24.4358474 133.026214,24.4786567 L133.026214,24.4930721 C133.141701,24.5356631 133.20284,24.6287079 133.241258,24.7789775 C133.278738,24.9639752 133.302632,25.0356153 133.333319,25.0784247 L133.088057,25.0784247 C133.049639,25.0356153 133.019421,24.9285919 132.988265,24.7643437 C132.958047,24.6359156 132.873013,24.5786909 132.689594,24.5786909 L132.536393,24.5786909 L132.536393,25.0784247 Z M132.751202,23.5139171 C132.199539,23.5139171 131.778119,23.9354583 131.778119,24.4496075 C131.778119,24.9790458 132.199539,25.3922872 132.766429,25.3922872 C133.318561,25.4003686 133.724051,24.9790458 133.724051,24.4572521 C133.724051,23.9354583 133.318561,23.5139171 132.759167,23.5139171 L132.751202,23.5139171 Z M132.766429,23.3142857 C133.455833,23.3142857 134,23.8142379 134,24.4496075 C134,25.1000478 133.455833,25.6 132.759167,25.6 C132.061799,25.6 131.510135,25.1000478 131.510135,24.4496075 C131.510135,23.8142379 132.061799,23.3142857 132.759167,23.3142857 L132.766429,23.3142857 L132.766429,23.3142857 Z" id="Fill-14" fill="#FDBB30"></path>
                </g>
            </g>
        </g>
    </g>
</svg>