<?xml version="1.0" encoding="UTF-8"?>
<svg width="88px" height="21px" viewBox="0 0 88 21" version="1.1" xmlns="http://www.w3.org/2000/svg" xmlns:xlink="http://www.w3.org/1999/xlink">
    <!-- Generator: Sketch 63.1 (92452) - https://sketch.com -->
    <title>Elementos/logo/normal/Superama Copy 3</title>
    <desc>Created with Sketch.</desc>
    <g id="Inicio-BA-SP-SAMS" stroke="none" stroke-width="1" fill="none" fill-rule="evenodd">
        <g id="Elementos/logo/normal/Supercenter" transform="translate(0.000000, 0.000000)">
            <g id="Group">
                <path d="M76.1903405,7.05 C76.6716333,7.05 77.0678535,6.79539041 77.1214286,6.46531316 L77.5971284,0.986480879 C77.5971284,0.444854115 76.974833,0 76.1918124,0 C75.4102636,0 74.7888514,0.444854115 74.7888514,0.986480879 L75.2635208,6.46531316 C75.3159184,6.79539041 75.7125802,7.05 76.1921068,7.05 L76.1903405,7.05" id="Fill-8" fill="#FDBB30"></path>
                <path d="M79.097778,8.73605986 C79.3420687,9.1624818 79.7627501,9.3859462 80.0732992,9.26923808 L85.0332804,6.93582947 C85.5003725,6.66396287 85.5673771,5.8889244 85.1725127,5.195461 C84.7743651,4.50109288 84.0749208,4.17328478 83.6105148,4.44560375 L79.1310565,7.61994416 C78.8748274,7.83270278 78.8558751,8.31250285 79.0995688,8.73907558 L79.097778,8.73605986" id="Fill-10" fill="#FDBB30"></path>
                <path d="M76.1903405,13.95 C76.6716333,13.95 77.0678535,14.2036241 77.1214286,14.5333355 L77.5971284,20.0132671 C77.5971284,20.5559327 76.974833,21 76.1918124,21 C75.4102636,21 74.7888514,20.5559327 74.7888514,20.0132671 L75.2635208,14.5333355 C75.3159184,14.2036241 75.7125802,13.95 76.1921068,13.95 L76.1903405,13.95" id="Fill-11" fill="#FDBB30"></path>
                <path d="M48.2661328,13.31152 C48.2661328,13.4810454 48.2514597,13.6558543 48.2056619,13.8087744 C48.0169867,14.4452118 47.3697405,14.9830739 46.5604975,14.9830739 C45.8856836,14.9830739 45.3497454,14.5931503 45.3497454,13.7681668 C45.3497454,12.5063119 46.7136015,12.1574488 48.2661328,12.1656005 L48.2661328,13.31152 Z M50.7018655,11.1129729 C50.7018655,9.03111614 49.8288908,7.2 46.878859,7.2 C45.364122,7.2 44.1618181,7.63339938 43.5056791,8.0192471 L43.9860375,9.6923106 C44.5854109,9.3070667 45.5413848,8.98809322 46.4454842,8.98809322 C47.941991,8.98416832 48.1874317,9.85066516 48.1874317,10.4063402 L48.1874317,10.5378243 C44.9246705,10.5328427 42.8631757,11.682838 42.8631757,14.0272101 C42.8631757,15.4585904 43.9131167,16.8 45.7386563,16.8 C46.8609253,16.8 47.8004475,16.3436551 48.3623231,15.6125672 L48.4179029,15.6125672 C48.4179029,15.6125672 48.7905105,17.2001887 50.8445946,16.5930371 C50.7365473,15.9322955 50.7018655,15.2279272 50.7018655,14.3793943 L50.7018655,11.1129729 L50.7018655,11.1129729 Z" id="Fill-1" fill="#1A75CF"></path>
                <path d="M0,4.35 C0,4.35 2.13316824,13.2075462 2.4735911,14.6453268 C2.8709736,16.3234389 3.5869741,16.9408759 5.65131611,16.5243915 L6.98348939,11.0323882 C7.32109393,9.66825517 7.54759751,8.69595716 7.76460781,7.30837713 L7.80272923,7.30837713 C7.95521494,8.70963456 8.17252191,9.6726139 8.45034849,11.0373482 C8.45034849,11.0373482 8.99250341,13.5302427 9.27018167,14.8396661 C9.54860158,16.1486387 10.3233417,16.9734913 12.345409,16.5243915 L15.5194257,4.35 L12.9568351,4.35 L11.8731186,9.61339525 C11.5817938,11.1454147 11.3176138,12.3427135 11.1138051,13.7442715 L11.0774636,13.7442715 C10.8920481,12.3562406 10.6564963,11.2068878 10.3602765,9.71424731 L9.23191191,4.35 L6.56207704,4.35 L5.35524463,9.5791266 C5.01333845,11.1681101 4.69338547,12.4510806 4.49002175,13.8051435 L4.45338364,13.8051435 C4.24512495,12.5299887 3.96759503,10.9175582 3.66722192,9.3793764 C3.66722192,9.3793764 2.9501831,5.63913279 2.69861135,4.35 L0,4.35" id="Fill-2" fill="#1A75CF"></path>
                <path d="M20.3313194,13.31152 C20.3313194,13.4810454 20.3169419,13.6558543 20.2708451,13.8087744 C20.0821594,14.4452118 19.4348772,14.9830739 18.625589,14.9830739 C17.9508858,14.9830739 17.4149177,14.5931503 17.4149177,13.7681668 C17.4149177,12.5063119 18.7787016,12.1574488 20.3313194,12.1656005 L20.3313194,13.31152 Z M22.7667431,11.1129729 C22.7667431,9.03111614 21.893868,7.2 18.9441165,7.2 C17.4289987,7.2 16.2263313,7.63339938 15.5707487,8.0192471 L16.0505409,9.6923106 C16.6505406,9.3070667 17.6056785,8.98809322 18.5102729,8.98809322 C20.0079006,8.98416832 20.2529103,9.85066516 20.2529103,10.4063402 L20.2529103,10.5378243 C16.9895227,10.5328427 14.9282095,11.682838 14.9282095,14.0272101 C14.9282095,15.4585904 15.977616,16.8 17.8022199,16.8 C18.9254407,16.8 19.8647188,16.3436551 20.4276632,15.6125672 L20.4828015,15.6125672 C20.4828015,15.6125672 20.8557262,17.2001887 22.9096284,16.5930371 C22.8017233,15.9322955 22.7667431,15.2279272 22.7667431,14.3793943 L22.7667431,11.1129729 L22.7667431,11.1129729 Z" id="Fill-3" fill="#1A75CF"></path>
                <polyline id="Fill-4" fill="#1A75CF" points="26.7525338 13.9203 26.7525338 4.35 24.3876689 4.35 24.3876689 16.5 26.7525338 16.5 26.7525338 13.9203"></polyline>
                <path d="M58.5304054,4.35 C58.5304054,5.5103999 58.5304054,13.2727301 58.5304054,13.2727301 C58.5304054,14.5028645 58.7630643,15.3647649 59.2606334,15.8912827 C59.6953501,16.3517992 60.4113275,16.65 61.2693604,16.65 C61.9988384,16.65 62.7166159,16.5121736 63.0548789,16.3867411 L63.0230777,14.4674746 C62.771368,14.5291456 62.4818569,14.5784226 62.0858417,14.5784226 C61.2453595,14.5784226 60.9634987,14.0424974 60.9634987,12.9379448 L60.9634987,9.52438904 L63.1123311,9.52438904 L63.1123311,7.21015952 L60.9634987,7.21015952 L60.9634987,4.35 L58.5304054,4.35" id="Fill-5" fill="#1A75CF"></path>
                <path d="M52.3226351,7.4052119 L52.3226351,16.5 L54.8554806,16.5 L54.8554806,11.84305 C54.8554806,11.5918037 54.8707064,11.3726918 54.9104127,11.1718143 C55.0977489,10.1962731 55.8430635,9.57271588 56.9125966,9.57271588 C57.2062144,9.57271588 57.41624,9.60455137 57.6435811,9.6374331 L57.6435811,7.25634733 C57.4529609,7.21778603 57.3226465,7.2 57.0854535,7.2 C56.1402638,7.2 55.0649091,7.81100236 54.6135109,9.12059206 L54.5446966,9.12059206 L54.5446966,7.4052119 L52.3226351,7.4052119" id="Fill-6" fill="#1A75CF"></path>
                <path d="M28.5261824,7.4052119 L28.5261824,16.5 L30.9748853,16.5 L30.9748853,11.1662842 C30.9748853,10.9162335 31.003319,10.651984 31.0898048,10.4219613 C31.292691,9.88494287 31.7876148,9.25675233 32.5779823,9.25675233 C33.5660528,9.25675233 34.0283964,10.0998698 34.0283964,11.3166434 L34.0283964,16.5 L36.4745817,16.5 L36.4745817,11.1018659 C36.4745817,10.8631744 36.5070139,10.5757582 36.5766172,10.3647172 C36.7777262,9.75386433 37.3113021,9.25675233 38.045987,9.25675233 C39.047682,9.25675233 39.528537,10.085073 39.528537,11.5167735 C39.528537,11.5167735 39.528537,15.358705 39.528537,16.5 L41.9763514,16.5 L41.9763514,11.1435659 C41.9763514,8.31857673 40.5552595,7.2 38.9508297,7.2 C38.2402838,7.2 37.679459,7.37980329 37.1723917,7.69397329 C36.7461826,7.95792392 36.3645493,8.33292512 36.0310459,8.82674895 L35.9949114,8.82674895 C35.6077986,7.84657442 34.6974765,7.2 33.5114068,7.2 C31.9870948,7.2 31.302317,7.97959597 30.8869186,8.64096717 L30.8506361,8.64096717 L30.8506361,7.4052119 L28.5261824,7.4052119" id="Fill-7" fill="#1A75CF"></path>
                <path d="M73.2855588,8.73907558 C73.5304336,8.31250285 73.5114823,7.83270278 73.2537743,7.61994416 L68.7746991,4.44560375 C68.3094221,4.17328478 67.6107603,4.50109288 67.2144243,5.195461 C66.8168944,5.8889244 66.8873276,6.66396287 67.3524555,6.93582947 L72.3114316,9.26923808 C72.6219645,9.3859462 73.0439669,9.1624818 73.2873495,8.73605986 L73.2855588,8.73907558" id="Fill-9" fill="#FDBB30"></path>
                <path d="M79.097778,12.1126322 C79.3420687,11.6854003 79.7627501,11.4634147 80.0732992,11.5814954 L85.0332804,13.9124952 C85.5003725,14.1856038 85.5673771,14.9610454 85.1725127,15.6553537 C84.7743651,16.3475507 84.0749208,16.6764574 83.6105148,16.4050076 L79.1310565,13.232815 C78.8748274,13.0174648 78.8558751,12.5379035 79.0995688,12.1117273 L79.097778,12.1126322" id="Fill-12" fill="#FDBB30"></path>
                <path d="M73.2855588,12.1117273 C73.5304336,12.5379035 73.5114823,13.0174648 73.2537743,13.232815 L68.7746991,16.4050076 C68.3094221,16.6764574 67.6107603,16.3475507 67.2144243,15.6553537 C66.8168944,14.9610454 66.8873276,14.1856038 67.3524555,13.9124952 L72.3114316,11.5814954 C72.6219645,11.4634147 73.0439669,11.6854003 73.2876479,12.1126322 L73.2855588,12.1117273" id="Fill-13" fill="#FDBB30"></path>
                <path d="M86.5442867,16.017248 L86.6493723,16.017248 C86.7640946,16.017248 86.8641325,15.9842809 86.8641325,15.8908266 C86.8641325,15.8157191 86.8145724,15.7639752 86.6643627,15.7639752 C86.6045541,15.7639752 86.5696785,15.7687052 86.5442867,15.7734353 L86.5442867,16.017248 Z M86.5442867,16.4577162 L86.389488,16.4577162 L86.389488,15.6752508 C86.4742296,15.661204 86.5641719,15.6517439 86.679506,15.6517439 C86.8196202,15.6517439 86.8895243,15.6752508 86.9442851,15.7123746 C86.9947629,15.7451983 87.0290267,15.806259 87.0290267,15.8767797 C87.0290267,15.9752508 86.9546866,16.0360248 86.8641325,16.0641185 L86.8641325,16.0735786 C86.9395433,16.1015289 86.9794666,16.1625896 87.0045526,16.261204 C87.0290267,16.3826087 87.0446289,16.4296226 87.0646671,16.4577162 L86.9045147,16.4577162 C86.8794288,16.4296226 86.8596965,16.3593884 86.8393525,16.2516006 C86.8196202,16.1673196 86.7640946,16.1297659 86.6443245,16.1297659 L86.5442867,16.1297659 L86.5442867,16.4577162 Z M86.6845538,15.4310081 C86.3243258,15.4310081 86.0491452,15.7076445 86.0491452,16.0450549 C86.0491452,16.3924988 86.3243258,16.6636885 86.6944964,16.6636885 C87.0550304,16.6689919 87.3198095,16.3924988 87.3198095,16.0500717 C87.3198095,15.7076445 87.0550304,15.4310081 86.6897546,15.4310081 L86.6845538,15.4310081 Z M86.6944964,15.3 C87.1446668,15.3 87.5,15.6280936 87.5,16.0450549 C87.5,16.4719064 87.1446668,16.8 86.6897546,16.8 C86.2343835,16.8 85.8741554,16.4719064 85.8741554,16.0450549 C85.8741554,15.6280936 86.2343835,15.3 86.6897546,15.3 L86.6944964,15.3 L86.6944964,15.3 Z" id="Fill-14" fill="#FDBB30"></path>
            </g>
        </g>
    </g>
</svg>