<?xml version="1.0" encoding="utf-8"?>
<!-- Generator: Adobe Illustrator 25.1.0, SVG Export Plug-In . SVG Version: 6.00 Build 0)  -->
<svg version="1.1" id="Capa_1" xmlns="http://www.w3.org/2000/svg" xmlns:xlink="http://www.w3.org/1999/xlink" x="0px" y="0px"
	 viewBox="0 0 48 48" style="enable-background:new 0 0 48 48;" xml:space="preserve">
<desc>Created with Sketch.</desc>
<g>
	<g>
		<path class="st0" d="M22.3,15.8c0,1.2-0.2,2.3-0.6,3.3c-0.4,1-0.9,1.8-1.6,2.5c-0.7,0.7-1.4,1.2-2.3,1.6c-0.9,0.4-1.8,0.5-2.7,0.5
			c-1,0-2-0.2-2.8-0.5c-0.9-0.4-1.6-0.9-2.3-1.6c-0.6-0.7-1.1-1.5-1.5-2.5C8.2,18.1,8,17,8,15.8c0-1.2,0.2-2.4,0.5-3.3
			s0.9-1.8,1.5-2.5c0.6-0.7,1.4-1.2,2.3-1.6c0.9-0.4,1.8-0.5,2.8-0.5s2,0.2,2.8,0.5c0.9,0.4,1.6,0.9,2.3,1.6
			c0.6,0.7,1.1,1.5,1.5,2.5C22.1,13.5,22.3,14.6,22.3,15.8z M33.1,9c0.2-0.2,0.4-0.4,0.6-0.5c0.2-0.2,0.5-0.2,1-0.2h3.4L14.8,39
			c-0.2,0.2-0.4,0.4-0.6,0.5c-0.2,0.1-0.5,0.2-0.9,0.2H9.9L33.1,9z M18.7,15.8c0-0.9-0.1-1.6-0.3-2.3c-0.2-0.6-0.4-1.1-0.7-1.5
			c-0.3-0.4-0.7-0.7-1.1-0.8S15.7,11,15.2,11c-0.5,0-1,0.1-1.4,0.3c-0.4,0.2-0.8,0.4-1.1,0.8S12.2,13,12,13.6
			c-0.2,0.6-0.3,1.4-0.3,2.3c0,0.9,0.1,1.6,0.3,2.2c0.2,0.6,0.4,1.1,0.7,1.5c0.3,0.4,0.7,0.6,1.1,0.8c0.4,0.2,0.9,0.2,1.4,0.2
			c0.5,0,0.9-0.1,1.4-0.2c0.4-0.2,0.8-0.4,1.1-0.8c0.3-0.4,0.6-0.9,0.7-1.5C18.6,17.4,18.7,16.7,18.7,15.8z M40,32.3
			c0,1.2-0.2,2.3-0.6,3.3c-0.4,1-0.9,1.8-1.6,2.5c-0.7,0.7-1.4,1.2-2.3,1.5c-0.9,0.4-1.8,0.5-2.7,0.5c-1,0-2-0.2-2.8-0.5
			c-0.9-0.4-1.6-0.9-2.3-1.5c-0.6-0.7-1.1-1.5-1.5-2.5c-0.4-1-0.5-2-0.5-3.3c0-1.2,0.2-2.4,0.5-3.3c0.4-1,0.9-1.8,1.5-2.5
			c0.6-0.7,1.4-1.2,2.3-1.6c0.9-0.4,1.8-0.5,2.8-0.5c1,0,2,0.2,2.8,0.5c0.9,0.4,1.6,0.9,2.3,1.6c0.6,0.7,1.1,1.5,1.5,2.5
			C39.8,30,40,31.1,40,32.3z M36.3,32.3c0-0.9-0.1-1.6-0.3-2.3c-0.2-0.6-0.4-1.1-0.8-1.5c-0.3-0.4-0.7-0.7-1.1-0.8
			c-0.4-0.2-0.9-0.3-1.4-0.3c-0.5,0-0.9,0.1-1.4,0.3c-0.4,0.2-0.8,0.4-1.1,0.8c-0.3,0.4-0.6,0.9-0.7,1.5c-0.2,0.6-0.3,1.4-0.3,2.3
			c0,0.9,0.1,1.6,0.3,2.2c0.2,0.6,0.4,1.1,0.7,1.5c0.3,0.4,0.7,0.6,1.1,0.8c0.4,0.2,0.9,0.2,1.4,0.2c0.5,0,0.9-0.1,1.4-0.2
			c0.4-0.2,0.8-0.4,1.1-0.8c0.3-0.4,0.6-0.9,0.8-1.5C36.2,33.9,36.3,33.2,36.3,32.3z"/>
	</g>
</g>
</svg>
