<?xml version="1.0" encoding="UTF-8"?>
<svg width="169px" height="36px" viewBox="0 0 169 36" version="1.1" xmlns="http://www.w3.org/2000/svg" xmlns:xlink="http://www.w3.org/1999/xlink">
    <!-- Generator: Sketch 63.1 (92452) - https://sketch.com -->
    <title>Elementos/logo/normal/Superama Copy</title>
    <desc>Created with Sketch.</desc>
    <g id="Inicio-BA-SP-SAMS" stroke="none" stroke-width="1" fill="none" fill-rule="evenodd">
        <g id="Elementos/logo/normal/Superama" transform="translate(-1.000000, -10.000000)">
            <g id="Superama" transform="translate(0.000000, 9.837963)">
                <path d="M154.44891,7.03647 C155.31642,3.82347 153.48501,0.61047 149.53302,1.12455 C145.7631,1.62792 143.26767,3.47004 143.44974,5.90121 C143.463676,6.11143884 143.499571,6.31963244 143.55684,6.52239 C144.760472,6.03281021 146.048818,5.78533145 147.34818,5.79411 C149.313697,5.79787101 151.213068,6.50443689 152.70318,7.78617 C153.196211,7.36600348 153.804731,7.10467594 154.44891,7.03647 L154.44891,7.03647 Z" id="Path" fill="#DB812D" fill-rule="nonzero"></path>
                <path d="M160.26444,1.12455 C156.31245,0.59976 154.48104,3.79134 155.34855,7.03647 C156.005913,7.09055593 156.628808,7.35322279 157.12641,7.78617 C158.618943,6.50854323 160.516744,5.80256103 162.48141,5.79411 C163.780772,5.78533145 165.069118,6.03281021 166.27275,6.52239 C166.330019,6.31963244 166.365914,6.11143884 166.37985,5.90121 C166.52979,3.47004 164.03436,1.62792 160.26444,1.12455 Z" id="Path" fill="#DB812D" fill-rule="nonzero"></path>
                <path d="M163.07046,6.58665 C161.059476,6.53059249 159.097516,7.21251651 157.55481,8.50374 C157.565272,8.59268339 157.565272,8.68254661 157.55481,8.77149 C157.5466,9.10975817 157.408541,9.43189631 157.16925,9.67113 C160.01811,10.36728 162.07443,12.32721 162.07443,14.62986 C162.070931,15.0984672 161.983888,15.562695 161.81739,16.00074 C162.222232,16.0530435 162.63013,16.0780899 163.03833,16.07571 C166.84038,16.07571 169.92486,13.93371 169.92486,11.33118 C169.92486,8.72865 166.87251,6.58665 163.07046,6.58665 Z" id="Path" fill="#DB812D" fill-rule="nonzero"></path>
                <path d="M156.45168,10.19592 C155.966911,10.4270103 155.435733,10.5442357 154.89873,10.53864 C154.359667,10.5420224 153.82625,10.4287627 153.33507,10.20663 C150.56118,10.71 148.50486,12.5307 148.50486,14.70483 C148.50486,17.27523 151.36443,19.35297 154.93086,19.35297 C158.49729,19.35297 161.35686,17.27523 161.35686,14.70483 C161.2926,12.5307 159.23628,10.71 156.45168,10.19592 Z" id="Path" fill="#DB812D" fill-rule="nonzero"></path>
                <path d="M152.24265,8.50374 C150.702451,7.20809985 148.738757,6.52557287 146.727,6.58665 C142.92495,6.58665 139.84047,8.72865 139.84047,11.33118 C139.84047,13.93371 142.92495,16.065 146.727,16.065 C147.1352,16.0673799 147.543098,16.0423335 147.94794,15.99003 C147.781442,15.551985 147.694399,15.0877572 147.6909,14.61915 C147.6909,12.3165 149.74722,10.33515 152.59608,9.66042 C152.3549,9.4224702 152.216497,9.09953088 152.21052,8.76078 C152.211481,8.67416102 152.22226,8.58793026 152.24265,8.50374 L152.24265,8.50374 Z" id="Path" fill="#DB812D" fill-rule="nonzero"></path>
                <path d="M13.923,17.22168 C11.96307,16.51482 8.96427,16.43985 8.96427,14.91903 C8.96427,13.6017 10.30302,13.29111 11.34189,13.29111 C11.9738531,13.2500816 12.602863,13.4073341 13.14117,13.74093 C13.6496681,14.1328436 13.9141767,14.763595 13.83732,15.40098 L19.52433,15.40098 C19.64214,10.46367 15.79725,8.86788 11.54538,8.86788 C7.497,8.86788 3.213,10.94562 3.213,15.45453 C3.213,18.78534 5.55849,20.08125 8.00037,20.89521 C10.77426,21.81627 12.81987,21.96621 12.81987,23.46561 C12.81987,24.96501 11.33118,25.40412 10.13166,25.40412 C9.33936648,25.5042844 8.53686768,25.3263719 7.86114,24.90075 C7.30109571,24.2836734 7.02528788,23.4601346 7.10073,22.63023 L1.071,22.63023 C0.82467,27.72819 4.96944,29.82735 9.56403,29.82735 C13.90158,29.82735 18.58185,27.55683 18.58185,22.73733 C18.59256,20.349 17.41446,18.45333 13.923,17.22168 Z" id="Path" fill="#1779BF" fill-rule="nonzero"></path>
                <path d="M30.75912,14.81193 L29.49534,20.72385 C29.04552,22.56597 28.93842,25.28631 26.44299,25.28631 C26.0470151,25.3280292 25.651362,25.2046069 25.3493378,24.9451499 C25.0473136,24.6856928 24.865654,24.3131687 24.8472,23.91543 C24.8571799,23.4045045 24.9327688,22.8969789 25.07211,22.40532 L26.70003,14.81193 L21.15225,14.81193 C19.47078,22.82301 19.01025,24.59016 19.01025,25.85394 C19.01025,28.62783 21.15225,29.7203221 23.63697,29.7203221 C25.4525118,29.7291493 27.1740089,28.9137033 28.31724,27.50328 L28.31724,27.50328 L27.86742,29.35611 L33.22242,29.35611 L36.3069,14.81193 L30.75912,14.81193 Z" id="Path" fill="#1779BF" fill-rule="nonzero"></path>
                <path d="M47.34891,14.44779 C45.7870612,14.3924756 44.3094201,15.1556529 43.45047,16.46127 L43.45047,16.46127 L43.79319,14.81193 L38.43819,14.81193 L34.272,34.0578 L39.81978,34.0578 L41.13711,27.6318 C42.0481277,29.1459969 43.7629839,29.9845574 45.5175,29.7738 C50.4441,29.7738 52.60752,24.78294 52.60752,20.46681 C52.65036,17.83215 51.408,14.44779 47.34891,14.44779 Z M44.17875,25.704 C42.35805,25.704 42.16527,23.85117 42.16527,23.31567 C42.16527,22.03047 42.61509,18.50688 45.07839,18.50688 C46.70631,18.50688 47.09187,19.65285 47.09187,21.07728 C47.124,22.94082 46.39572,25.704 44.17875,25.704 Z" id="Shape" fill="#1779BF" fill-rule="nonzero"></path>
                <path d="M68.92956,20.80953 C68.92956,16.23636 65.03112,14.44779 61.80741,14.44779 C58.19814,14.44779 53.10018,16.58979 53.10018,23.29425 C53.10018,26.82855 55.16721,29.72025 60.32943,29.72025 C66.60549,29.72025 67.69791,26.10027 68.06205,25.12566 L62.70705,25.12566 C62.236553,25.8407016 61.4193815,26.2492874 60.56505,26.19666 C58.81932,26.19666 58.29453,24.91146 58.29453,23.36922 L68.6511,23.36922 C68.8628917,22.533161 68.9566209,21.671573 68.92956,20.80953 Z M63.68166,20.44539 L58.75506,20.44539 C58.9827111,19.0284661 60.2117225,17.9906342 61.64676,18.00351 C62.2020257,17.9302252 62.7612773,18.1062345 63.1744862,18.4843207 C63.5876951,18.8624068 63.812561,19.403865 63.78876,19.96344 C63.7691484,20.1272472 63.7332714,20.2886939 63.68166,20.44539 Z" id="Shape" fill="#1779BF" fill-rule="nonzero"></path>
                <path d="M82.97037,14.6727 C82.3344709,14.4874778 81.6717666,14.4114298 81.01044,14.44779 C79.2484548,14.6061 77.6626294,15.5813826 76.72644,17.08245 L76.67289,17.08245 L77.15484,14.81193 L71.79984,14.81193 L68.80104,29.35611 L74.34882,29.35611 L75.6126,23.27283 C76.2552,20.22048 77.4333,19.20303 79.7895,19.20303 C80.5201408,19.1992441 81.2455669,19.3261937 81.9315,19.57788 L82.97037,14.6727 Z" id="Path" fill="#1779BF" fill-rule="nonzero"></path>
                <path d="M96.70059,18.3141 C96.70059,14.7798 92.26665,14.44779 89.63199,14.44779 C86.07627,14.44779 83.07747,15.34743 82.20996,19.20303 L87.41502,19.20303 C87.6673198,18.2159256 88.6237783,17.5782866 89.63199,17.72505 C90.47808,17.72505 91.36701,17.97138 91.36701,18.98883 C91.36701,20.7774 88.87158,20.55249 87.30792,20.6703 C83.13102,20.97018 80.27145,22.00905 80.27145,25.85394 C80.27145,28.62783 82.48842,29.72025 84.98385,29.72025 C86.6567052,29.7781118 88.2783363,29.1379943 89.46063,27.9531 L89.52489,27.9531 C89.5031947,28.4286066 89.5685265,28.9040775 89.71767,29.35611 L95.15835,29.35611 C94.93344,28.68138 95.04054,29.18475 94.93344,28.0602 C94.93344,27.10701 96.70059,20.58462 96.70059,18.3141 Z M87.58638,26.44299 C86.68674,26.44299 85.81923,26.18595 85.81923,25.17921 C85.81923,24.17247 86.68674,23.63697 87.61851,23.55129 C88.6318921,23.5238576 89.631048,23.30586 90.56376,22.90869 C90.22104,25.0614 89.46063,26.44299 87.58638,26.44299 Z" id="Shape" fill="#1779BF" fill-rule="nonzero"></path>
                <path d="M117.93852,14.44779 C116.058954,14.4553654 114.29288,15.3483244 113.17257,16.85754 C112.80843,15.05826 111.15909,14.44779 109.25271,14.44779 C107.46248,14.4703118 105.779663,15.305809 104.67954,16.71831 L104.67954,16.71831 L105.0651,14.81193 L99.603,14.81193 L96.61491,29.35611 L102.16269,29.35611 L103.95126,21.03444 C104.04143,19.8200355 105.057616,18.8834593 106.27533,18.89244 C107.17497,18.89244 107.67834,19.31013 107.67834,20.2419 C107.64696,20.6943875 107.571635,21.1427491 107.45343,21.58065 L105.77196,29.37753 L111.31974,29.37753 L113.22612,20.57391 C113.395384,19.5423682 114.325889,18.8119215 115.36812,18.89244 C115.740977,18.8664002 116.106699,19.003968 116.369961,19.2692865 C116.633223,19.534605 116.767941,19.9013866 116.739,20.27403 C116.667611,20.9942299 116.553166,21.7095096 116.39628,22.41603 L114.9183,29.36682 L120.46608,29.36682 L122.23323,21.06657 C122.397745,20.3113636 122.508691,19.5454764 122.565427,18.77463 C122.58666,15.76512 120.76596,14.44779 117.93852,14.44779 Z" id="Path" fill="#1779BF" fill-rule="nonzero"></path>
                <path d="M139.03722,18.3141 C139.03722,14.7798 134.60328,14.44779 131.96862,14.44779 C128.4129,14.44779 125.4141,15.34743 124.54659,19.20303 L129.76236,19.20303 C130.009977,18.2175103 130.963009,17.5790716 131.96862,17.72505 C132.81471,17.72505 133.71435,17.97138 133.71435,18.98883 C133.71435,20.7774 131.21892,20.55249 129.64455,20.6703 C125.46765,20.97018 122.61879,22.00905 122.61879,25.85394 C122.61879,28.62783 124.82505,29.72025 127.32048,29.72025 C128.996119,29.7759273 130.62022,29.1363647 131.80797,27.9531 L131.86152,27.9531 C131.839825,28.4286066 131.905157,28.9040775 132.0543,29.35611 L137.49498,29.35611 C137.27007,28.68138 137.37717,29.18475 137.27007,28.0602 C137.27007,27.10701 139.03722,20.58462 139.03722,18.3141 Z M129.92301,26.44299 C129.03408,26.44299 128.16657,26.18595 128.16657,25.17921 C128.16657,24.17247 129.03408,23.63697 129.95514,23.55129 C130.968522,23.5238576 131.967678,23.30586 132.90039,22.90869 C132.55767,25.0614 131.80797,26.44299 129.92301,26.44299 L129.92301,26.44299 Z" id="Shape" fill="#1779BF" fill-rule="nonzero"></path>
                <path d="M141.95034,17.42517 C141.268319,17.4208396 140.651241,17.8289208 140.388239,18.4582069 C140.125236,19.087493 140.268414,19.8133136 140.750685,20.2955849 C141.232956,20.7778563 141.958777,20.9210337 142.588063,20.6580312 C143.217349,20.3950287 143.62543,19.777951 143.6211,19.09593 C143.6211,18.1731947 142.873075,17.42517 141.95034,17.42517 L141.95034,17.42517 Z M141.95034,20.57391 C141.351597,20.5782488 140.809394,20.2209145 140.577252,19.6689889 C140.345111,19.1170634 140.468903,18.4796092 140.890747,18.0546863 C141.312591,17.6297635 141.949128,17.5013384 142.502727,17.7294598 C143.056326,17.9575813 143.41761,18.4971717 143.41761,19.09593 C143.41761,19.9080315 142.76242,20.5680252 141.95034,20.57391 L141.95034,20.57391 Z" id="Shape" fill="#1779BF" fill-rule="nonzero"></path>
                <path d="M142.80714,18.65682 C142.814091,18.4953796 142.731814,18.343166 142.59294,18.26055 C142.455388,18.1858356 142.299209,18.1523688 142.14312,18.16416 L141.372,18.16416 L141.372,20.03841 L141.59691,20.03841 L141.59691,19.1709 L142.0146,19.1709 L142.5501,20.03841 L142.82856,20.03841 L142.26093,19.1709 C142.5501,19.16019 142.80714,19.03167 142.80714,18.65682 Z M141.9075,18.99954 L141.55407,18.99954 L141.55407,18.33552 L142.08957,18.33552 C142.32519,18.33552 142.57152,18.33552 142.57152,18.65682 C142.57152,18.97812 142.16454,18.99954 141.9075,18.99954 L141.9075,18.99954 Z" id="Shape" fill="#1779BF" fill-rule="nonzero"></path>
                <path d="M156.75156,8.77149 C156.75156,9.44622 155.92689,9.98172 154.89873,9.98172 C153.87057,9.98172 153.0459,9.44622 153.0459,8.77149 C153.0459,8.09676 153.87057,7.56126 154.89873,7.56126 C155.92689,7.56126 156.75156,8.10747 156.75156,8.77149 Z" id="Path" fill="#1779BF" fill-rule="nonzero"></path>
                <path d="M110.07738,32.72976 C122.05116,36.88524 144.14589,39.07008 152.91738,19.87776 C152.22123,19.79208 151.48224,19.66356 151.02171,19.58859 C150.56118,20.43468 140.00112,41.39415 111.98376,29.50605 C111.31974,30.59847 110.69856,31.74444 110.07738,32.72976 Z" id="Path" fill="#1779BF" fill-rule="nonzero"></path>
            </g>
        </g>
    </g>
</svg>