<?xml version="1.0" encoding="UTF-8"?>
<svg width="90px" height="20px" viewBox="0 0 90 20" version="1.1" xmlns="http://www.w3.org/2000/svg" xmlns:xlink="http://www.w3.org/1999/xlink">
    <!-- Generator: Sketch 63.1 (92452) - https://sketch.com -->
    <title>Elementos/logo/normal/Superama Copy 2</title>
    <desc>Created with Sketch.</desc>
    <g id="HUB" stroke="none" stroke-width="1" fill="none" fill-rule="evenodd">
        <g id="Elementos/logo/normal/Superama" transform="translate(0.000000, -5.000000)">
            <g id="Superama" transform="translate(0.000000, 5.208333)">
                <path d="M81.76707,3.72519 C82.22634,2.02419 81.25677,0.32319 79.16454,0.59535 C77.1687,0.86184 75.84759,1.83708 75.94398,3.12417 C75.9513576,3.23546762 75.9703611,3.34568776 76.00068,3.45303 C76.6378972,3.1938407 77.3199623,3.06282253 78.00786,3.06747 C79.0484281,3.06946112 80.0539772,3.44352541 80.84286,4.12209 C81.1038763,3.8996489 81.4260338,3.76129903 81.76707,3.72519 L81.76707,3.72519 Z" id="Path" fill="#DB812D" fill-rule="nonzero"></path>
                <path d="M84.84588,0.59535 C82.75365,0.31752 81.78408,2.00718 82.24335,3.72519 C82.5913655,3.75382373 82.9211338,3.89288265 83.18457,4.12209 C83.9747343,3.44569936 84.9794528,3.07194407 86.01957,3.06747 C86.7074677,3.06282253 87.3895328,3.1938407 88.02675,3.45303 C88.0570689,3.34568776 88.0760724,3.23546762 88.08345,3.12417 C88.16283,1.83708 86.84172,0.86184 84.84588,0.59535 Z" id="Path" fill="#DB812D" fill-rule="nonzero"></path>
                <path d="M86.33142,3.48705 C85.2667814,3.4573725 84.2280966,3.8183911 83.41137,4.50198 C83.4169088,4.54906768 83.4169088,4.59664232 83.41137,4.64373 C83.4070234,4.82281315 83.3339333,4.99335687 83.20725,5.12001 C84.71547,5.48856 85.80411,6.52617 85.80411,7.74522 C85.8022573,7.99330618 85.7561759,8.2390738 85.66803,8.47098 C85.8823581,8.49867008 86.0983043,8.51192994 86.31441,8.51067 C88.32726,8.51067 89.96022,7.37667 89.96022,5.99886 C89.96022,4.62105 88.34427,3.48705 86.33142,3.48705 Z" id="Path" fill="#DB812D" fill-rule="nonzero"></path>
                <path d="M82.82736,5.39784 C82.5707175,5.52018194 82.2895059,5.58224244 82.00521,5.57928 C81.7198235,5.5810707 81.4374265,5.52110969 81.17739,5.40351 C79.70886,5.67 78.62022,6.6339 78.62022,7.78491 C78.62022,9.14571 80.13411,10.24569 82.02222,10.24569 C83.91033,10.24569 85.42422,9.14571 85.42422,7.78491 C85.3902,6.6339 84.30156,5.67 82.82736,5.39784 Z" id="Path" fill="#DB812D" fill-rule="nonzero"></path>
                <path d="M80.59905,4.50198 C79.7836508,3.81605286 78.7440476,3.45471505 77.679,3.48705 C75.66615,3.48705 74.03319,4.62105 74.03319,5.99886 C74.03319,7.37667 75.66615,8.505 77.679,8.505 C77.8951057,8.50625994 78.1110519,8.49300008 78.32538,8.46531 C78.2372341,8.2334038 78.1911527,7.98763618 78.1893,7.73955 C78.1893,6.5205 79.27794,5.47155 80.78616,5.11434 C80.6584765,4.98836657 80.5852045,4.8173987 80.58204,4.63806 C80.5825486,4.59220289 80.5882551,4.54655131 80.59905,4.50198 L80.59905,4.50198 Z" id="Path" fill="#DB812D" fill-rule="nonzero"></path>
                <path d="M7.371,9.11736 C6.33339,8.74314 4.74579,8.70345 4.74579,7.89831 C4.74579,7.2009 5.45454,7.03647 6.00453,7.03647 C6.33909869,7.01474908 6.67210394,7.09800039 6.95709,7.27461 C7.22629487,7.4820937 7.36632885,7.81602087 7.32564,8.15346 L10.33641,8.15346 C10.39878,5.53959 8.36325,4.69476 6.11226,4.69476 C3.969,4.69476 1.701,5.79474 1.701,8.18181 C1.701,9.94518 2.94273,10.63125 4.23549,11.06217 C5.70402,11.54979 6.78699,11.62917 6.78699,12.42297 C6.78699,13.21677 5.99886,13.44924 5.36382,13.44924 C4.94437049,13.5022682 4.51951818,13.4080793 4.16178,13.18275 C3.86528596,12.8560624 3.71927005,12.4200712 3.75921,11.98071 L0.567,11.98071 C0.43659,14.67963 2.63088,15.79095 5.06331,15.79095 C7.35966,15.79095 9.83745,14.58891 9.83745,12.03741 C9.84312,10.773 9.21942,9.76941 7.371,9.11736 Z" id="Path" fill="#1779BF" fill-rule="nonzero"></path>
                <path d="M16.28424,7.84161 L15.61518,10.97145 C15.37704,11.94669 15.32034,13.38687 13.99923,13.38687 C13.7895962,13.4089566 13.5801328,13.3436154 13.4202377,13.2062558 C13.2603425,13.0688962 13.1641698,12.8716775 13.1544,12.66111 C13.1596835,12.39062 13.1997011,12.12193 13.27347,11.86164 L14.13531,7.84161 L11.19825,7.84161 C10.30806,12.08277 10.06425,13.01832 10.06425,13.68738 C10.06425,15.15591 11.19825,15.7342882 12.51369,15.7342882 C13.4748592,15.7389614 14.38624,15.3072547 14.99148,14.56056 L14.99148,14.56056 L14.75334,15.54147 L17.58834,15.54147 L19.2213,7.84161 L16.28424,7.84161 Z" id="Path" fill="#1779BF" fill-rule="nonzero"></path>
                <path d="M25.06707,7.64883 C24.2402089,7.6195459 23.4579283,8.02358093 23.00319,8.71479 L23.00319,8.71479 L23.18463,7.84161 L20.34963,7.84161 L18.144,18.0306 L21.08106,18.0306 L21.77847,14.6286 C22.2607735,15.4302336 23.1686385,15.8741774 24.0975,15.7626 C26.7057,15.7626 27.85104,13.12038 27.85104,10.83537 C27.87372,9.44055 27.216,7.64883 25.06707,7.64883 Z M23.38875,13.608 C22.42485,13.608 22.32279,12.62709 22.32279,12.34359 C22.32279,11.66319 22.56093,9.79776 23.86503,9.79776 C24.72687,9.79776 24.93099,10.40445 24.93099,11.15856 C24.948,12.14514 24.56244,13.608 23.38875,13.608 Z" id="Shape" fill="#1779BF" fill-rule="nonzero"></path>
                <path d="M36.49212,11.01681 C36.49212,8.59572 34.42824,7.64883 32.72157,7.64883 C30.81078,7.64883 28.11186,8.78283 28.11186,12.33225 C28.11186,14.20335 29.20617,15.73425 31.93911,15.73425 C35.26173,15.73425 35.84007,13.81779 36.03285,13.30182 L33.19785,13.30182 C32.9487633,13.6803714 32.5161431,13.8966815 32.06385,13.86882 C31.13964,13.86882 30.86181,13.18842 30.86181,12.37194 L36.3447,12.37194 C36.456825,11.9293205 36.5064464,11.4731857 36.49212,11.01681 Z M33.71382,10.82403 L31.10562,10.82403 C31.2261412,10.0738938 31.8767943,9.52445341 32.63652,9.53127 C32.9304842,9.49247215 33.2265586,9.58565359 33.4453162,9.78581682 C33.6640739,9.98598006 33.7831206,10.2726344 33.77052,10.56888 C33.7601374,10.6556014 33.7411437,10.7410732 33.71382,10.82403 Z" id="Shape" fill="#1779BF" fill-rule="nonzero"></path>
                <path d="M43.92549,7.7679 C43.5888375,7.6698412 43.2379941,7.62958048 42.88788,7.64883 C41.9550643,7.73264119 41.1155097,8.24896728 40.61988,9.04365 L40.59153,9.04365 L40.84668,7.84161 L38.01168,7.84161 L36.42408,15.54147 L39.36114,15.54147 L40.0302,12.32091 C40.3704,10.70496 40.9941,10.16631 42.2415,10.16631 C42.6283098,10.1643057 43.0123589,10.2315143 43.3755,10.36476 L43.92549,7.7679 Z" id="Path" fill="#1779BF" fill-rule="nonzero"></path>
                <path d="M51.19443,9.6957 C51.19443,7.8246 48.84705,7.64883 47.45223,7.64883 C45.56979,7.64883 43.98219,8.12511 43.52292,10.16631 L46.27854,10.16631 C46.4121105,9.64372531 46.9184709,9.30615174 47.45223,9.38385 C47.90016,9.38385 48.37077,9.51426 48.37077,10.05291 C48.37077,10.9998 47.04966,10.88073 46.22184,10.9431 C44.01054,11.10186 42.49665,11.65185 42.49665,13.68738 C42.49665,15.15591 43.67034,15.73425 44.99145,15.73425 C45.8770792,15.7648827 46.7355898,15.425997 47.36151,14.7987 L47.39553,14.7987 C47.3840442,15.0504388 47.4186317,15.3021587 47.49759,15.54147 L50.37795,15.54147 C50.25888,15.18426 50.31558,15.45075 50.25888,14.8554 C50.25888,14.35077 51.19443,10.89774 51.19443,9.6957 Z M46.36926,13.99923 C45.89298,13.99923 45.43371,13.86315 45.43371,13.33017 C45.43371,12.79719 45.89298,12.51369 46.38627,12.46833 C46.9227664,12.453807 47.4517313,12.3383965 47.94552,12.12813 C47.76408,13.2678 47.36151,13.99923 46.36926,13.99923 Z" id="Shape" fill="#1779BF" fill-rule="nonzero"></path>
                <path d="M62.43804,7.64883 C61.4429757,7.65284049 60.5079951,8.1255835 59.91489,8.92458 C59.72211,7.97202 58.84893,7.64883 57.83967,7.64883 C56.8919014,7.66075331 56.000998,8.10307536 55.41858,8.85087 L55.41858,8.85087 L55.6227,7.84161 L52.731,7.84161 L51.14907,15.54147 L54.08613,15.54147 L55.03302,11.13588 C55.0807573,10.49296 55.6187377,9.9971255 56.26341,10.00188 C56.73969,10.00188 57.00618,10.22301 57.00618,10.7163 C56.989567,10.9558522 56.9496892,11.1932201 56.88711,11.42505 L55.99692,15.55281 L58.93398,15.55281 L59.94324,10.89207 C60.0328502,10.3459596 60.5254706,9.95925258 61.07724,10.00188 C61.274635,9.98809421 61.4682527,10.0609242 61.6076265,10.201387 C61.7470004,10.3418497 61.8183215,10.5360282 61.803,10.73331 C61.7652057,11.1145923 61.7046173,11.4932698 61.62156,11.86731 L60.8391,15.54714 L63.77616,15.54714 L64.71171,11.15289 C64.7988062,10.7530749 64.8575425,10.3476051 64.887579,9.93951 C64.89882,8.34624 63.93492,7.64883 62.43804,7.64883 Z" id="Path" fill="#1779BF" fill-rule="nonzero"></path>
                <path d="M73.60794,9.6957 C73.60794,7.8246 71.26056,7.64883 69.86574,7.64883 C67.9833,7.64883 66.3957,8.12511 65.93643,10.16631 L68.69772,10.16631 C68.8288115,9.64456427 69.3333577,9.3065673 69.86574,9.38385 C70.31367,9.38385 70.78995,9.51426 70.78995,10.05291 C70.78995,10.9998 69.46884,10.88073 68.63535,10.9431 C66.42405,11.10186 64.91583,11.65185 64.91583,13.68738 C64.91583,15.15591 66.08385,15.73425 67.40496,15.73425 C68.2920629,15.7637262 69.1518812,15.4251343 69.78069,14.7987 L69.80904,14.7987 C69.7975542,15.0504388 69.8321417,15.3021587 69.9111,15.54147 L72.79146,15.54147 C72.67239,15.18426 72.72909,15.45075 72.67239,14.8554 C72.67239,14.35077 73.60794,10.89774 73.60794,9.6957 Z M68.78277,13.99923 C68.31216,13.99923 67.85289,13.86315 67.85289,13.33017 C67.85289,12.79719 68.31216,12.51369 68.79978,12.46833 C69.3362764,12.453807 69.8652413,12.3383965 70.35903,12.12813 C70.17759,13.2678 69.78069,13.99923 68.78277,13.99923 L68.78277,13.99923 Z" id="Shape" fill="#1779BF" fill-rule="nonzero"></path>
                <path d="M75.15018,9.22509 C74.7891101,9.22279742 74.4624218,9.43884041 74.3231852,9.77199189 C74.1839486,10.1051434 74.2597484,10.4894013 74.5150686,10.7447214 C74.7703887,11.0000416 75.1546466,11.0758414 75.4877981,10.9366048 C75.8209496,10.7973682 76.0369926,10.4706799 76.0347,10.10961 C76.0347,9.62110309 75.6386869,9.22509 75.15018,9.22509 L75.15018,9.22509 Z M75.15018,10.89207 C74.8331986,10.894367 74.5461497,10.70519 74.4232513,10.4129941 C74.3003528,10.1207982 74.3658899,9.78332252 74.589219,9.55836335 C74.812548,9.33340419 75.1495382,9.26541443 75.4426201,9.38618462 C75.7357021,9.50695482 75.92697,9.79262029 75.92697,10.10961 C75.92697,10.5395461 75.5801048,10.8889545 75.15018,10.89207 L75.15018,10.89207 Z" id="Shape" fill="#1779BF" fill-rule="nonzero"></path>
                <path d="M75.60378,9.87714 C75.6074601,9.79167154 75.5639014,9.7110879 75.49038,9.66735 C75.4175582,9.62779533 75.3348755,9.6100776 75.25224,9.61632 L74.844,9.61632 L74.844,10.60857 L74.96307,10.60857 L74.96307,10.1493 L75.1842,10.1493 L75.4677,10.60857 L75.61512,10.60857 L75.31461,10.1493 C75.4677,10.14363 75.60378,10.07559 75.60378,9.87714 Z M75.1275,10.05858 L74.94039,10.05858 L74.94039,9.70704 L75.22389,9.70704 C75.34863,9.70704 75.47904,9.70704 75.47904,9.87714 C75.47904,10.04724 75.26358,10.05858 75.1275,10.05858 L75.1275,10.05858 Z" id="Shape" fill="#1779BF" fill-rule="nonzero"></path>
                <path d="M82.98612,4.64373 C82.98612,5.00094 82.54953,5.28444 82.00521,5.28444 C81.46089,5.28444 81.0243,5.00094 81.0243,4.64373 C81.0243,4.28652 81.46089,4.00302 82.00521,4.00302 C82.54953,4.00302 82.98612,4.29219 82.98612,4.64373 Z" id="Path" fill="#1779BF" fill-rule="nonzero"></path>
                <path d="M58.27626,17.32752 C64.61532,19.52748 76.31253,20.68416 80.95626,10.52352 C80.58771,10.47816 80.19648,10.41012 79.95267,10.37043 C79.70886,10.81836 74.11824,21.91455 59.28552,15.62085 C58.93398,16.19919 58.60512,16.80588 58.27626,17.32752 Z" id="Path" fill="#1779BF" fill-rule="nonzero"></path>
            </g>
        </g>
    </g>
</svg>