<?xml version="1.0" encoding="UTF-8"?>
<svg width="170px" height="57px" viewBox="0 0 170 57" version="1.1" xmlns="http://www.w3.org/2000/svg" xmlns:xlink="http://www.w3.org/1999/xlink">
    <!-- Generator: Sketch 63.1 (92452) - https://sketch.com -->
    <title>Elementos/logo/normal/Bodega</title>
    <desc>Created with Sketch.</desc>
    <defs>
        <linearGradient x1="50%" y1="0%" x2="50%" y2="100%" id="linearGradient-1">
            <stop stop-color="#000000" offset="0%"></stop>
            <stop stop-color="#FFFFFF" offset="100%"></stop>
        </linearGradient>
    </defs>
    <g id="Inicio-BA-SP-SAMS" stroke="none" stroke-width="1" fill="none" fill-rule="evenodd">
        <g id="Elementos/logo/normal/Bodega">
            <g id="bodega-aurrera">
                <path d="M164.426441,0.854114916 L5.24881941,0.854114916 C4.01975221,0.854114916 2.90673452,1.34852994 2.10113962,2.14858176 C1.29755086,2.94664123 0.800000012,4.04898726 0.800000012,5.26681859 L0.800000012,50.8695953 C0.800000012,52.0874266 1.29755086,53.1897726 2.10113962,53.9878321 C2.90673452,54.7878839 4.01975221,55.282299 5.24881941,55.282299 L164.426441,55.282299 C165.655508,55.282299 166.768526,54.7878839 167.574121,53.9878321 C168.37771,53.1897726 168.87526,52.0874266 168.87526,50.8695953 L168.87526,5.26681859 C168.87526,4.04898726 168.37771,2.94664123 167.574121,2.14858176 C166.768526,1.34852994 165.655508,0.854114916 164.426441,0.854114916 Z" id="Path" stroke="#FFFFFF" stroke-width="1.60000002" fill="#6DAC3B"></path>
                <g id="Group-2" transform="translate(1.208189, 9.218826)">
                    <path d="M30.8754309,20.6156173 L28.2678984,20.6156173 L28.2678984,7.60058446 L31.3606513,7.60058446 C32.2720219,7.60058446 34.0694472,8.124369 34.4955973,9.70829343 C34.9217474,11.2964081 34.3943339,13.2448866 33.0990063,13.8440961 C34.271974,14.3050265 35.504012,15.8344773 34.7360979,18.2438862 C33.9724031,20.6532951 31.2382914,20.6156173 30.8754309,20.6156173 Z M29.7657528,13.1233686 L31.2129755,13.1233686 C32.2888991,13.1233686 33.1665152,12.2559814 33.1665152,11.1832707 L33.1665152,10.961186 C33.1665152,9.89266558 32.2931184,9.02108812 31.2129755,9.02108812 L29.7657528,9.02108812 L29.7657528,13.1233686 Z M29.7657528,19.1489859 L31.3311161,19.1489859 C32.4998645,19.1489859 33.4449896,18.1936029 33.4449896,17.011945 L33.4449896,16.7689089 C33.4449896,15.587251 32.4998645,14.6318681 31.3311161,14.6318681 L29.7657528,14.6318681 L29.7657528,19.1489859 Z M39.5123548,10.7516722 C41.6557633,10.7516722 43.4152149,12.2978842 43.4152149,15.7339107 C43.4152149,19.1699373 41.7781233,20.8753797 39.6136182,20.8753797 C37.4491131,20.8753797 35.7698284,19.2076497 35.7698284,15.813526 C35.7698284,12.4194022 37.6094468,10.7516722 39.5123548,10.7516722 Z M37.2086125,15.7129593 C37.2086125,18.1852223 38.3604836,19.4883983 39.7359781,19.4883983 C41.1114726,19.4883983 42.0017466,17.6991503 42.0017466,15.5914413 C42.0017466,13.4837324 40.7486121,12.1386537 39.5967409,12.1386537 C38.6642738,12.1386537 37.2086125,13.2448866 37.2086125,15.7129593 L37.2086125,15.7129593 Z M49.6640103,6.62844037 L49.6640103,11.9375204 C49.043772,11.187461 48.2927352,10.7516722 47.6345231,10.7516722 C45.7316151,10.7516722 43.8919967,12.4194022 43.8919967,15.813526 C43.8919967,19.2076497 45.5712814,20.8753797 47.7357865,20.8753797 C48.4235337,20.8753797 49.1112809,20.4354007 49.6640103,19.7104829 L49.6640103,20.6155826 L50.9171449,20.6155826 L50.9171449,6.62844037 L49.6640103,6.62844037 Z M47.8581464,19.4883983 C46.4826519,19.4883983 45.3307808,18.1810321 45.3307808,15.7129593 C45.3307808,13.2406963 46.7864421,12.1386537 47.7189092,12.1386537 C48.8707804,12.1386537 49.6682296,13.4250685 49.6682296,15.5327774 C49.6682296,17.6404864 49.2336409,19.4883983 47.8581464,19.4883983 L47.8581464,19.4883983 Z M55.4739977,10.6930084 C56.9802908,10.6930084 58.8958567,11.7112455 58.8114705,16.2576952 L53.4782649,16.2576952 C53.4782649,16.2576952 53.4234139,18.6126305 55.039409,19.3082164 C56.655404,20.0038022 58.1912322,18.6377722 58.1912322,18.6377722 L58.1912322,20.3222632 C58.1912322,20.3222632 57.2756423,20.8753797 55.6343314,20.8753797 C53.9930205,20.8753797 51.9719719,19.8403815 51.9719719,15.813526 C51.9719719,11.7866705 54.2335211,10.6930084 55.4739977,10.6930084 L55.4739977,10.6930084 Z M57.3304933,14.8371916 C57.3304933,14.8371916 57.1701596,12.1386537 55.4993136,12.1386537 C53.8284675,12.1386537 53.4276332,14.8371916 53.4276332,14.8371916 L57.3304933,14.8371916 Z M65.0096343,11.6022983 L65.0096343,10.9067124 L66.4357605,10.9067124 L66.4357605,19.9451384 C66.4357605,19.9451384 66.6509452,22.9411859 64.4948787,24.1731271 C62.3388122,25.4050684 60.5076324,24.4119729 60.0519471,24.1731271 L60.0519471,22.4090208 C60.0519471,22.4090208 62.0181448,23.4775413 63.4189551,23.0249914 C64.8197654,22.5682513 65.0898011,20.561109 65.060266,19.4925885 C64.1446761,20.5401576 63.7396225,20.7245298 62.7987168,20.7245298 C61.8578111,20.7245298 59.351542,19.8361912 59.351542,15.784194 C59.351542,11.7363871 61.186941,10.6930084 62.8957609,10.6930084 C64.334545,10.6930084 65.0096343,11.6022983 65.0096343,11.6022983 L65.0096343,11.6022983 Z M60.8072033,15.7087691 C60.8072033,17.4058309 61.4527575,19.2788844 62.8957609,19.2788844 C64.3387643,19.2788844 65.060266,17.7829558 65.060266,15.4824941 C65.060266,13.1820325 64.0096582,12.1386537 62.8957609,12.1386537 C61.3768099,12.1386537 60.8072033,14.0117072 60.8072033,15.7087691 L60.8072033,15.7087691 Z M68.2838175,13.0772756 L68.2838175,11.4723997 C68.2838175,11.4723997 69.1698722,10.793575 70.9251044,10.793575 C72.6803366,10.793575 73.7225057,11.8998079 73.7225057,13.7309587 L73.7225057,20.6700562 L72.4482747,20.6700562 L72.4482747,19.7230537 C72.4482747,19.7230537 71.604413,20.8963311 70.1740675,20.8963311 C68.7437221,20.8963311 67.3091573,19.9954217 67.3091573,18.1307487 C67.3091573,16.2660758 68.3344492,15.2813609 70.1065586,14.6821514 C71.2457718,14.2966459 72.2668444,14.4558764 72.2668444,14.4558764 L72.2668444,13.6639142 C72.2668444,13.6639142 72.3343533,12.2392203 70.8322796,12.1386537 C69.3302059,12.038087 68.2838175,13.0772756 68.2838175,13.0772756 Z M69.2964514,16.7563381 C68.7184062,17.2633616 68.6002656,18.2313154 69.0390736,18.8724276 C69.3386445,19.3124066 69.8744967,19.4506858 70.3808136,19.4506858 C72.2457479,19.4506858 72.2921603,17.0789894 72.2921603,17.0789894 L72.2921603,15.9727565 C71.3048421,15.981137 70.0728041,16.0691328 69.2964514,16.7563381 L69.2964514,16.7563381 Z M45.3603159,26.8758553 L46.2632479,26.8758553 L46.2632479,30.2280763 L47.8454885,30.2280763 L47.8454885,31.0158483 L45.3603159,31.0158483 L45.3603159,26.8758553 Z M50.0142129,31.011658 L49.9593619,30.7099581 L49.9424847,30.7099581 C49.7526158,30.9488039 49.4572642,31.0787024 49.1155003,31.0787024 C48.5290164,31.0787024 48.1830331,30.6387234 48.1830331,30.1568416 C48.1830331,29.3774503 48.8581225,29.0045157 49.879195,29.0087059 L49.879195,28.9668032 C49.879195,28.8075727 49.7948089,28.5812978 49.3517815,28.5812978 C49.0564299,28.5812978 48.7442011,28.6860547 48.5543323,28.8075727 L48.3897792,28.2041729 C48.592306,28.0868452 48.9847017,27.9401855 49.5121152,27.9401855 C50.4741175,27.9401855 50.782127,28.5310145 50.782127,29.2349809 L50.782127,30.2783597 C50.782127,30.5674887 50.7947849,30.844047 50.8243201,31.0074677 L50.0142129,31.0074677 L50.0142129,31.011658 Z M49.9087302,29.5911543 C49.4361677,29.5869641 49.0690879,29.7001015 49.0690879,30.0646556 C49.0690879,30.3035013 49.220983,30.4208291 49.4235098,30.4208291 C49.6471331,30.4208291 49.8327827,30.2657888 49.891853,30.0772264 C49.9045109,30.0269431 49.9087302,29.9724695 49.9087302,29.9179959 L49.9087302,29.5911543 Z M54.8495401,30.936233 C54.6892064,31.011658 54.3896355,31.0703219 54.0478716,31.0703219 C53.1154044,31.0703219 52.520482,30.4794929 52.520482,29.5366808 C52.520482,28.660913 53.0985272,27.9401855 54.1744508,27.9401855 C54.4107321,27.9401855 54.6723292,27.9820883 54.8579787,28.0575132 L54.7145223,28.7530991 C54.6090395,28.7028158 54.4487058,28.660913 54.2124246,28.660913 C53.7398621,28.660913 53.4318526,29.0087059 53.4402912,29.5031585 C53.4402912,30.056275 53.7947131,30.3454041 54.2335211,30.3454041 C54.4444865,30.3454041 54.6132589,30.3076916 54.7482767,30.253218 L54.8495401,30.936233 Z M57.0140452,31.011658 L56.9591942,30.7099581 L56.942317,30.7099581 C56.7524481,30.9488039 56.4570965,31.0787024 56.1153326,31.0787024 C55.533068,31.0787024 55.1828655,30.6387234 55.1828655,30.1568416 C55.1828655,29.3774503 55.8579548,29.0045157 56.8790274,29.0087059 L56.8790274,28.9668032 C56.8790274,28.8075727 56.7946412,28.5812978 56.3516138,28.5812978 C56.0562623,28.5812978 55.7440335,28.6860547 55.5541646,28.8075727 L55.3896116,28.2041729 C55.5921384,28.0868452 55.984534,27.9401855 56.5119475,27.9401855 C57.4739498,27.9401855 57.7819593,28.5310145 57.7819593,29.2349809 L57.7819593,30.2783597 C57.7819593,30.5674887 57.7946172,30.844047 57.8241524,31.0074677 L57.0140452,31.0074677 L57.0140452,31.011658 Z M56.9043432,29.5911543 C56.4317807,29.5869641 56.0647009,29.7001015 56.0647009,30.0646556 C56.0647009,30.3035013 56.216596,30.4208291 56.4191228,30.4208291 C56.6427461,30.4208291 56.8283957,30.2657888 56.887466,30.0772264 C56.9001239,30.0269431 56.9043432,29.9724695 56.9043432,29.9179959 L56.9043432,29.5911543 Z M58.4908031,28.9668032 C58.4908031,28.5938686 58.4781452,28.2712173 58.4654873,28.0072299 L59.2207434,28.0072299 L59.2629365,28.4136867 L59.2798137,28.4136867 C59.4021737,28.2251243 59.6595515,27.9401855 60.1532105,27.9401855 C60.5245097,27.9401855 60.8198612,28.1371285 60.9464405,28.4513992 L60.9590984,28.4513992 C61.0645811,28.296359 61.1953797,28.174841 61.3303975,28.0910354 C61.4907312,27.9946591 61.6679422,27.9443758 61.8789076,27.9443758 C62.4358563,27.9443758 62.8535678,28.3508326 62.8535678,29.2475517 L62.8535678,31.0158483 L61.980171,31.0158483 L61.980171,29.3816405 C61.980171,28.9458518 61.8451531,28.6944352 61.5540209,28.6944352 C61.3472748,28.6944352 61.199599,28.8410949 61.1405287,29.0212768 C61.1152128,29.0883212 61.1067742,29.1888878 61.1067742,29.2601225 L61.1067742,31.0158483 L60.2333774,31.0158483 L60.2333774,29.3355475 C60.2333774,28.9542324 60.1025788,28.6986255 59.8198852,28.6986255 C59.5878232,28.6986255 59.4528054,28.8829977 59.4021737,29.0380379 C59.3726385,29.1134629 59.3684192,29.1972684 59.3684192,29.2726934 L59.3684192,31.0200386 L58.4950224,31.0200386 L58.4950224,28.9668032 L58.4908031,28.9668032 Z M63.5708502,29.0170865 C63.5708502,28.6232005 63.5581923,28.2879784 63.5455343,28.0114202 L64.3261064,28.0114202 L64.3682994,28.4304478 L64.3809574,28.4304478 C64.5919228,28.1119868 64.9252481,27.9443758 65.3429596,27.9443758 C65.9758559,27.9443758 66.5412432,28.5142533 66.5412432,29.4738266 C66.5412432,30.5674887 65.8745925,31.0828927 65.2290383,31.0828927 C64.8788357,31.0828927 64.6088,30.936233 64.4780015,30.73929 L64.4653435,30.73929 L64.4653435,32.2310284 L63.5666309,32.2310284 L63.5666309,29.0170865 L63.5708502,29.0170865 Z M64.4653435,29.7210529 C64.4653435,29.7964779 64.4695628,29.8635223 64.4822208,29.9179959 C64.5412911,30.1694125 64.7480372,30.3579749 65.0096343,30.3579749 C65.3978106,30.3579749 65.6298726,30.0185625 65.6298726,29.5115391 C65.6298726,29.0338476 65.4231265,28.6692936 65.0222922,28.6692936 C64.7691337,28.6692936 64.5455104,28.8662366 64.4864401,29.1427948 C64.4737821,29.1930781 64.4695628,29.251742 64.4695628,29.3104058 L64.4695628,29.7210529 L64.4653435,29.7210529 Z M67.8112549,29.8090487 C67.8407901,30.1945541 68.2078699,30.3789263 68.6255814,30.3789263 C68.9335909,30.3789263 69.1825301,30.3370235 69.4230307,30.2574083 L69.5411713,30.89014 C69.2458197,31.011658 68.8871785,31.0745121 68.4947829,31.0745121 C67.5159034,31.0745121 66.9547354,30.4836832 66.9547354,29.5450613 C66.9547354,28.782431 67.4104207,27.9443758 68.414616,27.9443758 C69.3470831,27.9443758 69.701505,28.6986255 69.701505,29.4403044 C69.701505,29.5995349 69.6846278,29.7420043 69.6719699,29.8090487 L67.8112549,29.8090487 Z M68.866082,29.1679364 C68.866082,28.9416615 68.7732572,28.5603464 68.359765,28.5603464 C67.9800273,28.5603464 67.8281322,28.9165199 67.8028163,29.1679364 L68.866082,29.1679364 Z M73.0896095,29.4780169 C73.0896095,30.5758693 72.3385726,31.0787024 71.5664392,31.0787024 C70.7225776,31.0787024 70.0728041,30.5004443 70.0728041,29.5324905 C70.0728041,28.5645367 70.6888231,27.9443551 71.6128516,27.9443551 C72.4989064,27.9401855 73.0896095,28.5729172 73.0896095,29.4780169 L73.0896095,29.4780169 Z M70.9968326,29.5073488 C70.9968326,30.0227528 71.2035787,30.4082582 71.5875358,30.4082582 C71.9377384,30.4082582 72.1613617,30.0478945 72.1613617,29.5073488 C72.1613617,29.0589893 71.9968087,28.6064394 71.5875358,28.6064394 C71.1571664,28.6064394 70.9968326,29.0631795 70.9968326,29.5073488 Z M73.6465582,28.9668032 C73.6465582,28.5938686 73.6339003,28.2712173 73.6212423,28.0072299 L74.4018144,28.0072299 L74.4440074,28.417877 L74.4608847,28.417877 C74.5790253,28.2293146 74.8743769,27.9401855 75.3511587,27.9401855 C75.9418619,27.9401855 76.3848892,28.3466423 76.3848892,29.2307906 L76.3848892,31.011658 L75.4861766,31.011658 L75.4861766,29.3481183 C75.4861766,28.9626129 75.355378,28.6986255 75.0304913,28.6986255 C74.7815521,28.6986255 74.6338763,28.8746171 74.574806,29.0464184 C74.5494902,29.100892 74.5410515,29.1930781 74.5410515,29.2810739 L74.5410515,31.011658 L73.6423389,31.011658 L73.6423389,28.9668032 L73.6465582,28.9668032 Z M78.7477018,31.011658 L78.6928508,30.7099581 L78.6759736,30.7099581 C78.4861047,30.9488039 78.1907531,31.0787024 77.8489892,31.0787024 C77.2667246,31.0787024 76.9165221,30.6387234 76.9165221,30.1568416 C76.9165221,29.3774503 77.5873921,29.0045157 78.612684,29.0087059 L78.612684,28.9668032 C78.612684,28.8075727 78.5282978,28.5812978 78.0852704,28.5812978 C77.7899189,28.5812978 77.4776901,28.6860547 77.2878212,28.8075727 L77.1232682,28.2041729 C77.325795,28.0868452 77.7181906,27.9401855 78.2456041,27.9401855 C79.2076064,27.9401855 79.5156159,28.5310145 79.5156159,29.2349809 L79.5156159,30.2783597 C79.5156159,30.5674887 79.5282738,30.844047 79.557809,31.0074677 L78.7477018,31.0074677 L78.7477018,31.011658 Z M78.6422191,29.5911543 C78.1696566,29.5869641 77.8025768,29.7001015 77.8025768,30.0646556 C77.8025768,30.3035013 77.9544719,30.4208291 78.1569987,30.4208291 C78.380622,30.4208291 78.5662716,30.2657888 78.6253419,30.0772264 C78.6379998,30.0269431 78.6422191,29.9724695 78.6422191,29.9179959 L78.6422191,29.5911543 Z M84.2159253,26.6537707 L84.2159253,30.1149389 C84.2159253,30.4543513 84.2285832,30.8105247 84.2412411,31.011658 L83.4437919,31.011658 L83.4015988,30.571679 L83.3889409,30.571679 C83.2075106,30.9110914 82.857308,31.0828927 82.4860089,31.0828927 C81.802481,31.0828927 81.2539491,30.4753026 81.2539491,29.540871 C81.2497516,28.5268242 81.857332,27.9443758 82.5450792,27.9443758 C82.8995011,27.9443758 83.1779754,28.0742743 83.3045547,28.2837882 L83.3172126,28.2837882 L83.3172126,26.657961 L84.2159253,26.657961 L84.2159253,26.6537707 Z M83.3172126,29.2810739 C83.3172126,29.2307906 83.3129933,29.1637462 83.3045547,29.1134629 C83.2497037,28.8620463 83.0556155,28.6525325 82.7771412,28.6525325 C82.3678683,28.6525325 82.1569029,29.0338476 82.1569029,29.5073488 C82.1569029,30.0185625 82.3974034,30.3370235 82.7729219,30.3370235 C83.034519,30.3370235 83.2412651,30.1526514 83.2918968,29.888664 C83.308774,29.8216195 83.3172126,29.7545751 83.3172126,29.6749599 L83.3172126,29.2810739 Z M85.6293935,29.8090487 C85.6589287,30.1945541 86.0260085,30.3789263 86.44372,30.3789263 C86.7517295,30.3789263 87.0006687,30.3370235 87.2411693,30.2574083 L87.3593099,30.89014 C87.0639583,31.011658 86.7053171,31.0745121 86.3129214,31.0745121 C85.3340419,31.0745121 84.7728739,30.4836832 84.7728739,29.5450613 C84.7728739,28.782431 85.2285592,27.9443758 86.2327546,27.9443758 C87.1652217,27.9443758 87.5196436,28.6986255 87.5196436,29.4403044 C87.5196436,29.5995349 87.5027664,29.7420043 87.4901084,29.8090487 L85.6293935,29.8090487 Z M86.6842206,29.1679364 C86.6842206,28.9416615 86.5913958,28.5603464 86.1779036,28.5603464 C85.7981658,28.5603464 85.6462707,28.9165199 85.6209549,29.1679364 L86.6842206,29.1679364 Z M89.24956,26.6537707 L90.1482726,26.6537707 L90.1482726,31.011658 L89.24956,31.011658 L89.24956,26.6537707 Z M93.726246,29.4780169 C93.726246,30.5758693 92.9752091,31.0787024 92.2030757,31.0787024 C91.3592141,31.0787024 90.7094406,30.5004443 90.7094406,29.5324905 C90.7094406,28.5645367 91.3254596,27.9443551 92.2494881,27.9443551 C93.1355428,27.9401855 93.726246,28.5729172 93.726246,29.4780169 Z M91.6334691,29.5073488 C91.6334691,30.0227528 91.8402152,30.4082582 92.2241722,30.4082582 C92.5743748,30.4082582 92.7979982,30.0478945 92.7979982,29.5073488 C92.7979982,29.0589893 92.6334451,28.6064394 92.2241722,28.6064394 C91.7938028,28.6064394 91.6334691,29.0631795 91.6334691,29.5073488 Z M94.274756,30.1945541 C94.4393091,30.299311 94.781073,30.4208291 95.0468894,30.4208291 C95.3169252,30.4208291 95.4308465,30.3244527 95.4308465,30.1694125 C95.4308465,30.0143723 95.342241,29.9431376 95.0046964,29.8258098 C94.4097739,29.616296 94.177712,29.2810739 94.1861506,28.9249004 C94.1861506,28.3675937 94.6460552,27.9443758 95.3591182,27.9443758 C95.6966629,27.9443758 95.9962338,28.023991 96.1734447,28.1161771 L96.013111,28.7614796 C95.8823125,28.6860547 95.6333733,28.5896783 95.3886534,28.5896783 C95.1692494,28.5896783 95.0468894,28.6818644 95.0468894,28.8369046 C95.0468894,28.979374 95.1608108,29.0506087 95.5152327,29.1805073 C96.0637427,29.3774503 96.2958047,29.6665793 96.300024,30.1065583 C96.300024,30.6638651 95.8738739,31.0745121 95.0468894,31.0745121 C94.6671517,31.0745121 94.3338264,30.9865163 94.1144223,30.8649983 L94.274756,30.1945541 Z M98.038379,29.0170865 C98.038379,28.6232005 98.025721,28.2879784 98.0130631,28.0114202 L98.7936351,28.0114202 L98.8358282,28.4304478 L98.8484861,28.4304478 C99.0594516,28.1119868 99.3927769,27.9443758 99.8104884,27.9443758 C100.443385,27.9443758 101.008772,28.5142533 101.008772,29.4738266 C101.008772,30.5674887 100.342121,31.0828927 99.6965671,31.0828927 C99.3463645,31.0828927 99.0763288,30.936233 98.9455302,30.73929 L98.9328723,30.73929 L98.9328723,32.2310284 L98.0341597,32.2310284 L98.0341597,29.0170865 L98.038379,29.0170865 Z M98.9328723,29.7210529 C98.9328723,29.7964779 98.9370916,29.8635223 98.9497495,29.9179959 C99.0088199,30.1694125 99.215566,30.3579749 99.4771631,30.3579749 C99.8653394,30.3579749 100.097401,30.0185625 100.097401,29.5115391 C100.097401,29.0338476 99.8906553,28.6692936 99.489821,28.6692936 C99.2366625,28.6692936 99.0130392,28.8662366 98.9539688,29.1427948 C98.9413109,29.1930781 98.9370916,29.251742 98.9370916,29.3104058 L98.9370916,29.7210529 L98.9328723,29.7210529 Z M101.56994,28.9961351 C101.56994,28.5561561 101.557282,28.267027 101.544624,28.0072299 L102.316757,28.0072299 L102.346293,28.5603464 L102.371608,28.5603464 C102.519284,28.1245577 102.873706,27.9401855 103.152181,27.9401855 C103.236567,27.9401855 103.27454,27.9401855 103.342049,27.9527563 L103.342049,28.8285241 C103.27876,28.8159532 103.202812,28.8033824 103.101549,28.8033824 C102.772443,28.8033824 102.5446,28.9877546 102.48553,29.2768836 C102.472872,29.3397378 102.468653,29.4109725 102.468653,29.4863974 L102.468653,31.0074677 L101.56994,31.0074677 L101.56994,28.9961351 Z M104.455947,29.8090487 C104.485482,30.1945541 104.852562,30.3789263 105.270273,30.3789263 C105.578283,30.3789263 105.827222,30.3370235 106.067722,30.2574083 L106.185863,30.89014 C105.890512,31.011658 105.53187,31.0745121 105.139475,31.0745121 C104.160595,31.0745121 103.599427,30.4836832 103.599427,29.5450613 C103.599427,28.782431 104.055112,27.9443758 105.059308,27.9443758 C105.991775,27.9443758 106.346197,28.6986255 106.346197,29.4403044 C106.346197,29.5995349 106.32932,29.7420043 106.316662,29.8090487 L104.455947,29.8090487 Z M105.514993,29.1679364 C105.514993,28.9416615 105.422168,28.5603464 105.008676,28.5603464 C104.628938,28.5603464 104.477043,28.9165199 104.451727,29.1679364 L105.514993,29.1679364 Z M109.050773,30.936233 C108.89044,31.011658 108.590869,31.0703219 108.249105,31.0703219 C107.316638,31.0703219 106.721715,30.4794929 106.721715,29.5366808 C106.721715,28.660913 107.29976,27.9401855 108.375684,27.9401855 C108.611965,27.9401855 108.869343,27.9820883 109.059212,28.0575132 L108.915756,28.7530991 C108.810273,28.7028158 108.649939,28.660913 108.413658,28.660913 C107.941095,28.660913 107.633086,29.0087059 107.641524,29.5031585 C107.641524,30.056275 107.995946,30.3454041 108.434754,30.3454041 C108.64572,30.3454041 108.814492,30.3076916 108.94951,30.253218 L109.050773,30.936233 Z M110.4769,27.1733649 C110.4769,27.4331621 110.287031,27.6384856 109.991679,27.6384856 C109.708985,27.6384856 109.519117,27.4289718 109.523336,27.1733649 C109.519117,26.9051873 109.704766,26.6998637 109.995898,26.6998637 C110.287031,26.6998637 110.468461,26.9051873 110.4769,27.1733649 Z M109.548652,31.011658 L109.548652,28.0114202 L110.447364,28.0114202 L110.447364,31.011658 L109.548652,31.011658 Z M114.016899,29.4780169 C114.016899,30.5758693 113.265862,31.0787024 112.493729,31.0787024 C111.649867,31.0787024 111.000094,30.5004443 111.000094,29.5324905 C111.000094,28.5645367 111.616113,27.9443551 112.540141,27.9443551 C113.426196,27.9401855 114.016899,28.5729172 114.016899,29.4780169 Z M111.928342,29.5073488 C111.928342,30.0227528 112.135088,30.4082582 112.519045,30.4082582 C112.869247,30.4082582 113.092871,30.0478945 113.092871,29.5073488 C113.092871,29.0589893 112.928318,28.6064394 112.519045,28.6064394 C112.088675,28.6064394 111.928342,29.0631795 111.928342,29.5073488 Z M114.569629,30.1945541 C114.734182,30.299311 115.075946,30.4208291 115.341762,30.4208291 C115.611798,30.4208291 115.725719,30.3244527 115.725719,30.1694125 C115.725719,30.0143723 115.637114,29.9431376 115.299569,29.8258098 C114.704646,29.616296 114.472584,29.2810739 114.481023,28.9249004 C114.481023,28.3675937 114.940928,27.9443758 115.653991,27.9443758 C115.991535,27.9443758 116.291106,28.023991 116.468317,28.1161771 L116.307984,28.7614796 C116.177185,28.6860547 115.928246,28.5896783 115.683526,28.5896783 C115.464122,28.5896783 115.341762,28.6818644 115.341762,28.8369046 C115.341762,28.979374 115.455683,29.0506087 115.810105,29.1805073 C116.358615,29.3774503 116.590677,29.6665793 116.594896,30.1065583 C116.594896,30.6638651 116.168746,31.0745121 115.341762,31.0745121 C114.962024,31.0745121 114.628699,30.9865163 114.409295,30.8649983 L114.569629,30.1945541 Z M118.307936,31.011658 C118.320594,30.814715 118.333251,30.4543513 118.333251,30.1149389 L118.333251,26.6537707 L119.231964,26.6537707 L119.231964,28.3675937 L119.244622,28.3675937 C119.417614,28.1077965 119.717185,27.9443758 120.118019,27.9443758 C120.809985,27.9443758 121.316302,28.539395 121.312109,29.4612558 C121.312109,30.5423471 120.649652,31.0828927 119.99144,31.0828927 C119.653895,31.0828927 119.329008,30.9529941 119.122262,30.5968207 L119.109604,30.5968207 L119.07585,31.0158483 L118.307936,31.0158483 L118.307936,31.011658 Z M119.227745,29.7336237 C119.227745,29.7964779 119.231964,29.8509515 119.244622,29.9012348 C119.303692,30.1526514 119.510438,30.3412138 119.772036,30.3412138 C120.155993,30.3412138 120.392274,30.0353236 120.392274,29.494778 C120.392274,29.0296573 120.189747,28.660913 119.772036,28.660913 C119.531535,28.660913 119.303692,28.8494754 119.244622,29.1218434 C119.231964,29.176317 119.227745,29.2307906 119.227745,29.2936447 L119.227745,29.7336237 Z M123.501904,31.011658 L123.447053,30.7099581 L123.430176,30.7099581 C123.240307,30.9488039 122.944955,31.0787024 122.603191,31.0787024 C122.020927,31.0787024 121.670724,30.6387234 121.670724,30.1568416 C121.670724,29.3774503 122.341594,29.0045157 123.366886,29.0087059 L123.366886,28.9668032 C123.366886,28.8075727 123.2825,28.5812978 122.839473,28.5812978 C122.544121,28.5812978 122.231892,28.6860547 122.042023,28.8075727 L121.87747,28.2041729 C122.079997,28.0868452 122.472393,27.9401855 122.999806,27.9401855 C123.961809,27.9401855 124.269818,28.5310145 124.269818,29.2349809 L124.269818,30.2783597 C124.269818,30.5674887 124.282476,30.844047 124.312011,31.0074677 L123.501904,31.0074677 L123.501904,31.011658 Z M123.396421,29.5911543 C122.923859,29.5869641 122.556779,29.7001015 122.556779,30.0646556 C122.556779,30.3035013 122.708674,30.4208291 122.911201,30.4208291 C123.134824,30.4208291 123.320474,30.2657888 123.379544,30.0772264 C123.392202,30.0269431 123.396421,29.9724695 123.396421,29.9179959 L123.396421,29.5911543 Z M124.383739,31.5647745 C124.620021,31.5480134 124.801451,31.4893495 124.915372,31.3678315 C125.046171,31.2253621 125.092583,30.9865163 125.092583,30.3914971 L125.092583,28.0114202 L125.995515,28.0114202 L125.995515,30.6135818 C125.995515,31.2714551 125.856278,31.6695314 125.590462,31.9251382 C125.324645,32.1807451 124.906934,32.2938825 124.476564,32.2938825 L124.383739,31.5647745 Z M126.020831,27.1733649 C126.020831,27.4331621 125.839401,27.6384856 125.535611,27.6384856 C125.252917,27.6384856 125.067267,27.4289718 125.067267,27.1733649 C125.067267,26.9051873 125.248698,26.6998637 125.544049,26.6998637 C125.835181,26.6998637 126.012392,26.9051873 126.020831,27.1733649 Z M129.552392,29.4780169 C129.552392,30.5758693 128.801355,31.0787024 128.029222,31.0787024 C127.18536,31.0787024 126.535587,30.5004443 126.535587,29.5324905 C126.535587,28.5645367 127.151606,27.9443551 128.075634,27.9443551 C128.961689,27.9401855 129.552392,28.5729172 129.552392,29.4780169 Z M127.459615,29.5073488 C127.459615,30.0227528 127.666361,30.4082582 128.050318,30.4082582 C128.400521,30.4082582 128.624144,30.0478945 128.624144,29.5073488 C128.624144,29.0589893 128.459591,28.6064394 128.050318,28.6064394 C127.619949,28.6064394 127.459615,29.0631795 127.459615,29.5073488 Z M130.100902,30.1945541 C130.265455,30.299311 130.607219,30.4208291 130.873035,30.4208291 C131.143071,30.4208291 131.256993,30.3244527 131.256993,30.1694125 C131.256993,30.0143723 131.168387,29.9431376 130.830842,29.8258098 C130.23592,29.616296 130.003858,29.2810739 130.012297,28.9249004 C130.012297,28.3675937 130.472201,27.9443758 131.185264,27.9443758 C131.522809,27.9443758 131.82238,28.023991 131.999591,28.1161771 L131.839257,28.7614796 C131.708458,28.6860547 131.459519,28.5896783 131.214799,28.5896783 C130.995395,28.5896783 130.873035,28.6818644 130.873035,28.8369046 C130.873035,28.979374 130.986957,29.0506087 131.341379,29.1805073 C131.889889,29.3774503 132.121951,29.6665793 132.12617,30.1065583 C132.12617,30.6638651 131.70002,31.0745121 130.873035,31.0745121 C130.493298,31.0745121 130.159972,30.9865163 129.940568,30.8649983 L130.100902,30.1945541 Z M78.6717543,17.7955266 L77.8574278,20.6742464 L74.8321838,20.6742464 L78.7730177,8.00704126 L82.5999302,8.00704126 L86.5998344,20.6742464 L83.4606691,20.6742464 L82.5788337,17.7871461 L78.6717543,17.7955266 Z M82.0472008,15.4615428 L81.241313,12.5912035 C81.0134703,11.8411441 80.7814084,10.8983319 80.5915395,10.1482724 L80.5535657,10.1482724 C80.3636969,10.8983319 80.1696087,11.8579052 79.9586433,12.5912035 L79.2033871,15.4615428 L82.0472008,15.4615428 Z M95.4772589,17.5566809 C95.4772589,18.817954 95.5152327,19.8403815 95.5489871,20.6491048 L93.1313235,20.6491048 L93.0047443,19.2914553 L92.9498933,19.2914553 C92.5996907,19.8822842 91.7600483,20.8669991 90.1440533,20.8669991 C88.3297508,20.8669991 86.9922301,19.6476288 86.9922301,16.6725326 L86.9922301,11.0198499 L89.79807,11.0198499 L89.8360438,15.8470482 C89.8360438,17.2466004 90.2579746,18.0930363 91.2284155,18.0930363 C91.9963296,18.0930363 92.439357,17.5231587 92.6207872,17.0496575 C92.6925155,16.8736659 92.713612,16.6348201 92.713612,16.4001646 L92.6756382,11.0198499 L95.4814782,11.0198499 L95.4814782,17.5566809 L95.4772589,17.5566809 Z M96.8274375,14.3678806 C96.8274375,12.9431867 96.7894637,12.0087551 96.75149,11.1790804 L99.2535397,11.1790804 L99.3505838,12.9641381 L99.4265314,12.9641381 C99.9033132,11.5562053 101.046746,10.961186 101.945458,10.961186 C102.211275,10.961186 102.346293,10.961186 102.557258,10.9988985 L102.557258,13.8315253 C102.346293,13.7938128 102.097353,13.75191 101.772467,13.75191 C100.704982,13.75191 99.9792607,14.3469293 99.7893919,15.2771706 C99.7514181,15.4741136 99.7303216,15.7129593 99.7303216,15.9518051 L99.7303216,20.8669991 L96.8274375,20.8669991 L96.8274375,14.3678806 Z M103.147961,14.2966459 C103.147961,12.871952 103.109987,11.9375204 103.072014,11.1078457 L105.574063,11.1078457 L105.671108,12.8929034 L105.747055,12.8929034 C106.223837,11.4849706 107.367269,10.8899513 108.265982,10.8899513 C108.531798,10.8899513 108.666816,10.8899513 108.877782,10.9276638 L108.877782,13.7602906 C108.666816,13.7225781 108.417877,13.6806753 108.09299,13.6806753 C107.025505,13.6806753 106.299784,14.2756946 106.109916,15.2059359 C106.071942,15.4028789 106.050845,15.6417246 106.050845,15.8805704 L106.050845,20.7957644 L103.147961,20.7957644 L103.147961,14.2966459 Z M118.088532,14.2966459 C118.088532,12.871952 118.050558,11.9375204 118.012584,11.1078457 L120.514634,11.1078457 L120.611678,12.8929034 L120.687625,12.8929034 C121.164407,11.4849706 122.30784,10.8899513 123.206552,10.8899513 C123.472369,10.8899513 123.607387,10.8899513 123.818352,10.9276638 L123.818352,13.7602906 C123.607387,13.7225781 123.358448,13.6806753 123.033561,13.6806753 C121.966076,13.6806753 121.240355,14.2756946 121.050486,15.2059359 C121.012512,15.4028789 120.991416,15.6417246 120.991416,15.8805704 L120.991416,20.7957644 L118.088532,20.7957644 L118.088532,14.2966459 Z M111.443121,16.8820464 C111.531727,18.1307487 112.632966,18.725768 113.89032,18.725768 C114.814348,18.725768 115.556947,18.5874889 116.282668,18.3276917 L116.63709,20.3683563 C115.751035,20.7664325 114.670892,20.9633755 113.497924,20.9633755 C110.552847,20.9633755 108.869343,19.0609901 108.869343,16.02723 C108.869343,13.5717282 110.236399,10.8564291 113.248985,10.8564291 C116.050606,10.8564291 117.113871,13.2951699 117.113871,15.6920079 C117.113871,16.2074119 117.05902,16.664152 117.025266,16.8820464 L111.443121,16.8820464 Z M114.616041,14.8204305 C114.616041,14.0871321 114.333347,12.8593812 113.092871,12.8593812 C111.957877,12.8593812 111.497972,14.0075169 111.426244,14.8204305 L114.616041,14.8204305 Z M129.649436,20.6700562 L129.484883,19.7188634 L129.430032,19.7188634 C128.851987,20.4773035 127.949055,20.8837603 126.898447,20.8837603 C125.10946,20.8837603 124.041975,19.484208 124.041975,17.9715182 C124.041975,15.5034455 126.100998,14.3175973 129.231725,14.3385487 L129.231725,14.2044599 C129.231725,13.6974364 128.978566,12.9808992 127.624168,12.9808992 C126.721236,12.9808992 125.763453,13.311931 125.185408,13.6974364 L124.679091,11.795051 C125.29511,11.4263067 126.506051,10.961186 128.113608,10.961186 C131.058685,10.961186 131.999591,12.825859 131.999591,15.0592762 L131.999591,18.3612139 C131.999591,19.2746942 132.037565,20.1462716 132.12617,20.6742464 L129.649436,20.6742464 L129.649436,20.6700562 Z M129.324549,16.1822703 C127.877327,16.1613189 126.75921,16.5300632 126.75921,17.6781989 C126.75921,18.4366389 127.227553,18.8053832 127.843572,18.8053832 C128.531319,18.8053832 129.092487,18.3193112 129.269698,17.7159114 C129.307672,17.5608712 129.324549,17.3848796 129.324549,17.208888 L129.324549,16.1822703 Z" id="Shape" fill="#FFFFFF" fill-rule="nonzero"></path>
                    <path d="M54.8497366,36.5469465 C54.8497366,36.5469465 18.6797386,37.2321928 0.322989049,5.9875962 L0.322989049,33.9245616 C4.64382277,37.0345256 16.5464968,39.1034424 34.1695198,39.129798 C48.3413109,39.129798 165.711582,39.129798 166.907285,39.129798 L166.907285,36.5733022 L54.8497366,36.5469465 Z" id="Path" fill="#FFD100"></path>
                    <path d="M34.9173235,41.5902536 C23.2139382,41.7112596 7.74641133,40.1381815 0.354088286,36.010532 C0.302256225,39.6496757 0.31521424,41.7291864 0.392962332,42.2490641 C0.439554328,42.5606105 0.558231874,42.9823071 0.754859719,43.3542887 C0.983016511,43.7859169 1.2943111,44.1506084 1.37518304,44.1986054 C1.38498099,44.2044204 103.415745,45.1824223 165.847238,44.1986054 C166.58011,43.4187889 166.93391,42.5090029 166.908638,41.4692476 C162.677308,41.4692476 48.7694828,41.4154671 34.9038092,41.5633634" id="Path" fill="#D02326"></path>
                    <g id="Group" transform="translate(137.413395, 0.000000)">
                        <path d="M12.9561201,12.8211858 L23.2683123,25.0246338 C23.2683123,25.0246338 24.6703512,26.1899845 24.6703512,24.0687844 L24.6703512,20.2322926 C24.6703512,18.7788777 24.814486,17.3254628 24.6703512,15.8720478 C24.4078475,14.2497213 23.7509503,12.7165549 22.7572888,11.4070523 C21.884853,9.90565696 20.7223303,8.59263088 19.3373623,7.54437298 C19.3373623,7.54437298 18.0925615,6.78493093 16.3236339,8.85375581 C14.5547064,10.9225807 13.0085328,12.7819043 13.0085328,12.7819043" id="Path" fill="#F0D733" fill-rule="nonzero"></path>
                        <path d="M1.76560361,25.0128079 L2.70816354,23.8970764 C3.51796855,22.9141701 4.32777355,21.9578289 5.15085405,20.9882051 C6.2261689,19.6599534 7.28820825,18.4379617 8.39007408,17.1628401 C9.49193991,15.8877184 10.6734587,14.5063366 11.815151,13.1116722 C12.9568433,11.7170079 14.271117,10.255931 15.5190132,8.83470161 C16.3553692,7.90492539 17.4705106,6.28445826 18.9440902,7.01499672 C19.6078648,7.33377714 20.9885159,8.91439672 21.2009238,8.94096175 C21.2009238,8.94096175 19.7406197,7.21423448 19.4352834,6.85560651 C18.8511617,6.17819812 15.8243496,2.64504847 14.9083406,1.54259952 C14.7224837,1.3035142 14.5499023,1.10427644 14.35077,0.878473643 C13.907396,0.323268484 13.2356765,0 12.5253898,0 C11.8151031,0 11.1433836,0.323268484 10.7000097,0.878473643 C8.6821349,2.88413378 3.9162333,8.84798413 3.9162333,8.84798413 C3.9162333,8.84798413 0.384952452,13.5632778 0.159269089,15.1306149 C0,16.5059679 -0.0398576865,17.8925153 0.0397896616,19.2747603 C0.0397896616,20.7624023 0.0663406454,22.2367617 0.119442613,23.6978387 C0.119442613,24.70731 0.769941717,26.0488443 1.76560361,24.9065478" id="Path" fill="#D02326"></path>
                    </g>
                    <path d="M160.301517,1.37607693 L160.504526,1.37607693 C160.726152,1.37607693 160.919409,1.31282799 160.919409,1.133531 C160.919409,0.989433415 160.823667,0.890160079 160.533485,0.890160079 C160.417945,0.890160079 160.35057,0.899234927 160.301517,0.908309774 L160.301517,1.37607693 Z M160.301517,2.22113777 L160.00247,2.22113777 L160.00247,0.719937932 C160.166178,0.692988384 160.339932,0.674838688 160.56274,0.674838688 C160.833419,0.674838688 160.968462,0.719937932 161.074252,0.791161738 C161.171767,0.854135683 161.237959,0.971283719 161.237959,1.10658145 C161.237959,1.29550328 161.094346,1.41210133 160.919409,1.46600043 L160.919409,1.48415012 C161.065091,1.53777422 161.142217,1.65492226 161.190679,1.84411909 C161.237959,2.07704018 161.2681,2.16723867 161.306811,2.22113777 L160.997422,2.22113777 C160.948959,2.16723867 160.91084,2.03249093 160.871538,1.8256944 C160.833419,1.66399711 160.726152,1.59194831 160.494775,1.59194831 L160.301517,1.59194831 L160.301517,2.22113777 Z M160.572491,0.251345787 C159.876587,0.251345787 159.344981,0.78208689 159.344981,1.42942604 C159.344981,2.09601487 159.876587,2.61630614 160.591699,2.61630614 C161.288194,2.62648097 161.799706,2.09601487 161.799706,1.43905088 C161.799706,0.78208689 161.288194,0.251345787 160.582538,0.251345787 L160.572491,0.251345787 Z M160.591699,0 C161.461358,0 162.147806,0.629464449 162.147806,1.42942604 C162.147806,2.24836231 161.461358,2.87782676 160.582538,2.87782676 C159.702833,2.87782676 159.006928,2.24836231 159.006928,1.42942604 C159.006928,0.629464449 159.702833,0 160.582538,0 L160.591699,0 L160.591699,0 Z" id="Fill-14" fill="url(#linearGradient-1)"></path>
                </g>
            </g>
        </g>
    </g>
</svg>