<?xml version="1.0" encoding="UTF-8"?>
<svg width="107px" height="35px" viewBox="0 0 107 35" version="1.1" xmlns="http://www.w3.org/2000/svg" xmlns:xlink="http://www.w3.org/1999/xlink">
    <!-- Generator: Sketch 63.1 (92452) - https://sketch.com -->
    <title>Elementos/logo/normal/Bodega Copy</title>
    <desc>Created with Sketch.</desc>
    <defs>
        <linearGradient x1="50%" y1="0%" x2="50%" y2="100%" id="linearGradient-1">
            <stop stop-color="#000000" offset="0%"></stop>
            <stop stop-color="#FFFFFF" offset="100%"></stop>
        </linearGradient>
    </defs>
    <g id="Inicio-BA-SP-SAMS" stroke="none" stroke-width="1" fill="none" fill-rule="evenodd">
        <g id="Elementos/logo/normal/Bodega">
            <g id="bodega-aurrera">
                <path d="M102.766526,0.833733404 L3.28051213,0.833733404 C2.59470196,0.833733404 1.97345053,1.1085583 1.52386727,1.55388081 C1.07705439,1.99645919 0.800000012,2.60767259 0.800000012,3.28315571 L0.800000012,31.7103768 C0.800000012,32.3858599 1.07705439,32.9970733 1.52386727,33.4396517 C1.97345053,33.8849742 2.59470196,34.1597991 3.28051213,34.1597991 L102.766526,34.1597991 C103.452336,34.1597991 104.073587,33.8849742 104.52317,33.4396517 C104.969983,32.9970733 105.247038,32.3858599 105.247038,31.7103768 L105.247038,3.28315571 C105.247038,2.60767259 104.969983,1.99645919 104.52317,1.55388081 C104.073587,1.1085583 103.452336,0.833733404 102.766526,0.833733404 Z" id="Path" stroke="#FFFFFF" stroke-width="1.60000002" fill="#6DAC3B"></path>
                <g id="Group-2" transform="translate(0.755118, 5.746703)">
                    <path d="M19.2971443,12.8510752 L17.6674365,12.8510752 L17.6674365,4.73794603 L19.6004071,4.73794603 C20.1700137,4.73794603 21.2934045,5.06445551 21.5597483,6.05182017 C21.8260921,7.0417969 21.4964587,8.25641216 20.6868789,8.629939 C21.4199837,8.91726734 22.1900075,9.87067501 21.7100612,11.3726186 C21.2327519,12.8745622 19.5239321,12.8510752 19.2971443,12.8510752 Z M18.6035955,8.18066196 L19.5081097,8.18066196 C20.1805619,8.18066196 20.729072,7.63996226 20.729072,6.97127085 L20.729072,6.83283084 C20.729072,6.1667515 20.183199,5.62343973 19.5081097,5.62343973 L18.6035955,5.62343973 L18.6035955,8.18066196 Z M18.6035955,11.936827 L19.5819476,11.936827 C20.3124153,11.936827 20.9031185,11.3412737 20.9031185,10.6046683 L20.9031185,10.4531679 C20.9031185,9.71656254 20.3124153,9.12100925 19.5819476,9.12100925 L18.6035955,9.12100925 L18.6035955,11.936827 Z M24.6952217,6.70222705 C26.0348521,6.70222705 27.1345093,7.66608302 27.1345093,9.80798519 C27.1345093,11.9498874 26.111327,13.0130022 24.7585114,13.0130022 C23.4056957,13.0130022 22.3561427,11.973396 22.3561427,9.85761463 C22.3561427,7.74183322 23.5059042,6.70222705 24.6952217,6.70222705 Z M23.2553828,9.79492481 C23.2553828,11.3360495 23.9753023,12.1484051 24.8349863,12.1484051 C25.6946704,12.1484051 26.2510916,11.0330487 26.2510916,9.71917461 C26.2510916,8.40530048 25.4678825,7.56682414 24.7479631,7.56682414 C24.1651711,7.56682414 23.2553828,8.25641216 23.2553828,9.79492481 L23.2553828,9.79492481 Z M31.0400065,4.13194444 L31.0400065,7.4414445 C30.6523575,6.97388293 30.1829595,6.70222705 29.7715769,6.70222705 C28.5822594,6.70222705 27.4324979,7.74183322 27.4324979,9.85761463 C27.4324979,11.973396 28.4820508,13.0130022 29.8348665,13.0130022 C30.2647086,13.0130022 30.6945506,12.7387343 31.0400065,12.2868451 L31.0400065,12.8510535 L31.8232155,12.8510535 L31.8232155,4.13194444 L31.0400065,4.13194444 Z M29.9113415,12.1484051 C29.0516575,12.1484051 28.331738,11.3334375 28.331738,9.79492481 C28.331738,8.25380008 29.2415263,7.56682414 29.8243183,7.56682414 C30.5442377,7.56682414 31.0426435,8.36873142 31.0426435,9.68260555 C31.0426435,10.9964797 30.7710256,12.1484051 29.9113415,12.1484051 L29.9113415,12.1484051 Z M34.6712486,6.66565798 C35.6126817,6.66565798 36.8099104,7.30039241 36.7571691,10.1344947 L33.4239156,10.1344947 C33.4239156,10.1344947 33.3896337,11.6024813 34.3996306,12.0360859 C35.4096275,12.4696904 36.3695201,11.6181537 36.3695201,11.6181537 L36.3695201,12.6682082 C36.3695201,12.6682082 35.7972765,13.0130022 34.7714572,13.0130022 C33.7456378,13.0130022 32.4824824,12.3678195 32.4824824,9.85761463 C32.4824824,7.34740977 33.8959507,6.66565798 34.6712486,6.66565798 L34.6712486,6.66565798 Z M35.8315583,9.24900097 C35.8315583,9.24900097 35.7313498,7.56682414 34.687071,7.56682414 C33.6427922,7.56682414 33.3922708,9.24900097 33.3922708,9.24900097 L35.8315583,9.24900097 Z M40.6310214,7.23247844 L40.6310214,6.79887385 L41.5223503,6.79887385 L41.5223503,12.4331214 C41.5223503,12.4331214 41.6568407,14.3007556 40.3092992,15.0687059 C38.9617576,15.8366562 37.8172703,15.2175942 37.532467,15.0687059 L37.532467,13.969022 C37.532467,13.969022 38.7613405,14.6351013 39.6368469,14.3529971 C40.5123534,14.0682808 40.6811257,12.8170965 40.6626662,12.1510172 C40.0904226,12.8040361 39.8372641,12.9189675 39.249198,12.9189675 C38.6611319,12.9189675 37.0947137,12.3652074 37.0947137,9.8393301 C37.0947137,7.31606486 38.2418382,6.66565798 39.3098505,6.66565798 C40.2090906,6.66565798 40.6310214,7.23247844 40.6310214,7.23247844 L40.6310214,7.23247844 Z M38.0045021,9.79231273 C38.0045021,10.8502034 38.4079734,12.0178013 39.3098505,12.0178013 C40.2117277,12.0178013 40.6626662,11.0852903 40.6626662,9.65126064 C40.6626662,8.21723102 40.0060364,7.56682414 39.3098505,7.56682414 C38.3605062,7.56682414 38.0045021,8.73442203 38.0045021,9.79231273 L38.0045021,9.79231273 Z M42.6773859,8.15192912 L42.6773859,7.15150409 C42.6773859,7.15150409 43.2311701,6.7283478 44.3281902,6.7283478 C45.4252104,6.7283478 46.0765661,7.41793582 46.0765661,8.55941295 L46.0765661,12.8850105 L45.2801717,12.8850105 L45.2801717,12.2946814 C45.2801717,12.2946814 44.7527581,13.0260626 43.8587922,13.0260626 C42.9648263,13.0260626 42.0682233,12.4644663 42.0682233,11.3020926 C42.0682233,10.1397188 42.7090307,9.525881 43.8165991,9.15235416 C44.5286074,8.91204319 45.1667778,9.01130207 45.1667778,9.01130207 L45.1667778,8.51761974 C45.1667778,8.51761974 45.2089708,7.62951396 44.2701748,7.56682414 C43.3313787,7.50413432 42.6773859,8.15192912 42.6773859,8.15192912 Z M43.3102821,10.4453317 C42.9490039,10.7613929 42.875166,11.3647824 43.149421,11.76443 C43.3366528,12.0386979 43.6715604,12.1248964 43.9880085,12.1248964 C45.1535924,12.1248964 45.1826002,10.6464615 45.1826002,10.6464615 L45.1826002,9.95687351 C44.5655263,9.96209766 43.7955026,10.0169513 43.3102821,10.4453317 L43.3102821,10.4453317 Z M28.3501975,16.7534948 L28.9145299,16.7534948 L28.9145299,18.8431554 L29.9034303,18.8431554 L29.9034303,19.3342257 L28.3501975,19.3342257 L28.3501975,16.7534948 Z M31.2588831,19.3316136 L31.2246012,19.1435442 L31.2140529,19.1435442 C31.0953849,19.2924325 30.9107901,19.3734068 30.6971877,19.3734068 C30.3306353,19.3734068 30.1143957,19.0991389 30.1143957,18.7987501 C30.1143957,18.312904 30.5363265,18.0804293 31.1744969,18.0830414 L31.1744969,18.0569206 C31.1744969,17.9576617 31.1217555,17.8166096 30.8448634,17.8166096 C30.6602687,17.8166096 30.4651257,17.8819115 30.3464577,17.9576617 L30.243612,17.5815228 C30.3701913,17.5083847 30.6154386,17.416962 30.945072,17.416962 C31.5463234,17.416962 31.7388294,17.7852647 31.7388294,18.2240935 L31.7388294,18.8745003 C31.7388294,19.0547336 31.7467406,19.2271306 31.7652001,19.3290015 L31.2588831,19.3290015 L31.2588831,19.3316136 Z M31.1929564,18.4461199 C30.8976048,18.4435078 30.6681799,18.5140339 30.6681799,18.7412845 C30.6681799,18.8901728 30.7631144,18.9633109 30.8896936,18.9633109 C31.0294582,18.9633109 31.1454892,18.8666641 31.1824081,18.7491207 C31.1903193,18.7177758 31.1929564,18.6838188 31.1929564,18.6498618 L31.1929564,18.4461199 Z M34.2809626,19.2845962 C34.180754,19.3316136 33.9935222,19.3681827 33.7799197,19.3681827 C33.1971278,19.3681827 32.8253012,18.99988 32.8253012,18.4121629 C32.8253012,17.8662391 33.1865795,17.416962 33.8590318,17.416962 C34.0067075,17.416962 34.1702057,17.4430828 34.2862367,17.4901002 L34.1965764,17.9237047 C34.1306497,17.8923598 34.0304411,17.8662391 33.8827654,17.8662391 C33.5874138,17.8662391 33.3949078,18.0830414 33.400182,18.3912663 C33.400182,18.7360603 33.6216957,18.9162936 33.8959507,18.9162936 C34.0278041,18.9162936 34.1332868,18.8927849 34.2176729,18.8588279 L34.2809626,19.2845962 Z M35.6337783,19.3316136 L35.5994964,19.1435442 L35.5889481,19.1435442 C35.4702801,19.2924325 35.2856853,19.3734068 35.0720829,19.3734068 C34.7081675,19.3734068 34.4892909,19.0991389 34.4892909,18.7987501 C34.4892909,18.312904 34.9112217,18.0804293 35.5493921,18.0830414 L35.5493921,18.0569206 C35.5493921,17.9576617 35.4966507,17.8166096 35.2197586,17.8166096 C35.0351639,17.8166096 34.8400209,17.8819115 34.7213529,17.9576617 L34.6185072,17.5815228 C34.7450865,17.5083847 34.9903338,17.416962 35.3199672,17.416962 C35.9212186,17.416962 36.1137246,17.7852647 36.1137246,18.2240935 L36.1137246,18.8745003 C36.1137246,19.0547336 36.1216358,19.2271306 36.1400953,19.3290015 L35.6337783,19.3290015 L35.6337783,19.3316136 Z M35.5652145,18.4461199 C35.2698629,18.4435078 35.040438,18.5140339 35.040438,18.7412845 C35.040438,18.8901728 35.1353725,18.9633109 35.2619517,18.9633109 C35.4017163,18.9633109 35.5177473,18.8666641 35.5546662,18.7491207 C35.5625774,18.7177758 35.5652145,18.6838188 35.5652145,18.6498618 L35.5652145,18.4461199 Z M36.5567519,18.0569206 C36.5567519,17.8244459 36.5488407,17.623316 36.5409295,17.4587553 L37.0129646,17.4587553 L37.0393353,17.7121266 L37.0498836,17.7121266 C37.1263585,17.5945832 37.2872197,17.416962 37.5957566,17.416962 C37.8278185,17.416962 38.0124133,17.5397296 38.0915253,17.7356353 L38.0994365,17.7356353 C38.1653632,17.6389885 38.2471123,17.5632383 38.3314985,17.5109968 C38.431707,17.450919 38.5424639,17.4195741 38.6743172,17.4195741 C39.0224102,17.4195741 39.2834799,17.6729455 39.2834799,18.2319297 L39.2834799,19.3342257 L38.7376069,19.3342257 L38.7376069,18.3155161 C38.7376069,18.0438602 38.6532207,17.8871357 38.471263,17.8871357 C38.3420467,17.8871357 38.2497494,17.9785583 38.2128304,18.0908776 C38.197008,18.1326708 38.1917339,18.1953606 38.1917339,18.2397659 L38.1917339,19.3342257 L37.6458609,19.3342257 L37.6458609,18.2867833 C37.6458609,18.0490844 37.5641118,17.8897478 37.3874282,17.8897478 C37.2423895,17.8897478 37.1580034,18.0046791 37.1263585,18.1013259 C37.1078991,18.1483433 37.105262,18.2005848 37.105262,18.2476021 L37.105262,19.3368378 L36.559389,19.3368378 L36.559389,18.0569206 L36.5567519,18.0569206 Z M39.7317814,18.0882655 C39.7317814,17.8427304 39.7238702,17.6337643 39.715959,17.4613673 L40.2038165,17.4613673 L40.2301871,17.7225749 L40.2380984,17.7225749 C40.3699517,17.5240571 40.5782801,17.4195741 40.8393498,17.4195741 C41.2349099,17.4195741 41.588277,17.7748164 41.588277,18.3729818 C41.588277,19.0547336 41.1716203,19.3760189 40.7681489,19.3760189 C40.5492723,19.3760189 40.3805,19.2845962 40.2987509,19.1618287 L40.2908397,19.1618287 L40.2908397,20.0917277 L39.7291443,20.0917277 L39.7291443,18.0882655 L39.7317814,18.0882655 Z M40.2908397,18.5270943 C40.2908397,18.5741116 40.2934768,18.6159048 40.301388,18.6498618 C40.3383069,18.8065864 40.4675232,18.9241298 40.6310214,18.9241298 C40.8736317,18.9241298 41.0186704,18.7125516 41.0186704,18.3964905 C41.0186704,18.0987138 40.8894541,17.8714632 40.6389326,17.8714632 C40.4807086,17.8714632 40.340944,17.9942308 40.304025,18.1666278 C40.2961138,18.1979727 40.2934768,18.2345418 40.2934768,18.2711108 L40.2934768,18.5270943 L40.2908397,18.5270943 Z M42.3820343,18.5819479 C42.4004938,18.8222588 42.6299187,18.9371902 42.8909884,18.9371902 C43.0834943,18.9371902 43.2390813,18.9110694 43.3893942,18.86144 L43.4632321,19.2558634 C43.2786373,19.3316136 43.0544866,19.3707947 42.8092393,19.3707947 C42.1974396,19.3707947 41.8467096,19.0024921 41.8467096,18.4173871 C41.8467096,17.9419893 42.1315129,17.4195741 42.759135,17.4195741 C43.341927,17.4195741 43.5634406,17.8897478 43.5634406,18.3520852 C43.5634406,18.4513441 43.5528924,18.5401546 43.5449812,18.5819479 L42.3820343,18.5819479 Z M43.0413012,18.1823003 C43.0413012,18.0412482 42.9832858,17.8035493 42.7248531,17.8035493 C42.487517,17.8035493 42.3925826,18.0255757 42.3767602,18.1823003 L43.0413012,18.1823003 Z M45.6810059,18.3755939 C45.6810059,19.0599577 45.2116079,19.3734068 44.7290245,19.3734068 C44.201611,19.3734068 43.7955026,19.0129404 43.7955026,18.4095508 C43.7955026,17.8061613 44.1805145,17.4195612 44.7580323,17.4195612 C45.3118165,17.416962 45.6810059,17.8113855 45.6810059,18.3755939 L45.6810059,18.3755939 Z M44.3730204,18.3938784 C44.3730204,18.7151637 44.5022367,18.9554747 44.7422099,18.9554747 C44.9610865,18.9554747 45.1008511,18.7308362 45.1008511,18.3938784 C45.1008511,18.1143863 44.9980054,17.8322821 44.7422099,17.8322821 C44.473229,17.8322821 44.3730204,18.1169984 44.3730204,18.3938784 Z M46.0290989,18.0569206 C46.0290989,17.8244459 46.0211877,17.623316 46.0132765,17.4587553 L46.501134,17.4587553 L46.5275047,17.7147387 L46.5380529,17.7147387 C46.6118908,17.5971953 46.7964856,17.416962 47.0944742,17.416962 C47.4636637,17.416962 47.7405558,17.6703334 47.7405558,18.2214814 L47.7405558,19.3316136 L47.1788604,19.3316136 L47.1788604,18.2946195 C47.1788604,18.0543085 47.0971113,17.8897478 46.8940571,17.8897478 C46.7384701,17.8897478 46.6461727,17.9994549 46.6092538,18.1065501 C46.5934313,18.140507 46.5881572,18.1979727 46.5881572,18.2528263 L46.5881572,19.3316136 L46.0264618,19.3316136 L46.0264618,18.0569206 L46.0290989,18.0569206 Z M49.2173136,19.3316136 L49.1830318,19.1435442 L49.1724835,19.1435442 C49.0538154,19.2924325 48.8692207,19.3734068 48.6556182,19.3734068 C48.2917029,19.3734068 48.0728263,19.0991389 48.0728263,18.7987501 C48.0728263,18.312904 48.49212,18.0804293 49.1329275,18.0830414 L49.1329275,18.0569206 C49.1329275,17.9576617 49.0801861,17.8166096 48.803294,17.8166096 C48.6186993,17.8166096 48.4235563,17.8819115 48.3048882,17.9576617 L48.2020426,17.5815228 C48.3286218,17.5083847 48.5738691,17.416962 48.9035026,17.416962 C49.504754,17.416962 49.6972599,17.7852647 49.6972599,18.2240935 L49.6972599,18.8745003 C49.6972599,19.0547336 49.7051712,19.2271306 49.7236306,19.3290015 L49.2173136,19.3290015 L49.2173136,19.3316136 Z M49.1513869,18.4461199 C48.8560354,18.4435078 48.6266105,18.5140339 48.6266105,18.7412845 C48.6266105,18.8901728 48.7215449,18.9633109 48.8481242,18.9633109 C48.9878888,18.9633109 49.1039197,18.8666641 49.1408387,18.7491207 C49.1487499,18.7177758 49.1513869,18.6838188 49.1513869,18.6498618 L49.1513869,18.4461199 Z M52.6349533,16.6150548 L52.6349533,18.7726294 C52.6349533,18.9842075 52.6428645,19.206234 52.6507757,19.3316136 L52.1523699,19.3316136 L52.1259992,19.0573456 L52.118088,19.0573456 C52.0046941,19.2689238 51.7858175,19.3760189 51.5537556,19.3760189 C51.1265506,19.3760189 50.7837182,18.9972679 50.7837182,18.414775 C50.7810947,17.7826527 51.1608325,17.4195741 51.5906745,17.4195741 C51.8121882,17.4195741 51.9862347,17.5005485 52.0653467,17.6311523 L52.0732579,17.6311523 L52.0732579,16.6176668 L52.6349533,16.6176668 L52.6349533,16.6150548 Z M52.0732579,18.2528263 C52.0732579,18.2214814 52.0706208,18.1796882 52.0653467,18.1483433 C52.0310648,17.9916187 51.9097597,17.8610149 51.7357132,17.8610149 C51.4799177,17.8610149 51.3480643,18.0987138 51.3480643,18.3938784 C51.3480643,18.7125516 51.4983771,18.9110694 51.7330762,18.9110694 C51.8965744,18.9110694 52.0257907,18.7961381 52.0574355,18.6315773 C52.0679837,18.5897841 52.0732579,18.5479909 52.0732579,18.4983614 L52.0732579,18.2528263 Z M53.5183709,18.5819479 C53.5368304,18.8222588 53.7662553,18.9371902 54.027325,18.9371902 C54.2198309,18.9371902 54.3754179,18.9110694 54.5257308,18.86144 L54.5995687,19.2558634 C54.4149739,19.3316136 54.1908232,19.3707947 53.9455759,19.3707947 C53.3337762,19.3707947 52.9830462,19.0024921 52.9830462,18.4173871 C52.9830462,17.9419893 53.2678495,17.4195741 53.8954716,17.4195741 C54.4782636,17.4195741 54.6997772,17.8897478 54.6997772,18.3520852 C54.6997772,18.4513441 54.689229,18.5401546 54.6813178,18.5819479 L53.5183709,18.5819479 Z M54.1776379,18.1823003 C54.1776379,18.0412482 54.1196224,17.8035493 53.8611897,17.8035493 C53.6238537,17.8035493 53.5289192,18.0255757 53.5130968,18.1823003 L54.1776379,18.1823003 Z M55.780975,16.6150548 L56.3426704,16.6150548 L56.3426704,19.3316136 L55.780975,19.3316136 L55.780975,16.6150548 Z M58.5789037,18.3755939 C58.5789037,19.0599577 58.1095057,19.3734068 57.6269223,19.3734068 C57.0995088,19.3734068 56.6934004,19.0129404 56.6934004,18.4095508 C56.6934004,17.8061613 57.0784122,17.4195612 57.6559301,17.4195612 C58.2097143,17.416962 58.5789037,17.8113855 58.5789037,18.3755939 Z M57.2709182,18.3938784 C57.2709182,18.7151637 57.4001345,18.9554747 57.6401077,18.9554747 C57.8589843,18.9554747 57.9987489,18.7308362 57.9987489,18.3938784 C57.9987489,18.1143863 57.8959032,17.8322821 57.6401077,17.8322821 C57.3711268,17.8322821 57.2709182,18.1169984 57.2709182,18.3938784 Z M58.9217225,18.8222588 C59.0245682,18.8875607 59.2381706,18.9633109 59.4043059,18.9633109 C59.5730782,18.9633109 59.6442791,18.9032332 59.6442791,18.8065864 C59.6442791,18.7099396 59.5889006,18.6655343 59.3779352,18.5923962 C59.0061087,18.4617924 58.86107,18.2528263 58.8663441,18.0307999 C58.8663441,17.6833938 59.1537845,17.4195741 59.5994489,17.4195741 C59.8104143,17.4195741 59.9976461,17.4692036 60.108403,17.5266692 L60.0081944,17.9289289 C59.9264453,17.8819115 59.7708583,17.8218338 59.6179084,17.8218338 C59.4807809,17.8218338 59.4043059,17.8792995 59.4043059,17.9759463 C59.4043059,18.0647568 59.4755067,18.1091621 59.6970204,18.1901365 C60.0398392,18.312904 60.1848779,18.4931373 60.187515,18.7674052 C60.187515,19.1148113 59.9211712,19.3707947 59.4043059,19.3707947 C59.1669698,19.3707947 58.9586415,19.3159412 58.821514,19.240191 L58.9217225,18.8222588 Z M61.2739869,18.0882655 C61.2739869,17.8427304 61.2660756,17.6337643 61.2581644,17.4613673 L61.746022,17.4613673 L61.7723926,17.7225749 L61.7803038,17.7225749 C61.9121572,17.5240571 62.1204856,17.4195741 62.3815553,17.4195741 C62.7771154,17.4195741 63.1304825,17.7748164 63.1304825,18.3729818 C63.1304825,19.0547336 62.7138258,19.3760189 62.3103544,19.3760189 C62.0914778,19.3760189 61.9227055,19.2845962 61.8409564,19.1618287 L61.8330452,19.1618287 L61.8330452,20.0917277 L61.2713498,20.0917277 L61.2713498,18.0882655 L61.2739869,18.0882655 Z M61.8330452,18.5270943 C61.8330452,18.5741116 61.8356823,18.6159048 61.8435935,18.6498618 C61.8805124,18.8065864 62.0097287,18.9241298 62.1732269,18.9241298 C62.4158371,18.9241298 62.5608759,18.7125516 62.5608759,18.3964905 C62.5608759,18.0987138 62.4316595,17.8714632 62.1811381,17.8714632 C62.0229141,17.8714632 61.8831495,17.9942308 61.8462305,18.1666278 C61.8383193,18.1979727 61.8356823,18.2345418 61.8356823,18.2711108 L61.8356823,18.5270943 L61.8330452,18.5270943 Z M63.4812125,18.0752051 C63.4812125,17.8009372 63.4733013,17.620704 63.4653901,17.4587553 L63.9479734,17.4587553 L63.9664329,17.8035493 L63.9822553,17.8035493 C64.0745527,17.5318934 64.2960664,17.416962 64.4701128,17.416962 C64.5228542,17.416962 64.5465878,17.416962 64.5887809,17.4247983 L64.5887809,17.9707221 C64.5492249,17.9628859 64.5017576,17.9550497 64.438468,17.9550497 C64.2327767,17.9550497 64.0903751,18.069981 64.0534561,18.2502142 C64.0455449,18.2893954 64.0429079,18.3338006 64.0429079,18.380818 L64.0429079,19.3290015 L63.4812125,19.3290015 L63.4812125,18.0752051 Z M65.2849667,18.5819479 C65.3034262,18.8222588 65.5328511,18.9371902 65.7939208,18.9371902 C65.9864267,18.9371902 66.1420137,18.9110694 66.2923266,18.86144 L66.3661644,19.2558634 C66.1815697,19.3316136 65.957419,19.3707947 65.7121717,19.3707947 C65.100372,19.3707947 64.749642,19.0024921 64.749642,18.4173871 C64.749642,17.9419893 65.0344453,17.4195741 65.6620674,17.4195741 C66.2448593,17.4195741 66.466373,17.8897478 66.466373,18.3520852 C66.466373,18.4513441 66.4558247,18.5401546 66.4479135,18.5819479 L65.2849667,18.5819479 Z M65.9468707,18.1823003 C65.9468707,18.0412482 65.8888552,17.8035493 65.6304226,17.8035493 C65.3930865,17.8035493 65.2981521,18.0255757 65.2823297,18.1823003 L65.9468707,18.1823003 Z M68.1567334,19.2845962 C68.0565248,19.3316136 67.869293,19.3681827 67.6556905,19.3681827 C67.0728986,19.3681827 66.701072,18.99988 66.701072,18.4121629 C66.701072,17.8662391 67.0623503,17.416962 67.7348026,17.416962 C67.8824783,17.416962 68.0433395,17.4430828 68.1620075,17.4901002 L68.0723472,17.9237047 C68.0064205,17.8923598 67.9062119,17.8662391 67.7585362,17.8662391 C67.4631846,17.8662391 67.2706786,18.0830414 67.2759528,18.3912663 C67.2759528,18.7360603 67.4974665,18.9162936 67.7717215,18.9162936 C67.9035749,18.9162936 68.0090576,18.8927849 68.0934437,18.8588279 L68.1567334,19.2845962 Z M69.0480622,16.9389522 C69.0480622,17.1009009 68.9293942,17.2288926 68.7447995,17.2288926 C68.5681159,17.2288926 68.4494479,17.0982888 68.4520849,16.9389522 C68.4494479,16.7717793 68.5654789,16.6437876 68.7474365,16.6437876 C68.9293942,16.6437876 69.0427881,16.7717793 69.0480622,16.9389522 Z M68.4679074,19.3316136 L68.4679074,17.4613673 L69.0296028,17.4613673 L69.0296028,19.3316136 L68.4679074,19.3316136 Z M71.260562,18.3755939 C71.260562,19.0599577 70.7911639,19.3734068 70.3085806,19.3734068 C69.781167,19.3734068 69.3750586,19.0129404 69.3750586,18.4095508 C69.3750586,17.8061613 69.7600705,17.4195612 70.3375883,17.4195612 C70.8913725,17.416962 71.260562,17.8113855 71.260562,18.3755939 Z M69.9552135,18.3938784 C69.9552135,18.7151637 70.0844298,18.9554747 70.324403,18.9554747 C70.5432796,18.9554747 70.6830442,18.7308362 70.6830442,18.3938784 C70.6830442,18.1143863 70.5801985,17.8322821 70.324403,17.8322821 C70.0554221,17.8322821 69.9552135,18.1169984 69.9552135,18.3938784 Z M71.6060178,18.8222588 C71.7088635,18.8875607 71.922466,18.9633109 72.0886012,18.9633109 C72.2573735,18.9633109 72.3285744,18.9032332 72.3285744,18.8065864 C72.3285744,18.7099396 72.2731959,18.6655343 72.0622305,18.5923962 C71.690404,18.4617924 71.5453653,18.2528263 71.5506394,18.0307999 C71.5506394,17.6833938 71.8380798,17.4195741 72.2837442,17.4195741 C72.4947096,17.4195741 72.6819414,17.4692036 72.7926983,17.5266692 L72.6924897,17.9289289 C72.6107406,17.8819115 72.4551536,17.8218338 72.3022037,17.8218338 C72.1650762,17.8218338 72.0886012,17.8792995 72.0886012,17.9759463 C72.0886012,18.0647568 72.159802,18.1091621 72.3813157,18.1901365 C72.7241345,18.312904 72.8691732,18.4931373 72.8718103,18.7674052 C72.8718103,19.1148113 72.6054665,19.3707947 72.0886012,19.3707947 C71.8512651,19.3707947 71.6429368,19.3159412 71.5058093,19.240191 L71.6060178,18.8222588 Z M73.9424598,19.3316136 C73.950371,19.208846 73.9582822,18.9842075 73.9582822,18.7726294 L73.9582822,16.6150548 L74.5199776,16.6150548 L74.5199776,17.6833938 L74.5278888,17.6833938 C74.6360085,17.5214451 74.8232403,17.4195741 75.0737618,17.4195741 C75.5062409,17.4195741 75.822689,17.7904889 75.8200683,18.3651456 C75.8200683,19.0390611 75.4060323,19.3760189 74.9946497,19.3760189 C74.7836843,19.3760189 74.5806301,19.2950445 74.4514138,19.0730181 L74.4435026,19.0730181 L74.4224061,19.3342257 L73.9424598,19.3342257 L73.9424598,19.3316136 Z M74.5173405,18.5349305 C74.5173405,18.5741116 74.5199776,18.6080686 74.5278888,18.6394135 C74.5648077,18.7961381 74.694024,18.9136815 74.8575222,18.9136815 C75.0974954,18.9136815 75.2451712,18.7229999 75.2451712,18.3860422 C75.2451712,18.0961017 75.1185919,17.8662391 74.8575222,17.8662391 C74.7072094,17.8662391 74.5648077,17.9837825 74.5278888,18.1535674 C74.5199776,18.1875244 74.5173405,18.2214814 74.5173405,18.2606625 L74.5173405,18.5349305 Z M77.18869,19.3316136 L77.1544081,19.1435442 L77.1438599,19.1435442 C77.0251918,19.2924325 76.8405971,19.3734068 76.6269946,19.3734068 C76.2630793,19.3734068 76.0442027,19.0991389 76.0442027,18.7987501 C76.0442027,18.312904 76.4634964,18.0804293 77.1043038,18.0830414 L77.1043038,18.0569206 C77.1043038,17.9576617 77.0515625,17.8166096 76.7746704,17.8166096 C76.5900757,17.8166096 76.3949327,17.8819115 76.2762646,17.9576617 L76.173419,17.5815228 C76.2999982,17.5083847 76.5452455,17.416962 76.874879,17.416962 C77.4761304,17.416962 77.6686363,17.7852647 77.6686363,18.2240935 L77.6686363,18.8745003 C77.6686363,19.0547336 77.6765475,19.2271306 77.695007,19.3290015 L77.18869,19.3290015 L77.18869,19.3316136 Z M77.1227633,18.4461199 C76.8274117,18.4435078 76.5979869,18.5140339 76.5979869,18.7412845 C76.5979869,18.8901728 76.6929213,18.9633109 76.8195005,18.9633109 C76.9592651,18.9633109 77.0752961,18.8666641 77.112215,18.7491207 C77.1201263,18.7177758 77.1227633,18.6838188 77.1227633,18.6498618 L77.1227633,18.4461199 Z M77.7398371,19.6764076 C77.8875129,19.6659593 78.0009068,19.6293903 78.0721077,19.5536401 C78.1538568,19.4648295 78.1828645,19.3159412 78.1828645,18.9450264 L78.1828645,17.4613673 L78.747197,17.4613673 L78.747197,19.0834664 C78.747197,19.4935623 78.6601737,19.7417095 78.4940385,19.9010461 C78.3279032,20.0603828 78.0668335,20.1309088 77.7978526,20.1309088 L77.7398371,19.6764076 Z M78.7630194,16.9389522 C78.7630194,17.1009009 78.6496255,17.2288926 78.4597566,17.2288926 C78.2830731,17.2288926 78.1670421,17.0982888 78.1670421,16.9389522 C78.1670421,16.7717793 78.280436,16.6437876 78.4650307,16.6437876 C78.6469884,16.6437876 78.7577453,16.7717793 78.7630194,16.9389522 Z M80.970245,18.3755939 C80.970245,19.0599577 80.500847,19.3734068 80.0182636,19.3734068 C79.4908501,19.3734068 79.0847416,19.0129404 79.0847416,18.4095508 C79.0847416,17.8061613 79.4697535,17.4195612 80.0472713,17.4195612 C80.6010555,17.416962 80.970245,17.8113855 80.970245,18.3755939 Z M79.6622595,18.3938784 C79.6622595,18.7151637 79.7914758,18.9554747 80.0314489,18.9554747 C80.2503255,18.9554747 80.3900901,18.7308362 80.3900901,18.3938784 C80.3900901,18.1143863 80.2872445,17.8322821 80.0314489,17.8322821 C79.762468,17.8322821 79.6622595,18.1169984 79.6622595,18.3938784 Z M81.3130638,18.8222588 C81.4159094,18.8875607 81.6295119,18.9633109 81.7956472,18.9633109 C81.9644195,18.9633109 82.0356203,18.9032332 82.0356203,18.8065864 C82.0356203,18.7099396 81.9802419,18.6655343 81.7692765,18.5923962 C81.39745,18.4617924 81.2524112,18.2528263 81.2576854,18.0307999 C81.2576854,17.6833938 81.5451257,17.4195741 81.9907902,17.4195741 C82.2017556,17.4195741 82.3889874,17.4692036 82.4997442,17.5266692 L82.3995357,17.9289289 C82.3177866,17.8819115 82.1621996,17.8218338 82.0092496,17.8218338 C81.8721221,17.8218338 81.7956472,17.8792995 81.7956472,17.9759463 C81.7956472,18.0647568 81.866848,18.1091621 82.0883617,18.1901365 C82.4311805,18.312904 82.5762192,18.4931373 82.5788563,18.7674052 C82.5788563,19.1148113 82.3125124,19.3707947 81.7956472,19.3707947 C81.5583111,19.3707947 81.3499827,19.3159412 81.2128552,19.240191 L81.3130638,18.8222588 Z M49.1698464,11.0931265 L48.6608924,12.8876226 L46.7701149,12.8876226 L49.233136,4.99131739 L51.6249564,4.99131739 L54.1248965,12.8876226 L52.1629182,12.8876226 L51.611771,11.0879023 L49.1698464,11.0931265 Z M51.2795005,9.63820026 L50.7758206,7.84892833 C50.633419,7.38136676 50.4883802,6.7936497 50.3697122,6.32608813 L50.3459786,6.32608813 C50.2273105,6.7936497 50.1060054,7.39181506 49.974152,7.84892833 L49.5021169,9.63820026 L51.2795005,9.63820026 Z M59.6732868,10.9442382 C59.6732868,11.730473 59.6970204,12.3678195 59.7181169,12.8719501 L58.2070772,12.8719501 L58.1279652,12.0256376 L58.0936833,12.0256376 C57.8748067,12.3939402 57.3500302,13.0077781 56.3400333,13.0077781 C55.2060942,13.0077781 54.3701438,12.247664 54.3701438,10.3930902 L54.3701438,6.8693999 L56.1237938,6.8693999 L56.1475274,9.87851124 C56.1475274,10.7509446 56.4112341,11.2785839 57.0177597,11.2785839 C57.497706,11.2785839 57.7745981,10.9233416 57.887992,10.628177 C57.9328222,10.5184698 57.9460075,10.3695815 57.9460075,10.2233052 L57.9222739,6.8693999 L59.6759239,6.8693999 L59.6759239,10.9442382 L59.6732868,10.9442382 Z M60.5171484,8.95644847 C60.5171484,8.0683427 60.4934148,7.48584979 60.4696812,6.96865878 L62.0334623,6.96865878 L62.0941149,8.08140308 L62.1415821,8.08140308 C62.4395707,7.2037456 63.1542161,6.83283084 63.7159115,6.83283084 C63.8820467,6.83283084 63.9664329,6.83283084 64.0982863,6.85633952 L64.0982863,8.62210277 C63.9664329,8.59859409 63.8108459,8.57247333 63.6077917,8.57247333 C62.9406136,8.57247333 62.487038,8.94338809 62.3683699,9.52326893 C62.3446363,9.64603649 62.331451,9.79492481 62.331451,9.94381313 L62.331451,13.0077781 L60.5171484,13.0077781 L60.5171484,8.95644847 Z M64.4674758,8.91204319 C64.4674758,8.02393741 64.4437421,7.4414445 64.4200085,6.92425349 L65.9837896,6.92425349 L66.0444422,8.03699779 L66.0919094,8.03699779 C66.3898981,7.15934031 67.1045434,6.78842555 67.6662388,6.78842555 C67.8323741,6.78842555 67.9167602,6.78842555 68.0486136,6.81193423 L68.0486136,8.57769748 C67.9167602,8.5541888 67.7611732,8.52806804 67.558119,8.52806804 C66.8909409,8.52806804 66.4373653,8.89898281 66.3186972,9.47886364 C66.2949636,9.6016312 66.2817783,9.75051952 66.2817783,9.89940784 L66.2817783,12.9633728 L64.4674758,12.9633728 L64.4674758,8.91204319 Z M73.8053322,8.91204319 C73.8053322,8.02393741 73.7815986,7.4414445 73.757865,6.92425349 L75.3216461,6.92425349 L75.3822987,8.03699779 L75.4297659,8.03699779 C75.7277545,7.15934031 76.4423999,6.78842555 77.0040953,6.78842555 C77.1702305,6.78842555 77.2546167,6.78842555 77.3864701,6.81193423 L77.3864701,8.57769748 C77.2546167,8.5541888 77.0990297,8.52806804 76.8959755,8.52806804 C76.2287974,8.52806804 75.7752218,8.89898281 75.6565537,9.47886364 C75.6328201,9.6016312 75.6196348,9.75051952 75.6196348,9.89940784 L75.6196348,12.9633728 L73.8053322,12.9633728 L73.8053322,8.91204319 Z M69.6519507,10.523694 C69.7073291,11.3020926 70.3956038,11.6730073 71.1814499,11.6730073 C71.7589678,11.6730073 72.2230917,11.5868088 72.6766673,11.4248601 L72.898181,12.696941 C72.3443968,12.9450882 71.6693075,13.0678558 70.9362027,13.0678558 C69.0955294,13.0678558 68.0433395,11.8819734 68.0433395,9.9908305 C68.0433395,8.46015407 68.8977494,6.76752894 70.7806157,6.76752894 C72.5316286,6.76752894 73.1961696,8.28775707 73.1961696,9.78186443 C73.1961696,10.1031498 73.1618877,10.387866 73.1407912,10.523694 L69.6519507,10.523694 Z M71.6350256,9.23855266 C71.6350256,8.78143939 71.458342,8.01610118 70.6830442,8.01610118 C69.973673,8.01610118 69.6862326,8.73180995 69.6414024,9.23855266 L71.6350256,9.23855266 Z M81.0308976,12.8850105 L80.9280519,12.2920693 L80.89377,12.2920693 C80.5324918,12.764855 79.9681593,13.0182264 79.3115295,13.0182264 C78.1934128,13.0182264 77.5262347,12.145793 77.5262347,11.2028337 C77.5262347,9.66432102 78.8131237,8.92510356 80.7698279,8.93816394 L80.7698279,8.85457752 C80.7698279,8.53851634 80.6116038,8.09185138 79.7651051,8.09185138 C79.2007726,8.09185138 78.6021583,8.29820537 78.24088,8.53851634 L77.9244319,7.35263392 C78.3094438,7.12277125 79.0662822,6.83283084 80.0710049,6.83283084 C81.9116781,6.83283084 82.4997442,7.99520457 82.4997442,9.38744098 L82.4997442,11.4457567 C82.4997442,12.0151893 82.5234778,12.558501 82.5788563,12.8876226 L81.0308976,12.8876226 L81.0308976,12.8850105 Z M80.8278433,10.0874773 C79.9233291,10.0744169 79.2245062,10.3042796 79.2245062,11.0199884 C79.2245062,11.4927741 79.5172207,11.7226368 79.9022326,11.7226368 C80.3320746,11.7226368 80.6828046,11.419636 80.7935615,11.043497 C80.8172951,10.9468502 80.8278433,10.8371431 80.8278433,10.7274359 L80.8278433,10.0874773 Z" id="Shape" fill="#FFFFFF" fill-rule="nonzero"></path>
                    <path d="M34.2810853,22.7821243 C34.2810853,22.7821243 11.6748366,23.2092836 0.201868156,3.73246397 L0.201868156,21.1474187 C2.90238923,23.0860646 10.3415605,24.375757 21.3559499,24.3921862 C30.2133193,24.3921862 103.569739,24.3921862 104.317053,24.3921862 L104.317053,22.7985535 L34.2810853,22.7821243 Z" id="Path" fill="#FFD100"></path>
                    <path d="M21.8233272,25.9259506 C14.5087114,26.0013816 4.84150708,25.0207782 0.221305179,22.4477418 C0.18891014,24.7162603 0.1970089,26.0125566 0.245601458,26.3366306 C0.274721455,26.5308381 0.348894921,26.7937094 0.471787324,27.0255901 C0.614385319,27.2946524 0.808944439,27.5219887 0.859489403,27.5519084 C0.86561312,27.5555333 64.6348406,28.1651864 103.654524,27.5519084 C104.112569,27.0657973 104.333694,26.4986677 104.317899,25.8505195 C101.673318,25.8505195 30.4809267,25.8169946 21.8148808,25.9091881" id="Path" fill="#D02326"></path>
                    <g id="Group" transform="translate(85.883372, 0.000000)">
                        <path d="M8.09757506,7.99229148 L14.5426952,15.5995062 C14.5426952,15.5995062 15.4189695,16.3259462 15.4189695,15.0036621 L15.4189695,12.6121236 C15.4189695,11.7061141 15.5090537,10.8001046 15.4189695,9.89409516 C15.2549047,8.88279197 14.8443439,7.92706814 14.2233055,7.11076874 C13.6780331,6.17484988 12.9514564,5.35635406 12.0858514,4.7029057 C12.0858514,4.7029057 11.3078509,4.22949535 10.2022712,5.51913046 C9.09669152,6.80876558 8.13033297,7.96780473 8.13033297,7.96780473" id="Path" fill="#F0D733" fill-rule="nonzero"></path>
                        <path d="M1.10350226,15.5921343 L1.69260221,14.8966253 C2.19873034,14.2839149 2.70485847,13.6877642 3.21928378,13.0833337 C3.89135556,12.2553467 4.55513016,11.4935987 5.2437963,10.6987312 C5.93246244,9.90386367 6.67091168,9.04275719 7.38446937,8.17337085 C8.09802706,7.3039845 8.91944813,6.39319881 9.69938328,5.50725272 C10.2221058,4.92766182 10.9190691,3.91751769 11.8400564,4.37291054 C12.2549155,4.57162741 13.1178224,5.55693194 13.2505774,5.57349168 C13.2505774,5.57349168 12.3378873,4.49710858 12.1470521,4.2735521 C11.7819761,3.85127873 9.89021847,1.64883332 9.31771288,0.96160411 C9.20155233,0.812566451 9.09368896,0.688368402 8.96923122,0.547610612 C8.69212251,0.201514586 8.27229783,0 7.82836863,0 C7.38443944,0 6.96461476,0.201514586 6.68750605,0.547610612 C5.42633431,1.79787098 2.44764581,5.51553259 2.44764581,5.51553259 C2.44764581,5.51553259 0.240595282,8.45488643 0.0995431806,9.43191108 C0,10.2892594 -0.0249110541,11.1535859 0.0248685385,12.0152305 C0.0248685385,12.9425759 0.0414629034,13.8616415 0.0746516332,14.7724272 C0.0746516332,15.4016973 0.481213573,16.2379642 1.10350226,15.5258954" id="Path" fill="#D02326"></path>
                    </g>
                    <path d="M100.188448,0.857799592 L100.315329,0.857799592 C100.453845,0.857799592 100.574631,0.818372352 100.574631,0.7066047 C100.574631,0.616779163 100.514792,0.554895539 100.333428,0.554895539 C100.261215,0.554895539 100.219106,0.560552491 100.188448,0.566209443 L100.188448,0.857799592 Z M100.188448,1.3845818 L100.001544,1.3845818 L100.001544,0.448784838 C100.103861,0.431985406 100.212458,0.420671502 100.351712,0.420671502 C100.520887,0.420671502 100.605289,0.448784838 100.671407,0.493183338 C100.732354,0.532439155 100.773724,0.605465259 100.773724,0.689805267 C100.773724,0.807572717 100.683966,0.880255976 100.574631,0.913854841 L100.574631,0.925168744 C100.665682,0.958596186 100.713886,1.03162229 100.744174,1.14956116 C100.773724,1.29475626 100.792563,1.35098293 100.816757,1.3845818 L100.623388,1.3845818 C100.5931,1.35098293 100.569275,1.26698577 100.544711,1.13807584 C100.520887,1.03727924 100.453845,0.992366474 100.309234,0.992366474 L100.188448,0.992366474 L100.188448,1.3845818 Z M100.357807,0.156680421 C99.922867,0.156680421 99.5906133,0.487526387 99.5906133,0.891055611 C99.5906133,1.30658443 99.922867,1.63091633 100.369812,1.63091633 C100.805121,1.63725897 101.124816,1.30658443 101.124816,0.897055408 C101.124816,0.487526387 100.805121,0.156680421 100.364087,0.156680421 L100.357807,0.156680421 Z M100.369812,0 C100.913349,0 101.342379,0.392386744 101.342379,0.891055611 C101.342379,1.40155265 100.913349,1.79393939 100.364087,1.79393939 C99.8142704,1.79393939 99.3793303,1.40155265 99.3793303,0.891055611 C99.3793303,0.392386744 99.8142704,0 100.364087,0 L100.369812,0 L100.369812,0 Z" id="Fill-14" fill="url(#linearGradient-1)"></path>
                </g>
            </g>
        </g>
    </g>
</svg>