<?xml version="1.0" encoding="UTF-8"?>
<svg width="190px" height="182px" viewBox="0 0 190 182" version="1.1" xmlns="http://www.w3.org/2000/svg" xmlns:xlink="http://www.w3.org/1999/xlink">
    <!-- Generator: Sketch 63.1 (92452) - https://sketch.com -->
    <title>vertical_svg copy</title>
    <desc>Created with Sketch.</desc>
    <defs>
        <linearGradient x1="27.9944719%" y1="72.3041054%" x2="45.7830207%" y2="45.5885187%" id="linearGradient-1">
            <stop stop-color="#00369B" offset="0%"></stop>
            <stop stop-color="#0075D5" offset="100%"></stop>
        </linearGradient>
        <linearGradient x1="-62.278022%" y1="106.181753%" x2="-309.803297%" y2="230.641535%" id="linearGradient-2">
            <stop stop-color="#00369B" offset="0%"></stop>
            <stop stop-color="#0075D5" offset="100%"></stop>
        </linearGradient>
        <linearGradient x1="77.3271914%" y1="31.2173063%" x2="57.1797853%" y2="51.6316928%" id="linearGradient-3">
            <stop stop-color="#00369B" offset="0%"></stop>
            <stop stop-color="#0075D5" offset="100%"></stop>
        </linearGradient>
        <linearGradient x1="51.2636972%" y1="-69.1718663%" x2="49.8346376%" y2="49.5050139%" id="linearGradient-4">
            <stop stop-color="#001660" offset="0%"></stop>
            <stop stop-color="#0075D5" offset="100%"></stop>
        </linearGradient>
        <linearGradient x1="6.51683588%" y1="75.8795181%" x2="42.1314889%" y2="55.0437177%" id="linearGradient-5">
            <stop stop-color="#F4A200" offset="0%"></stop>
            <stop stop-color="#FFB800" offset="100%"></stop>
        </linearGradient>
        <linearGradient x1="167.2039%" y1="46.1405661%" x2="42.5933148%" y2="50.6630831%" id="linearGradient-6">
            <stop stop-color="#001660" offset="0%"></stop>
            <stop stop-color="#0075D5" offset="100%"></stop>
        </linearGradient>
    </defs>
    <g id="Symbols" stroke="none" stroke-width="1" fill="none" fill-rule="evenodd">
        <g id="inicio_determinante" transform="translate(-255.000000, -281.000000)" fill-rule="nonzero">
            <g id="vertical_svg-copy" transform="translate(255.000000, 281.000000)">
                <g id="Group" transform="translate(0.000000, 145.000000)" fill="#000000">
                    <path d="M0.493632904,12.570273 C1.35324941,13.0416582 2.68174766,13.5130435 4.0102459,13.5130435 C5.72947892,13.5130435 6.66724239,12.7274014 6.66724239,11.5489383 C6.66724239,10.4490394 5.96391979,9.82052578 4.08839286,9.11344793 C1.66583724,8.24924166 0.181045082,6.99221436 0.181045082,4.87098079 C0.181045082,2.5140546 2.13471897,0.707077856 5.33874415,0.707077856 C6.90168326,0.707077856 8.07388759,1.02133468 8.85535714,1.41415571 L8.2301815,3.53538928 C7.68315281,3.22113246 6.66724239,2.82831143 5.33874415,2.82831143 C3.61951112,2.82831143 2.91618852,3.69251769 2.91618852,4.55672396 C2.91618852,5.65662285 3.77580504,6.2065723 5.72947892,6.91365015 C8.2301815,7.85642063 9.48053279,9.19201213 9.48053279,11.2346815 C9.48053279,13.5916077 7.68315281,15.634277 3.93209895,15.634277 C2.36915984,15.634277 0.806220726,15.1628918 0.024751171,14.6915066 L0.493632904,12.570273 Z" id="Path"></path>
                    <path d="M15.1071136,1.96410516 C15.1071136,2.74974722 14.5600849,3.37826087 13.6223214,3.37826087 C12.7627049,3.37826087 12.1375293,2.74974722 12.1375293,1.96410516 C12.1375293,1.17846309 12.7627049,0.549949444 13.6223214,0.549949444 C14.5600849,0.549949444 15.1071136,1.17846309 15.1071136,1.96410516 Z M12.2938232,15.4771486 L12.2938232,4.94954499 L14.9508197,4.94954499 L14.9508197,15.4771486 L12.2938232,15.4771486 Z" id="Shape"></path>
                    <path d="M18.3892857,13.0416582 C19.0144614,13.4344793 20.1085187,13.8273003 21.0462822,13.8273003 C22.2184865,13.8273003 22.7655152,13.3559151 22.7655152,12.6488372 C22.7655152,11.9417594 22.2966335,11.5489383 21.0462822,11.0775531 C19.0144614,10.3704752 18.1548448,9.27057634 18.1548448,8.01354904 C18.1548448,6.12800809 19.717784,4.71385238 22.1403396,4.71385238 C23.3125439,4.71385238 24.3284543,5.0281092 24.95363,5.34236603 L24.4066013,7.22790698 C23.9377196,6.99221436 23.078103,6.59939333 22.2184865,6.59939333 C21.2807231,6.59939333 20.7336944,7.07077856 20.7336944,7.69929221 C20.7336944,8.40637007 21.2025761,8.7206269 22.5310744,9.19201213 C24.4066013,9.89908999 25.3443648,10.8418605 25.3443648,12.4131446 C25.3443648,14.2986855 23.8595726,15.7128413 21.0462822,15.7128413 C19.7959309,15.7128413 18.6237266,15.3985844 17.842257,15.0057634 L18.3892857,13.0416582 Z" id="Path"></path>
                    <path d="M31.1272395,1.88554095 L31.1272395,4.87098079 L33.706089,4.87098079 L33.706089,6.83508595 L31.2053864,6.83508595 L31.2053864,11.4703741 C31.2053864,12.7274014 31.5179742,13.4344793 32.5338847,13.4344793 C33.0027664,13.4344793 33.3153542,13.3559151 33.5497951,13.3559151 L33.627942,15.3985844 C33.2372073,15.5557128 32.5338847,15.634277 31.6742681,15.634277 C30.7365047,15.634277 29.8768882,15.3200202 29.4080064,14.7700708 C28.8609778,14.1415571 28.5483899,13.1987867 28.5483899,11.7846309 L28.5483899,6.83508595 L27.0635978,6.83508595 L27.0635978,4.87098079 L28.5483899,4.87098079 L28.5483899,2.5140546 L31.1272395,1.88554095 Z" id="Path"></path>
                    <path d="M38.1604655,10.9204247 C38.2386124,12.8059656 39.7234046,13.6701719 41.3644906,13.6701719 C42.6148419,13.6701719 43.4744584,13.5130435 44.255928,13.1987867 L44.6466628,15.0057634 C43.7088993,15.3985844 42.536695,15.7128413 40.9737559,15.7128413 C37.5352898,15.7128413 35.5816159,13.5916077 35.5816159,10.3704752 C35.5816159,7.4635996 37.3008489,4.71385238 40.739315,4.71385238 C44.177781,4.71385238 45.2718384,7.5421638 45.2718384,9.82052578 C45.2718384,10.291911 45.1936915,10.6847321 45.1936915,10.9204247 L38.1604655,10.9204247 L38.1604655,10.9204247 Z M42.8492828,9.11344793 C42.8492828,8.17067745 42.458548,6.52082912 40.661168,6.52082912 C39.020082,6.52082912 38.3167594,8.01354904 38.2386124,9.11344793 L42.8492828,9.11344793 Z" id="Shape"></path>
                    <path d="M48.0851288,8.09211325 C48.0851288,6.83508595 48.0851288,5.89231547 48.0069819,4.94954499 L50.2732436,4.94954499 L50.4295375,6.52082912 L50.5076844,6.52082912 C50.9765662,5.73518706 51.9924766,4.71385238 53.7117096,4.71385238 C55.1183548,4.71385238 56.1342652,5.49949444 56.603147,6.67795753 L56.6812939,6.67795753 C57.0720287,6.12800809 57.4627635,5.65662285 57.9316452,5.34236603 C58.5568208,4.94954499 59.1819965,4.71385238 60.041613,4.71385238 C61.760846,4.71385238 63.558226,5.89231547 63.558226,9.27057634 L63.558226,15.4771486 L60.9793765,15.4771486 L60.9793765,9.66339737 C60.9793765,7.93498483 60.3542008,6.83508595 59.1038495,6.83508595 C58.1660861,6.83508595 57.5409104,7.4635996 57.2283226,8.24924166 C57.1501756,8.48493428 57.0720287,8.87775531 57.0720287,9.11344793 L57.0720287,15.4771486 L54.4931792,15.4771486 L54.4931792,9.34914055 C54.4931792,7.85642063 53.8680035,6.83508595 52.6957992,6.83508595 C51.6798888,6.83508595 51.0547131,7.62072801 50.8202722,8.32780586 C50.7421253,8.56349848 50.6639783,8.87775531 50.6639783,9.19201213 L50.6639783,15.3985844 L48.0851288,15.3985844 L48.0851288,8.09211325 L48.0851288,8.09211325 Z" id="Path"></path>
                    <path d="M72.9358607,15.4771486 L72.7795667,14.2986855 L72.7014198,14.2986855 C72.0762441,15.1628918 70.9821868,15.7128413 69.5755416,15.7128413 C67.4655738,15.7128413 66.2933694,14.2201213 66.2933694,12.570273 C66.2933694,9.89908999 68.6377781,8.56349848 72.5451259,8.56349848 L72.5451259,8.40637007 C72.5451259,7.69929221 72.310685,6.52082912 70.4351581,6.59939333 C69.4192477,6.59939333 68.3251903,6.91365015 67.6218677,7.38503539 L67.074839,5.65662285 C67.8563085,5.18523761 69.2629537,4.71385238 70.9040398,4.71385238 C74.2643589,4.71385238 75.2021224,6.83508595 75.2021224,9.19201213 L75.2021224,12.963094 C75.2021224,13.9058645 75.2802693,14.848635 75.3584163,15.4771486 L72.9358607,15.4771486 L72.9358607,15.4771486 Z M72.5451259,10.291911 C70.6695989,10.291911 68.872219,10.6847321 68.872219,12.2560162 C68.872219,13.2773509 69.5755416,13.7487361 70.3570111,13.7487361 C71.4510685,13.7487361 72.1543911,13.0416582 72.4669789,12.2560162 C72.5451259,12.0988878 72.5451259,11.8631951 72.5451259,11.7060667 L72.5451259,10.291911 Z" id="Shape"></path>
                    <polygon id="Path" points="86.455284 0.864206269 86.455284 15.4771486 83.7982875 15.4771486 83.7982875 0.864206269"></polygon>
                    <path d="M90.0500439,8.09211325 C90.0500439,6.83508595 90.0500439,5.89231547 89.971897,4.94954499 L92.3163056,4.94954499 L92.4725995,6.52082912 L92.5507465,6.52082912 C93.0196282,5.73518706 94.1136856,4.71385238 95.9110656,4.71385238 C97.7084456,4.71385238 99.6621194,5.89231547 99.6621194,9.27057634 L99.6621194,15.5557128 L97.005123,15.5557128 L97.005123,9.58483316 C97.005123,8.09211325 96.4580943,6.91365015 94.9733021,6.91365015 C93.8792447,6.91365015 93.1759221,7.69929221 92.9414813,8.48493428 C92.8633343,8.7206269 92.7851874,9.03488372 92.7851874,9.34914055 L92.7851874,15.5557128 L90.1281909,15.5557128 L90.1281909,8.09211325 L90.0500439,8.09211325 Z" id="Path"></path>
                    <path d="M106.07017,1.88554095 L106.07017,4.87098079 L108.570872,4.87098079 L108.570872,6.83508595 L106.07017,6.83508595 L106.07017,11.4703741 C106.07017,12.7274014 106.382758,13.4344793 107.398668,13.4344793 C107.86755,13.4344793 108.180138,13.3559151 108.414578,13.3559151 L108.492725,15.3985844 C108.101991,15.5557128 107.398668,15.634277 106.539052,15.634277 C105.601288,15.634277 104.741672,15.3200202 104.27279,14.7700708 C103.725761,14.1415571 103.413173,13.1987867 103.413173,11.7846309 L103.413173,6.83508595 L101.928381,6.83508595 L101.928381,4.87098079 L103.413173,4.87098079 L103.413173,2.5140546 L106.07017,1.88554095 Z" id="Path"></path>
                    <path d="M113.103396,10.9204247 C113.181543,12.8059656 114.666335,13.6701719 116.307421,13.6701719 C117.557772,13.6701719 118.417389,13.5130435 119.198858,13.1987867 L119.589593,15.0057634 C118.65183,15.3985844 117.479625,15.7128413 115.916686,15.7128413 C112.47822,15.7128413 110.524546,13.5916077 110.524546,10.3704752 C110.524546,7.4635996 112.243779,4.71385238 115.682245,4.71385238 C119.120711,4.71385238 120.214769,7.5421638 120.214769,9.82052578 C120.214769,10.291911 120.136622,10.6847321 120.136622,10.9204247 L113.103396,10.9204247 L113.103396,10.9204247 Z M117.714066,9.11344793 C117.714066,8.17067745 117.323331,6.52082912 115.525951,6.52082912 C113.884865,6.52082912 113.181543,8.01354904 113.103396,9.11344793 L117.714066,9.11344793 Z" id="Shape"></path>
                    <path d="M132.640135,4.94954499 C132.561988,5.65662285 132.561988,6.52082912 132.561988,8.01354904 L132.561988,13.9844287 C132.561988,16.1842265 132.093106,17.7555106 130.999049,18.7768453 C129.904991,19.7196158 128.420199,20.0338726 126.935407,20.0338726 C125.606909,20.0338726 124.200263,19.7196158 123.2625,19.1696663 L123.809529,17.126997 C124.512851,17.519818 125.606909,17.912639 126.85726,17.912639 C128.576493,17.912639 129.904991,16.9698686 129.904991,14.6915066 L129.904991,13.8273003 L129.826844,13.8273003 C129.201669,14.7700708 128.185758,15.3985844 126.779113,15.3985844 C124.200263,15.3985844 122.324737,13.1987867 122.324737,10.2133468 C122.324737,6.75652174 124.590998,4.63528817 127.091701,4.63528817 C128.732787,4.63528817 129.67055,5.42093023 130.139432,6.2851365 L130.217579,6.2851365 L130.295726,4.87098079 L132.640135,4.87098079 L132.640135,4.94954499 Z M129.904991,9.19201213 C129.904991,8.95631951 129.904991,8.7206269 129.826844,8.48493428 C129.514256,7.5421638 128.810934,6.75652174 127.63873,6.75652174 C126.153937,6.75652174 125.05988,8.01354904 125.05988,10.2133468 C125.05988,12.0203236 125.997643,13.4344793 127.63873,13.4344793 C128.65464,13.4344793 129.514256,12.8059656 129.748697,11.7846309 C129.826844,11.4703741 129.904991,11.1561173 129.904991,10.8418605 L129.904991,9.19201213 L129.904991,9.19201213 Z" id="Shape"></path>
                    <path d="M136.000454,8.32780586 C136.000454,6.91365015 136.000454,5.89231547 135.922307,4.94954499 L138.188569,4.94954499 L138.266715,6.99221436 L138.344862,6.99221436 C138.891891,5.49949444 140.064095,4.71385238 141.2363,4.71385238 C141.470741,4.71385238 141.627035,4.71385238 141.861475,4.79241658 L141.861475,7.30647118 C141.627035,7.22790698 141.392594,7.22790698 141.080006,7.22790698 C139.829655,7.22790698 138.970038,8.01354904 138.735597,9.27057634 C138.65745,9.50626896 138.65745,9.82052578 138.65745,10.0562184 L138.65745,15.5557128 L136.000454,15.5557128 L136.000454,8.32780586 Z" id="Path"></path>
                    <path d="M150.2232,15.4771486 L150.066906,14.2986855 L149.988759,14.2986855 C149.363583,15.1628918 148.269526,15.7128413 146.862881,15.7128413 C144.752913,15.7128413 143.580708,14.2201213 143.580708,12.570273 C143.580708,9.89908999 145.925117,8.56349848 149.832465,8.56349848 L149.832465,8.40637007 C149.832465,7.69929221 149.598024,6.52082912 147.722497,6.59939333 C146.706587,6.59939333 145.612529,6.91365015 144.909207,7.38503539 L144.362178,5.65662285 C145.143648,5.18523761 146.550293,4.71385238 148.191379,4.71385238 C151.551698,4.71385238 152.489461,6.83508595 152.489461,9.19201213 L152.489461,12.963094 C152.489461,13.9058645 152.567608,14.848635 152.645755,15.4771486 L150.2232,15.4771486 L150.2232,15.4771486 Z M149.910612,10.291911 C148.035085,10.291911 146.237705,10.6847321 146.237705,12.2560162 C146.237705,13.2773509 146.941028,13.7487361 147.722497,13.7487361 C148.816554,13.7487361 149.519877,13.0416582 149.832465,12.2560162 C149.910612,12.0988878 149.910612,11.8631951 149.910612,11.7060667 L149.910612,10.291911 Z" id="Shape"></path>
                    <polygon id="Path" points="155.927927 0.0785642063 158.584924 0.0785642063 158.584924 15.4771486 155.927927 15.4771486"></polygon>
                    <path d="M176.871311,0.0785642063 L176.871311,12.4917088 C176.871311,13.5916077 176.871311,14.7700708 176.949458,15.4771486 L174.60505,15.4771486 L174.448756,13.8273003 L174.370609,13.8273003 C173.745433,15.0057634 172.495082,15.7128413 170.932143,15.7128413 C168.43144,15.7128413 166.477766,13.5916077 166.477766,10.291911 C166.477766,6.75652174 168.665881,4.63528817 171.166584,4.63528817 C172.573229,4.63528817 173.667286,5.26380182 174.136168,6.04944388 L174.214315,6.04944388 L174.214315,0.0785642063 L176.871311,0.0785642063 L176.871311,0.0785642063 Z M174.214315,9.34914055 C174.214315,9.11344793 174.214315,8.87775531 174.136168,8.64206269 C173.901727,7.62072801 173.042111,6.75652174 171.869906,6.75652174 C170.150673,6.75652174 169.21291,8.24924166 169.21291,10.2133468 C169.21291,12.177452 170.150673,13.5916077 171.869906,13.5916077 C172.963964,13.5916077 173.901727,12.8845298 174.136168,11.7060667 C174.214315,11.4703741 174.214315,11.2346815 174.214315,10.9204247 L174.214315,9.34914055 Z" id="Shape"></path>
                    <path d="M182.263451,10.9204247 C182.341598,12.8059656 183.826391,13.6701719 185.467477,13.6701719 C186.717828,13.6701719 187.577444,13.5130435 188.358914,13.1987867 L188.749649,15.0057634 C187.811885,15.3985844 186.639681,15.7128413 185.076742,15.7128413 C181.638276,15.7128413 179.684602,13.5916077 179.684602,10.3704752 C179.684602,7.4635996 181.403835,4.71385238 184.842301,4.71385238 C188.280767,4.71385238 189.374824,7.5421638 189.374824,9.82052578 C189.374824,10.291911 189.296677,10.6847321 189.296677,10.9204247 L182.263451,10.9204247 L182.263451,10.9204247 Z M186.874122,9.11344793 C186.874122,8.17067745 186.483387,6.52082912 184.686007,6.52082912 C183.044921,6.52082912 182.341598,8.01354904 182.263451,9.11344793 L186.874122,9.11344793 Z" id="Shape"></path>
                    <polygon id="Path" points="51.3673009 22.076542 59.8071721 22.076542 59.8071721 24.2763397 54.0242974 24.2763397 54.0242974 28.2831143 59.3382904 28.2831143 59.3382904 30.482912 54.0242974 30.482912 54.0242974 36.6894843 51.3673009 36.6894843"></polygon>
                    <path d="M68.794072,36.6894843 L68.6377781,35.5110212 L68.5596311,35.5110212 C67.9344555,36.3752275 66.8403981,36.9251769 65.4337529,36.9251769 C63.3237851,36.9251769 62.1515808,35.432457 62.1515808,33.7826087 C62.1515808,31.1114257 64.4959895,29.7758342 68.4033372,29.7758342 L68.4033372,29.6187058 C68.4033372,28.9116279 68.1688964,27.7331648 66.2933694,27.811729 C65.277459,27.811729 64.1834016,28.1259858 63.480079,28.5973711 L62.9330504,26.8689585 C63.7145199,26.3975733 65.1211651,25.9261881 66.7622512,25.9261881 C70.1225703,25.9261881 71.0603337,28.0474216 71.0603337,30.4043478 L71.0603337,34.1754297 C71.0603337,35.1182002 71.1384807,36.0609707 71.2166276,36.6894843 L68.794072,36.6894843 L68.794072,36.6894843 Z M68.4033372,31.5042467 C66.5278103,31.5042467 64.7304303,31.8970677 64.7304303,33.4683519 C64.7304303,34.4896866 65.4337529,34.9610718 66.2152225,34.9610718 C67.3092799,34.9610718 68.0126025,34.2539939 68.3251903,33.4683519 C68.4033372,33.3112235 68.4033372,33.0755308 68.4033372,32.9184024 L68.4033372,31.5042467 Z" id="Shape"></path>
                    <path d="M74.4987998,29.5401416 C74.4987998,28.1259858 74.4987998,27.1046512 74.4206528,26.1618807 L76.6869145,26.1618807 L76.7650615,28.2045501 L76.8432084,28.2045501 C77.3902371,26.7118301 78.5624415,25.9261881 79.7346458,25.9261881 C79.9690867,25.9261881 80.1253806,25.9261881 80.3598214,26.0047523 L80.3598214,28.5188069 C80.1253806,28.4402427 79.8909397,28.4402427 79.5783519,28.4402427 C78.3280006,28.4402427 77.4683841,29.2258847 77.2339432,30.482912 C77.1557963,30.7186047 77.1557963,31.0328615 77.1557963,31.2685541 L77.1557963,36.7680485 L74.4987998,36.7680485 L74.4987998,29.5401416 L74.4987998,29.5401416 Z" id="Path"></path>
                    <path d="M82.782377,29.3044489 C82.782377,28.0474216 82.782377,27.1046512 82.7042301,26.1618807 L84.9704918,26.1618807 L85.1267857,27.7331648 L85.2049327,27.7331648 C85.6738144,26.9475228 86.6897248,25.9261881 88.4089578,25.9261881 C89.815603,25.9261881 90.8315135,26.7118301 91.3003952,27.8902932 L91.3785422,27.8902932 C91.7692769,27.3403438 92.1600117,26.8689585 92.6288934,26.5547017 C93.2540691,26.1618807 93.8792447,25.9261881 94.7388612,25.9261881 C96.4580943,25.9261881 98.2554742,27.1046512 98.2554742,30.482912 L98.2554742,36.6894843 L95.6766247,36.6894843 L95.6766247,30.8757331 C95.6766247,29.1473205 95.0514491,28.0474216 93.8010978,28.0474216 C92.8633343,28.0474216 92.2381587,28.6759353 91.9255708,29.4615774 C91.8474239,29.69727 91.7692769,30.090091 91.7692769,30.3257836 L91.7692769,36.6894843 L89.1904274,36.6894843 L89.1904274,30.5614762 C89.1904274,29.0687563 88.5652518,28.0474216 87.3930474,28.0474216 C86.377137,28.0474216 85.7519614,28.8330637 85.5175205,29.5401416 C85.4393735,29.7758342 85.3612266,30.090091 85.3612266,30.4043478 L85.3612266,36.6109201 L82.782377,36.6109201 L82.782377,29.3044489 L82.782377,29.3044489 Z" id="Path"></path>
                    <path d="M107.633109,36.6894843 L107.476815,35.5110212 L107.398668,35.5110212 C106.773492,36.3752275 105.679435,36.9251769 104.27279,36.9251769 C102.162822,36.9251769 100.990618,35.432457 100.990618,33.7826087 C100.990618,31.1114257 103.335026,29.7758342 107.242374,29.7758342 L107.242374,29.6187058 C107.242374,28.9116279 107.007933,27.7331648 105.132406,27.811729 C104.116496,27.811729 103.022439,28.1259858 102.319116,28.5973711 L101.772087,26.8689585 C102.553557,26.3975733 103.960202,25.9261881 105.601288,25.9261881 C108.961607,25.9261881 109.899371,28.0474216 109.899371,30.4043478 L109.899371,34.1754297 C109.899371,35.1182002 109.977518,36.0609707 110.055665,36.6894843 L107.633109,36.6894843 L107.633109,36.6894843 Z M107.242374,31.5042467 C105.366847,31.5042467 103.569467,31.8970677 103.569467,33.4683519 C103.569467,34.4896866 104.27279,34.9610718 105.054259,34.9610718 C106.148317,34.9610718 106.851639,34.2539939 107.164227,33.4683519 C107.242374,33.3112235 107.242374,33.0755308 107.242374,32.9184024 L107.242374,31.5042467 Z" id="Shape"></path>
                    <path d="M120.996238,36.3752275 C120.44921,36.6109201 119.355152,36.9251769 118.026654,36.9251769 C114.744482,36.9251769 112.634514,34.8039434 112.634514,31.5042467 C112.634514,28.3616785 114.744482,25.9261881 118.495536,25.9261881 C119.511446,25.9261881 120.44921,26.1618807 121.074385,26.3975733 L120.605504,28.4402427 C120.214769,28.2045501 119.511446,28.0474216 118.573683,28.0474216 C116.541862,28.0474216 115.369657,29.5401416 115.369657,31.5042467 C115.369657,33.7040445 116.776303,34.8825076 118.573683,34.8825076 C119.511446,34.8825076 120.136622,34.646815 120.68365,34.4896866 L120.996238,36.3752275 Z" id="Path"></path>
                    <path d="M126.466525,23.1764408 C126.466525,23.9620829 125.919496,24.5905966 124.981733,24.5905966 C124.122117,24.5905966 123.496941,23.9620829 123.496941,23.1764408 C123.496941,22.3907988 124.122117,21.7622851 124.981733,21.7622851 C125.84135,21.7622851 126.466525,22.3907988 126.466525,23.1764408 Z M123.653235,36.6894843 L123.653235,26.1618807 L126.310231,26.1618807 L126.310231,36.6894843 L123.653235,36.6894843 Z" id="Shape"></path>
                    <path d="M135.687866,36.6894843 L135.531572,35.5110212 L135.453425,35.5110212 C134.828249,36.3752275 133.734192,36.9251769 132.327547,36.9251769 C130.217579,36.9251769 129.045375,35.432457 129.045375,33.7826087 C129.045375,31.1114257 131.389783,29.7758342 135.297131,29.7758342 L135.297131,29.6187058 C135.297131,28.9116279 135.06269,27.7331648 133.187163,27.811729 C132.171253,27.811729 131.077196,28.1259858 130.373873,28.5973711 L129.826844,26.8689585 C130.608314,26.3975733 132.014959,25.9261881 133.656045,25.9261881 C137.016364,25.9261881 137.954128,28.0474216 137.954128,30.4043478 L137.954128,34.1754297 C137.954128,35.1182002 138.032275,36.0609707 138.110422,36.6894843 L135.687866,36.6894843 L135.687866,36.6894843 Z M135.375278,31.5042467 C133.499751,31.5042467 131.702371,31.8970677 131.702371,33.4683519 C131.702371,34.4896866 132.405694,34.9610718 133.187163,34.9610718 C134.281221,34.9610718 134.984543,34.2539939 135.297131,33.4683519 C135.375278,33.3112235 135.375278,33.0755308 135.375278,32.9184024 L135.375278,31.5042467 Z" id="Shape"></path>
                </g>
                <g id="Group" transform="translate(45.000000, 0.000000)">
                    <path d="M14.3973451,59.222228 L14.3973451,59.222228 C20.2486726,59.222228 29.7185841,59.222228 35.9548673,59.222228 C35.9548673,56.7253752 35.9548673,53.6823358 35.9548673,50.5612697 C35.7238938,50.4052164 35.4159292,50.3271898 35.1849558,50.1711365 C32.3362832,48.6886301 30.0265487,46.8940172 28.3327434,44.7872976 C26.6389381,42.680578 25.7150442,40.1056985 25.7150442,36.9846325 C25.7150442,34.5658063 26.1769912,32.3030334 27.0238938,30.1963139 C27.8707965,28.167621 29.179646,26.373008 30.8734513,24.8905016 C32.5672566,23.4079953 34.7230088,22.2375955 37.2637168,21.457329 C39.8044248,20.5990358 42.8070796,20.2089026 46.1946903,20.2089026 C49.9672566,20.2089026 53.200885,20.6770625 55.9725664,21.6133823 C58.7442478,22.5497021 61.1309735,23.6420752 63.2097345,24.812475 C65.2884956,25.9828747 67.059292,27.0752478 68.5221239,28.0115676 L80.840708,11.2358377 C76.9141593,8.11477169 72.4486726,5.61791886 67.3672566,3.74527924 C60.8230088,1.24842641 53.6628319,0 45.8867257,0 C38.9575221,0 32.8752212,1.09237311 27.4858407,3.19909268 C22.1734513,5.38383891 17.6309735,8.19279834 14.0123894,11.7820243 C10.3938053,15.3712502 7.62212389,19.4286361 5.69734513,24.0322085 C3.77256637,28.6357809 2.84867257,33.3954066 2.84867257,38.2330589 C2.84867257,44.3191377 3.69557522,49.4688966 5.46637168,53.6043091 C6.77522124,56.6473485 8.31504425,59.3782813 10.239823,61.6410542 C11.3176991,60.1585478 12.780531,59.222228 14.3973451,59.222228 Z" id="Path" fill="url(#linearGradient-1)"></path>
                    <g transform="translate(0.000000, 56.179189)" id="Path">
                        <path d="M53.0469027,3.12106603 L53.0469027,3.12106603 L53.0469027,3.12106603 C55.1256637,3.12106603 57.5123894,3.12106603 60.0530973,3.12106603 C58.6672566,2.57487948 57.2814159,2.02869292 55.8955752,1.56053302 C54.9716814,1.24842641 53.9707965,0.93631981 53.0469027,0.546186556 C53.0469027,1.48250637 53.0469027,2.34079953 53.0469027,3.12106603 Z" fill="url(#linearGradient-2)"></path>
                        <path d="M83.6893805,22.6277287 C82.6115044,20.2089026 81.3026549,18.102183 79.839823,16.1515167 C78.7619469,18.7263962 76.8371681,20.4429825 74.6814159,20.4429825 L74.6814159,20.4429825 C68.8300885,20.4429825 59.360177,20.4429825 53.1238938,20.4429825 C53.1238938,22.0815422 53.1238938,23.8761552 53.1238938,25.7487948 C53.3548673,25.9048481 53.5858407,25.9828747 53.8168142,26.138928 C56.6654867,27.6214344 58.9752212,29.494074 60.6690265,31.6788202 C62.3628319,33.8635665 63.2867257,36.7505525 63.2867257,40.2617518 C63.2867257,46.5038839 61.3619469,51.3415362 57.5893805,54.6966822 C53.739823,58.0518282 48.3504425,59.6903879 41.4212389,59.6903879 C36.8787611,59.6903879 32.9522124,59.0661747 29.7185841,57.8177483 C26.4849558,56.5693219 23.6362832,55.1648421 21.2495575,53.6043091 C18.7858407,52.0437761 16.7070796,50.6392964 14.9362832,49.39087 C14.2433628,48.8446834 13.4734513,48.4545502 12.780531,48.1424436 L0.307964602,65.2302801 C2.07876106,66.7908131 4.00353982,68.2733195 6.08230088,69.5997725 C9.39292035,71.7845188 12.8575221,73.5791317 16.5530973,75.1396648 C20.2486726,76.7001978 24.1752212,77.8705975 28.2557522,78.650864 C32.3362832,79.5091572 36.4168142,79.8992905 40.6513274,79.8992905 C47.9654867,79.8992905 54.3557522,78.8069173 60.0530973,76.5441445 C65.6734513,74.2813716 70.4469027,71.2383322 74.3734513,67.3369997 C78.3,63.4356671 81.2256637,58.8320947 83.3044248,53.6043091 C85.3061947,48.3765235 86.3840708,42.680578 86.3840708,36.6725259 C86.2300885,31.2106603 85.3831858,26.5290613 83.6893805,22.6277287 Z" fill="url(#linearGradient-3)"></path>
                    </g>
                    <g transform="translate(7.699115, 31.210660)" id="Path">
                        <path d="M28.2557522,67.1809464 C28.2557522,61.2509209 28.2557522,51.6536429 28.2557522,45.2554575 L45.3477876,45.2554575 C45.3477876,51.4975896 45.3477876,61.016841 45.3477876,67.1809464 L45.3477876,67.1809464 C45.3477876,70.5360924 41.4982301,73.2670251 36.8017699,73.2670251 C32.1053097,73.2670251 28.2557522,70.5360924 28.2557522,67.1809464 L28.2557522,67.1809464 Z" fill="url(#linearGradient-4)"></path>
                        <path d="M28.2557522,28.0895943 L28.2557522,45.3334841 L45.2707965,45.3334841 L45.3477876,45.3334841 C51.5840708,45.3334841 61.0539823,45.3334841 66.9053097,45.3334841 L66.9053097,45.3334841 C70.2159292,45.3334841 72.9106195,41.4321516 72.9106195,36.6725259 C72.9106195,31.9129002 70.2159292,28.0115676 66.9053097,28.0115676 L66.9053097,28.0115676 C60.9,28.0115676 51.5070796,28.0115676 45.3477876,28.0115676 L45.3477876,28.0115676 L45.3477876,28.0115676 C45.3477876,21.6914089 45.3477876,12.0161042 45.3477876,6.08607877 L45.3477876,6.08607877 C45.3477876,2.73093278 41.4982301,5.54412699e-15 36.8017699,5.54412699e-15 C32.1053097,5.54412699e-15 28.2557522,2.73093278 28.2557522,6.08607877 L28.2557522,6.08607877 C28.2557522,12.2501842 28.2557522,21.6914089 28.2557522,28.0115676" fill="url(#linearGradient-5)"></path>
                        <path d="M6.62123894,28.0115676 C12.4725664,28.0115676 21.9424779,28.0115676 28.2557522,28.0115676 L28.2557522,45.3334841 C22.0964602,45.3334841 12.7035398,45.3334841 6.62123894,45.3334841 L6.62123894,45.3334841 C3.31061947,45.3334841 0.615929204,41.4321516 0.615929204,36.6725259 C0.615929204,31.9129002 3.31061947,28.0115676 6.62123894,28.0115676 L6.62123894,28.0115676 Z" fill="url(#linearGradient-6)"></path>
                    </g>
                </g>
            </g>
        </g>
    </g>
</svg>