<?xml version="1.0" encoding="UTF-8"?>
<svg width="44px" height="45px" viewBox="0 0 44 45" version="1.1" xmlns="http://www.w3.org/2000/svg" xmlns:xlink="http://www.w3.org/1999/xlink">
    <!-- Generator: Sketch 63.1 (92452) - https://sketch.com -->
    <title>Shape Copy</title>
    <desc>Created with Sketch.</desc>
    <g id="Symbols" stroke="none" stroke-width="1" fill="none" fill-rule="evenodd">
        <g id="Escaneo_ticket" transform="translate(-77.000000, -76.000000)" fill="#1A75CF">
            <path d="M115.104012,98.8078801 L117.599718,96.2554547 C122.13317,91.6189719 122.133685,84.1144492 117.599718,79.4775269 C113.066437,74.841132 105.728592,74.8405168 101.194711,79.4775269 C100.227056,80.4669972 81.2779604,99.8469205 80.4002824,100.744545 C75.8668303,105.381028 75.8663147,112.885551 80.4002824,117.522473 C84.9335626,122.158868 92.2714077,122.159483 96.8052894,117.522473 L99.3010814,114.970048 C101.296203,118.565732 105.074094,120.997308 109.397171,120.997308 C115.793487,120.997308 120.997336,115.675192 120.997336,109.133509 C120.997336,104.712094 118.61988,100.848344 115.104012,98.8078801 Z M97.4919606,108.906928 C97.4919606,110.001011 97.6446079,111.06037 97.9290553,112.065523 L94.6352746,115.335301 C91.0564359,118.887973 85.2636002,118.888493 81.6843253,115.335301 C78.1054866,111.782629 78.1049632,106.03192 81.6843253,102.478728 L91.2326345,93 L100,101.703389 C98.4294769,103.689882 97.4919606,106.191768 97.4919606,108.906928 Z M116.622886,103.607696 C119.266914,107.219173 118.985259,112.376889 115.776829,115.658237 C112.56846,118.939522 107.525357,119.227577 103.994133,116.52346 L116.622886,103.607696 Z M114.800123,101.743383 L102.171309,114.659209 C99.5272819,111.047732 99.8089363,105.890015 103.017366,102.608668 C106.225796,99.3273209 111.2689,99.0392653 114.800123,101.743383 Z M115.352036,81.6661946 C118.882396,85.2208609 118.882913,90.974797 115.352036,94.5299831 L112.102873,97.8015964 C111.104057,97.5189767 110.051462,97.3674434 108.964277,97.3674434 C106.185869,97.3674434 103.632555,98.3553994 101.631481,100 L93,91.3088809 L102.576519,81.6661946 C106.106879,78.1115284 111.821246,78.1110085 115.352036,81.6661946 Z" id="Shape-Copy"></path>
        </g>
    </g>
</svg>