<?xml version="1.0" encoding="UTF-8"?>
<svg width="36px" height="41px" viewBox="0 0 36 41" version="1.1" xmlns="http://www.w3.org/2000/svg" xmlns:xlink="http://www.w3.org/1999/xlink">
    <!-- Generator: Sketch 63.1 (92452) - https://sketch.com -->
    <title>Elementos/icons/content/add_24px</title>
    <desc>Created with Sketch.</desc>
    <defs>
        <path d="M41.7916667,39.3333333 L18.1916667,39.3333333 L18.1916667,35.4 L41.7916667,35.4 L41.7916667,39.3333333 Z M41.7916667,31.4666667 L18.1916667,31.4666667 L18.1916667,27.5333333 L41.7916667,27.5333333 L41.7916667,31.4666667 Z M41.7916667,23.6 L18.1916667,23.6 L18.1916667,19.6666667 L41.7916667,19.6666667 L41.7916667,23.6 Z M12.2916667,49.1666667 L15.2416667,46.2166667 L18.1916667,49.1666667 L21.1416667,46.2166667 L24.0916667,49.1666667 L27.0416667,46.2166667 L29.9916667,49.1666667 L32.9416667,46.2166667 L35.8916667,49.1666667 L38.8416667,46.2166667 L41.7916667,49.1666667 L44.7416667,46.2166667 L47.6916667,49.1666667 L47.6916667,9.83333333 L44.7416667,12.7833333 L41.7916667,9.83333333 L38.8416667,12.7833333 L35.8916667,9.83333333 L32.9416667,12.7833333 L29.9916667,9.83333333 L27.0416667,12.7833333 L24.0916667,9.83333333 L21.1416667,12.7833333 L18.1916667,9.83333333 L15.2416667,12.7833333 L12.2916667,9.83333333 L12.2916667,49.1666667 Z" id="path-1"></path>
    </defs>
    <g id="Symbols" stroke="none" stroke-width="1" fill="none" fill-rule="evenodd">
        <g id="Escaneo_ticket" transform="translate(-259.000000, -78.000000)">
            <g id="Elementos/icons/action/receipt_24px" transform="translate(247.000000, 69.000000)">
                <mask id="mask-2" fill="white">
                    <use xlink:href="#path-1"></use>
                </mask>
                <use id="ic_receipt_24px" fill="#1A75CF" fill-rule="evenodd" xlink:href="#path-1"></use>
            </g>
        </g>
    </g>
</svg>